<?xml version="1.0" encoding="utf-8"?>
<!-- Generator: Adobe Illustrator 23.0.0, SVG Export Plug-In . SVG Version: 6.00 Build 0)  -->
<svg version="1.0" id="Layer_1" xmlns="http://www.w3.org/2000/svg" xmlns:xlink="http://www.w3.org/1999/xlink" x="0px" y="0px"
	 width="800px" height="500px" viewBox="0 0 800 500" enable-background="new 0 0 800 500" xml:space="preserve">
<g>
	<path fill="#13764A" d="M523.8,337.9c86.5-59.2,156.9-77.3,201.1-83.5c48-6.7,49.1,20.9,49.1,20.9c-2.7-7.5-9.4-14.7-21.7-15.2
		c-12.5-0.6-49.7,5.6-94,25.4c-21.4,9.6-46.9,22.7-89.4,52.2L523.8,337.9z"/>
	<path fill="#BD202F" d="M773.9,271.1c0,0-3.2-22.5-35-20.7c-29.8,1.7-76.7,9.9-133.6,34.3c-21.7,9.3-47.8,22.5-74.2,37.5
		c-1.9,1.1-3.7,2.1-24.4,15.6l-52.5,0c21.9-14.1,25.2-15.9,28.5-17.7c27.2-14.5,63-31.9,98.9-44.4c61.2-21.3,125-31.5,161.3-31.5
		C769.1,244.2,773.9,265.9,773.9,271.1z"/>
	<path fill="#121617" d="M713.2,219.3h-60.4l35.8,3l11.9,5.5c0,0,2.6,0.6,3.9-0.5L713.2,219.3z"/>
	<g>
		<path fill="#121617" d="M10.5,337.9v-32h6.2v26.4h14.5v5.6H10.5z"/>
		<path fill="#121617" d="M48.3,337.9v-2c-1.6,1.6-3.1,2.2-5.7,2.2c-2.6,0-4.6-0.7-6-2.1c-1.3-1.3-1.9-3.2-1.9-5.3
			c0-3.7,2.6-6.8,8-6.8h5.5v-1.2c0-2.6-1.3-3.7-4.4-3.7c-2.2,0-3.3,0.5-4.5,1.9l-3.7-3.6c2.3-2.5,4.5-3.2,8.4-3.2
			c6.6,0,10,2.8,10,8.3v15.4H48.3z M48.1,328h-4.6c-2.1,0-3.3,1-3.3,2.7c0,1.6,1.1,2.7,3.4,2.7c1.6,0,2.7-0.1,3.7-1.1
			c0.6-0.6,0.9-1.5,0.9-3V328z"/>
		<path fill="#121617" d="M78.2,337.9c-4.8,0-6.8-3.4-6.8-6.7v-25.3h5.8v24.9c0,1.4,0.6,2.1,2.1,2.1h2.2v4.9H78.2z"/>
		<path fill="#121617" d="M101.9,335.3c-1.4,1.5-3.8,2.9-7.3,2.9c-3.5,0-5.8-1.3-7.2-2.9c-2.1-2.2-2.6-4.9-2.6-9.1
			c0-4.2,0.5-6.9,2.6-9.1c1.4-1.5,3.8-2.9,7.2-2.9c3.5,0,5.8,1.3,7.3,2.9c2.1,2.2,2.6,4.9,2.6,9.1
			C104.5,330.4,104,333.1,101.9,335.3z M97.4,320.5c-0.7-0.7-1.6-1-2.7-1c-1.2,0-2,0.4-2.7,1c-1.2,1.2-1.3,3.2-1.3,5.7
			c0,2.4,0.1,4.5,1.3,5.7c0.7,0.7,1.5,1,2.7,1c1.2,0,2.1-0.4,2.7-1c1.2-1.2,1.3-3.3,1.3-5.7C98.7,323.7,98.6,321.7,97.4,320.5z"/>
		<path fill="#121617" d="M118.6,346.7c-3.6,0-6.1-0.7-8.5-3.1l3.6-3.7c1.3,1.3,2.6,1.8,4.6,1.8c3.5,0,4.7-2.5,4.7-4.8v-2.4
			c-1.5,1.7-3.3,2.3-5.6,2.3c-2.3,0-4.3-0.8-5.6-2.1c-2.2-2.2-2.4-5.2-2.4-9.3c0-4.1,0.2-7.1,2.4-9.3c1.3-1.3,3.3-2.1,5.6-2.1
			c2.5,0,4.1,0.7,5.7,2.5v-2.2h5.7V337C128.9,342.6,124.9,346.7,118.6,346.7z M119.2,319.5c-3.5,0-3.8,3-3.8,6.1
			c0,3.1,0.4,6.1,3.8,6.1c3.5,0,3.9-3,3.9-6.1C123.1,322.4,122.7,319.5,119.2,319.5z"/>
		<path fill="#121617" d="M139.2,310.8h-3.9l2.9-7.6h6.2L139.2,310.8z M135.9,337.9v-23.4h5.8v23.4H135.9z"/>
		<path fill="#121617" d="M156.4,338.1c-3.7,0-7-0.4-10-3.4l3.8-3.8c1.9,1.9,4.4,2.2,6.2,2.2c2,0,4.1-0.7,4.1-2.4
			c0-1.2-0.6-2-2.5-2.2l-3.7-0.4c-4.2-0.4-6.8-2.2-6.8-6.6c0-4.9,4.3-7.5,9-7.5c3.6,0,6.7,0.6,8.9,2.7l-3.6,3.6
			c-1.3-1.2-3.4-1.6-5.4-1.6c-2.3,0-3.3,1.1-3.3,2.2c0,0.9,0.4,1.8,2.4,2l3.7,0.4c4.6,0.4,7,2.9,7,6.9
			C166.3,335.7,161.9,338.1,156.4,338.1z"/>
		<path fill="#121617" d="M178.5,337.9c-4.8,0-6.8-3.4-6.8-6.7v-11.6h-2.5v-4.4h2.5v-6.9h5.8v6.9h4.1v4.4h-4.1v11.2
			c0,1.3,0.6,2.1,2,2.1h2.1v4.9H178.5z"/>
		<path fill="#121617" d="M187.4,310.5v-4.8h6v4.8H187.4z M187.5,337.9v-23.4h5.8v23.4H187.5z"/>
		<path fill="#121617" d="M209.6,338.1c-4.7,0-10.5-2.5-10.5-12c0-9.5,5.8-11.9,10.5-11.9c3.2,0,5.7,1,7.7,3.1l-4,4
			c-1.2-1.3-2.2-1.8-3.8-1.8c-1.4,0-2.5,0.5-3.3,1.5c-0.9,1.1-1.3,2.7-1.3,5.2c0,2.5,0.4,4.1,1.3,5.2c0.9,1,1.9,1.5,3.3,1.5
			c1.5,0,2.6-0.5,3.8-1.8l4,3.9C215.2,337.1,212.8,338.1,209.6,338.1z"/>
		<path fill="#121617" d="M234.1,337.9v-2c-1.6,1.6-3.1,2.2-5.7,2.2c-2.7,0-4.6-0.7-6-2.1c-1.3-1.3-1.9-3.2-1.9-5.3
			c0-3.7,2.6-6.8,8-6.8h5.5v-1.2c0-2.6-1.3-3.7-4.4-3.7c-2.2,0-3.3,0.5-4.5,1.9l-3.7-3.6c2.3-2.5,4.5-3.2,8.4-3.2
			c6.6,0,10,2.8,10,8.3v15.4H234.1z M234,328h-4.6c-2.1,0-3.3,1-3.3,2.7c0,1.6,1.1,2.7,3.4,2.7c1.6,0,2.7-0.1,3.7-1.1
			c0.6-0.6,0.9-1.5,0.9-3V328z"/>
		<path fill="#121617" d="M270.3,337.9v-2.2c-1.6,1.8-3.3,2.5-5.8,2.5c-2.3,0-4.4-0.8-5.7-2.1c-2.3-2.3-2.4-6.4-2.4-9.9
			c0-3.5,0-7.5,2.4-9.8c1.3-1.3,3.4-2.1,5.7-2.1c2.4,0,4.2,0.6,5.7,2.3v-10.6h5.8v32H270.3z M266.2,319.5c-3.5,0-4,2.9-4,6.7
			c0,3.8,0.5,6.7,4,6.7c3.5,0,4-2.9,4-6.7C270.2,322.3,269.7,319.5,266.2,319.5z"/>
		<path fill="#121617" d="M287.6,328c0,3,1.8,5.2,5.1,5.2c2.6,0,3.8-0.7,5.3-2.2l3.5,3.5c-2.4,2.4-4.7,3.7-8.9,3.7
			c-5.5,0-10.8-2.5-10.8-12c0-7.6,4.1-11.9,10.2-11.9c6.5,0,10.2,4.8,10.2,11.2v2.6H287.6z M296,321.5c-0.6-1.4-1.9-2.4-3.9-2.4
			c-2,0-3.3,1-3.9,2.4c-0.4,0.9-0.5,1.5-0.5,2.5h8.9C296.5,323,296.3,322.3,296,321.5z"/>
		<path fill="#121617" d="M314.7,337.9c-4.8,0-6.8-3.4-6.8-6.7v-25.3h5.8v24.9c0,1.4,0.6,2.1,2.1,2.1h2.2v4.9H314.7z"/>
		<path fill="#121617" d="M338.6,328c0,3,1.8,5.2,5.1,5.2c2.6,0,3.8-0.7,5.3-2.2l3.5,3.5c-2.4,2.4-4.7,3.7-8.9,3.7
			c-5.5,0-10.8-2.5-10.8-12c0-7.6,4.1-11.9,10.2-11.9c6.5,0,10.2,4.8,10.2,11.2v2.6H338.6z M346.9,321.5c-0.6-1.4-1.9-2.4-3.9-2.4
			c-2,0-3.3,1-3.9,2.4c-0.4,0.9-0.5,1.5-0.5,2.5h8.9C347.4,323,347.3,322.3,346.9,321.5z M344.6,310.8h-3.9l2.9-7.6h6.2L344.6,310.8
			z"/>
		<path fill="#121617" d="M371.6,337.9l-4.3-7l-4.3,7h-7l8.1-11.9l-7.8-11.5h7l4,6.7l4-6.7h7l-7.8,11.5l8.1,11.9H371.6z"/>
		<path fill="#121617" d="M382.8,310.5v-4.8h6v4.8H382.8z M382.9,337.9v-23.4h5.8v23.4H382.9z"/>
		<path fill="#121617" d="M403,337.9c-4.8,0-6.8-3.4-6.8-6.7v-11.6h-2.5v-4.4h2.5v-6.9h5.8v6.9h4.1v4.4h-4.1v11.2
			c0,1.3,0.6,2.1,2,2.1h2.1v4.9H403z"/>
		<path fill="#121617" d="M428,335.3c-1.4,1.5-3.8,2.9-7.3,2.9c-3.5,0-5.8-1.3-7.2-2.9c-2.1-2.2-2.6-4.9-2.6-9.1
			c0-4.2,0.5-6.9,2.6-9.1c1.4-1.5,3.8-2.9,7.2-2.9c3.5,0,5.8,1.3,7.3,2.9c2.1,2.2,2.6,4.9,2.6,9.1
			C430.6,330.4,430.1,333.1,428,335.3z M423.4,320.5c-0.7-0.7-1.6-1-2.7-1c-1.2,0-2,0.4-2.7,1c-1.2,1.2-1.3,3.2-1.3,5.7
			c0,2.4,0.1,4.5,1.3,5.7c0.7,0.7,1.5,1,2.7,1c1.2,0,2.1-0.4,2.7-1c1.2-1.2,1.3-3.3,1.3-5.7C424.8,323.7,424.7,321.7,423.4,320.5z"
			/>
	</g>
	<g>
		<path fill="#121617" d="M10,294.6l37.5-121.5L81,166l37.1,128.6H81.2l-9.8-42.1H46.5l-9.8,42.1H10z M65.1,227.7
			c-0.9-3.7-1.8-7.4-2.7-11.1c-0.9-3.7-2-8.2-3.2-13.5l-8.5,33.6h16.6C66.8,234.5,66,231.5,65.1,227.7z"/>
		<path fill="#121617" d="M129.1,158.5l32.9-5.3v141.3h-32.9V158.5z"/>
		<path fill="#121617" d="M176.8,198.6l32.9-4.9v9.3c5.8-2.8,10.5-4.9,14.2-6.1c3.7-1.2,7.3-1.9,10.9-1.9c3.7-0.1,7.1,0.6,10,2
			c2.9,1.5,5.9,3.8,8.8,7c12-6,22.1-9,30.2-9c3.7,0,7.2,0.6,10.5,1.8c3.3,1.2,6.2,3,8.8,5.3c3.3,3.1,5.6,6.7,6.9,11
			c1.3,4.3,1.9,9.8,1.9,16.6v64.8H279v-59.7c0-3.6-0.2-6.5-0.6-8.7c-0.4-2.2-1.1-3.9-2.1-5.1c-1-1.2-2.5-2-4.3-2.5
			c-1.9-0.5-4.2-0.8-7-1c-0.9-0.1-1.7-0.1-2.4-0.1c-0.7,0.1-1.4,0.2-2.2,0.4c0.3,2,0.5,4.3,0.5,6.8v69.9H228v-59.4
			c0-3.8-0.2-6.9-0.5-9.2c-0.3-2.3-1-4-1.9-5.2c-1-1.2-2.3-2-4.1-2.4c-1.8-0.4-4-0.7-6.9-0.9c-1.1-0.1-2-0.1-2.7,0
			c-0.7,0.1-1.4,0.2-2.2,0.3v76.7h-32.9V198.6z"/>
		<path fill="#121617" d="M392.8,274.2c2.2-0.2,5.2-0.7,8.9-1.4l2.7-0.5l2.5,16.5l-5.9,1.4l-10.2,2.5c-5.4,1.4-9.9,2.3-13.5,2.7
			c-3.6,0.4-7.1,0.7-10.6,0.7c-6.3,0-12-1.1-17.1-3.4c-5.1-2.3-9.5-5.5-13.1-9.7c-3.7-4.2-6.5-9.2-8.5-14.9c-2-5.8-3-12.2-3-19.2
			c0-7.9,1.1-15.2,3.2-21.9c2.1-6.7,5.2-12.4,9.2-17.1c4-4.8,8.8-8.4,14.4-11c5.6-2.6,11.9-3.9,18.9-3.9c5.4,0,10.5,0.9,15.1,2.6
			c4.6,1.8,8.6,4.4,11.9,8.1c1.8,1.9,3.4,3.8,4.7,5.6c1.4,1.8,2.4,3.9,3.2,6.2c0.8,2.3,1.4,5,1.8,8.1c0.4,3.1,0.6,6.9,0.6,11.4v5.9
			l-49.9,5.4c1.2,8.8,4.2,15.3,8.8,19.5c4.6,4.2,11,6.4,19.2,6.6C388.4,274.6,390.6,274.5,392.8,274.2z M376.3,228.3
			c0-3.6-0.2-6.6-0.5-8.8c-0.3-2.3-0.9-4-1.5-5.3c-0.7-1.3-1.5-2.2-2.5-2.6c-1-0.4-2.2-0.7-3.6-0.7c-3.2-0.1-5.7,1.4-7.5,4.5
			c-1.8,3.1-2.7,8.9-2.7,17.4v0.7l18.3-2.5V228.3z"/>
		<path fill="#121617" d="M412.7,294.6l33.9-48.3l-33.8-50h35.6l19.3,29.2l17.8-29.2h23.2L478.6,241l34.8,53.6H478l-20.2-32.1
			l-20,32.1H412.7z"/>
	</g>
	<g>
		<path fill="#121617" d="M576.5,337.8c1.3-1.1,2.7-2.1,3.4-2.7c67.8-50.1,141.8-72.2,170.5-71.3c11.1,0.3,20.1,7.4,24.6,15.2
			c9.8-10.3,11.1-27.5,3-44.2c-3.8-7.8-9.1-8.7-13.4-8.5c-4.3,0.2-33.4,0-34.6,0l-3.6,0l0.3-3.6c0-0.1,0.7-9.6-4.9-15.6
			c-3-3.3-7.6-5-13.4-5h-99.1c0,2.5-0.5,5.7-2.5,7.8c-1.2,1.3-3.5,2.6-7.1,2c-5.3-0.9-12.5-3.7-18.8-6.2c-4.2-1.6-8.1-3.2-10.1-3.6
			c0,0-0.1,0-0.1,0c-0.2,0.9-0.1,2.6,0,3.4l0,0.7c0.3,4.6-1.2,8.1-4,10.1c-3.4,2.3-8.2,1.9-14.6-1.1l-3.2-1.5
			c-11.6-5.6-31-15.3-35.6-18h14.5c4.4,2.5,12.5,6.5,24,12l3.2,1.5c5.7,2.7,7.6,1.9,8.1,1.6c0.8-0.5,1.2-2.2,1.1-4.2l0-0.6
			c-0.2-2.5-0.4-6.7,2.3-9c1-0.9,2.9-1.8,5.8-1.2c2.5,0.5,6.5,2.1,11.2,3.9c6,2.4,12.9,5,17.5,5.9c0.6,0.1,1.1,0.1,1.2-0.1
			c0.7-0.7,0.8-3.7,0.4-5.8l-0.8-4l4,0h102.7c7.8,0,13.9,2.4,18.3,7.1c5.1,5.5,6.3,12.8,6.6,17c7.9,0,27.7,0.1,31.1,0
			c8.9-0.3,15.5,3.8,19.6,12.2c10.3,21.2,7.1,43.4-8,55.1l-3.6,2.8l-1.5-4.3c-2.1-5.9-9.4-14.8-20.6-15.2
			c-27.4-0.8-96.9,19.6-162.7,67.4H576.5z"/>
	</g>
</g>
</svg>
