<svg xmlns="http://www.w3.org/2000/svg" viewBox="0 0 154.63 142.14"><defs><style>.cls-1{fill:#9e0404;}.cls-2{fill:#010066;}</style></defs><title>Recurso 1</title><g id="Capa_2" data-name="Capa 2"><g id="Capa_1-2" data-name="Capa 1"><path class="cls-1" d="M21,127.88l-6,.34c-.09-3.13-1.44-4.7-4.07-4.7q-4.51,0-4.52,7.23c0,2.79.41,4.67,1.23,5.66a4.23,4.23,0,0,0,3.44,1.49q3.57,0,4.37-4.19L21,134a8.67,8.67,0,0,1-3.29,6A10.88,10.88,0,0,1,11,142.14a10.76,10.76,0,0,1-7.94-3Q0,136.07,0,130.7a11.67,11.67,0,0,1,3-8.22,10.46,10.46,0,0,1,8.08-3.2Q19.92,119.28,21,127.88Z"/><path class="cls-1" d="M40.48,119.63l7.71,22.17H42l-1.52-4.57h-8L31,141.8H25.91l7.89-22.17Zm-6.59,13.51h5.22l-2.58-7.78Z"/><path class="cls-1" d="M60.93,133v8.79H55.12V119.63H66a15,15,0,0,1,4.8.62,6.09,6.09,0,0,1,3,2.3A6.26,6.26,0,0,1,75,126.26q0,4-4.28,5.73l4.55,9.81H68.84L65.06,133Zm0-9.44v5.65h3.54A10.68,10.68,0,0,0,67,129a2.8,2.8,0,0,0,1.4-1A2.65,2.65,0,0,0,69,126.3a2.51,2.51,0,0,0-.61-1.66,2.6,2.6,0,0,0-1.33-.9,14.45,14.45,0,0,0-2.71-.17Z"/><path class="cls-1" d="M100.7,124.5,95.79,126a4,4,0,0,0-4.19-2.64c-2.28,0-3.42.67-3.42,2a1.71,1.71,0,0,0,.64,1.35,6.77,6.77,0,0,0,2.89,1A32.13,32.13,0,0,1,97.22,129a7,7,0,0,1,3,2.25,5.59,5.59,0,0,1,1.19,3.47,6.64,6.64,0,0,1-2.57,5.2q-2.57,2.19-7.61,2.19a12.61,12.61,0,0,1-6.44-1.55A7.46,7.46,0,0,1,81.23,136l5.34-1.09q.9,3.11,5,3.11a5.12,5.12,0,0,0,3-.69,2,2,0,0,0,1-1.65,1.66,1.66,0,0,0-.88-1.51,11.21,11.21,0,0,0-3.41-1q-4.69-.88-6.7-2.4a5.23,5.23,0,0,1-2-4.44,6.33,6.33,0,0,1,2.39-5,9.69,9.69,0,0,1,6.48-2Q98.63,119.28,100.7,124.5Z"/><path class="cls-1" d="M126.43,124.5,121.52,126a4,4,0,0,0-4.19-2.64c-2.28,0-3.42.67-3.42,2a1.71,1.71,0,0,0,.64,1.35,6.77,6.77,0,0,0,2.89,1A31.88,31.88,0,0,1,123,129a7,7,0,0,1,3,2.25,5.59,5.59,0,0,1,1.19,3.47,6.66,6.66,0,0,1-2.56,5.2c-1.72,1.46-4.25,2.19-7.62,2.19a12.61,12.61,0,0,1-6.44-1.55A7.46,7.46,0,0,1,107,136l5.34-1.09q.9,3.11,5,3.11a5.12,5.12,0,0,0,3-.69,2,2,0,0,0,1-1.65,1.66,1.66,0,0,0-.88-1.51,11.22,11.22,0,0,0-3.4-1c-3.14-.59-5.37-1.39-6.71-2.4a5.23,5.23,0,0,1-2-4.44,6.32,6.32,0,0,1,2.38-5,9.69,9.69,0,0,1,6.48-2Q124.35,119.28,126.43,124.5Z"/><path class="cls-1" d="M146.92,119.63l7.71,22.17h-6.2l-1.52-4.57h-8l-1.54,4.57h-5.06l7.9-22.17Zm-6.58,13.51h5.21L143,125.36Z"/><path class="cls-2" d="M102.67,69.63C96.52,85,80.58,96,61.9,96c-24,0-43.5-18.13-43.5-40.5S37.88,15,61.9,15c17.08,0,31.86,9.16,39,22.5L88.39,40a30.9,30.9,0,0,0-27-16c-17.12,0-31,14.1-31,31.5S44.28,87,61.4,87A31,31,0,0,0,89.91,67.89Z"/><path class="cls-2" d="M139.4,56.5c0,31.2-32.24,56.5-72,56.5a91.42,91.42,0,0,1-10-.54C91,108.79,117.17,87,119.26,60H64.4V47h54C113.17,22.86,88.45,3.93,57.4.54A91.42,91.42,0,0,1,67.4,0C107.16,0,139.4,25.3,139.4,56.5Z"/></g></g></svg>