<?xml version="1.0" encoding="iso-8859-1"?>
<!-- Generator: Adobe Illustrator 24.0.1, SVG Export Plug-In . SVG Version: 6.00 Build 0)  -->
<svg version="1.1" id="Layer_1" xmlns="http://www.w3.org/2000/svg" xmlns:xlink="http://www.w3.org/1999/xlink" x="0px" y="0px"
	 width="800px" height="500px" viewBox="0 0 800 500" style="enable-background:new 0 0 800 500;" xml:space="preserve">
<style type="text/css">
	.st0{fill:#C82027;}
	.st1{fill-rule:evenodd;clip-rule:evenodd;fill:#020303;}
</style>
<g>
	<path class="st0" d="M43.2,167.3c-0.6-5.5-3.1-8.2-9-8.2c-11.3,0-14.1,12.9-14.1,19.5c0,6.8,3.3,11.6,10.6,11.6
		c9,0,11.3-8.2,11.7-9.3H31l1.3-7.3h20.2l-4,23.1h-6.2l-0.2-4.9c-3.6,4.6-9.7,6-13.6,6c-6.4,0-17.6-3.8-17.6-19.2
		c0-14.5,8.1-27.2,23.6-27.2c10.1,0,17.8,5,17.8,15.8H43.2z"/>
	<path class="st0" d="M65,152.6h16.8c8.9,0,15.4,3.3,15.4,12.8c0,6.2-3.6,10-8.2,11.3c1.5,0.6,3.9,1.6,3.9,6.9
		c0,1.2-0.6,6.6-0.6,7.7c0,2.7,0.1,3.6,2.1,4.2v1.2H83.8c-0.4-1-0.7-2-0.7-3.1c0-2.6,0.4-5.1,0.5-7.7c0-3.3-0.4-6.3-6.4-6.3h-7.9
		l-2.9,17.1h-9.2L65,152.6z M70.6,172.3h8.9c6.5,0,8.7-3.9,8.7-7.1c0-5.1-4.9-5.1-6.8-5.1h-8.6L70.6,172.3z"/>
	<path class="st0" d="M116.7,152.6l-4.5,25.6c-0.3,1.9-0.6,4.2-0.6,5.2c0,5.8,4.8,6.8,7.6,6.8c8.1,0,9.2-6.3,10.5-13.6l4.4-24h9.2
		l-4.9,26.8c-2.3,12.4-6.9,18.4-20.2,18.4c-7.3,0-15.8-4.3-15.8-13.7c0-1.2,0.2-3.5,0.8-7.1l4.2-24.5H116.7z"/>
	<path class="st0" d="M152.1,152.6h15.2c11.4,0,15.6,6,15.6,12.7c0,10-6,16.1-17.9,16.1h-8.9l-2.8,15.4h-9.2L152.1,152.6z
		 M157.5,173.7h8.2c5.8,0,8.3-3.4,8.3-7.5c0-3.3-1.4-6-6.3-6H160L157.5,173.7z"/>
	<path class="st0" d="M211,151.5c14.7,0,19.3,11.2,19.3,19.7c0,12.6-7.6,26.7-23.6,26.7c-14.7,0-19.3-11.2-19.3-19.7
		C187.5,165.6,195,151.5,211,151.5 M207.1,190.2c11.3,0,14-12.5,14-19.5c0-8.1-4.9-11.6-10.4-11.6c-11.3,0-14,12.5-14,19.5
		C196.7,186.7,201.5,190.2,207.1,190.2"/>
	<path class="st1" d="M92.8,269.7h-35v-23.5c0-6.8-0.4-11.1-1.1-12.8c-0.7-1.7-2.4-2.5-4.9-2.5c-2.9,0-4.7,1-5.5,3.1
		c-0.8,2.1-1.2,6.5-1.2,13.3v62.6c0,6.6,0.4,10.8,1.2,12.8c0.8,2,2.5,3,5.3,3c2.6,0,4.3-1,5.1-3c0.8-2,1.2-6.7,1.2-14.1v-16.9h35
		v5.2c0,13.9-1,23.8-3,29.6c-2,5.8-6.3,10.9-13.1,15.3c-6.7,4.4-15.1,6.6-24.9,6.6c-10.3,0-18.7-1.9-25.4-5.6
		c-6.6-3.7-11.1-8.9-13.2-15.4c-2.2-6.6-3.2-16.5-3.2-29.7v-39.3c0-9.7,0.3-17,1-21.8c0.7-4.9,2.6-9.5,6-14c3.3-4.5,7.9-8,13.7-10.6
		c5.9-2.6,12.6-3.9,20.2-3.9c10.3,0,18.9,2,25.6,6c6.7,4,11.1,9,13.2,14.9c2.1,6,3.1,15.2,3.1,27.8V269.7z M175.2,211l20,134.7
		h-35.9l-1.7-24.2H145l-2.1,24.2h-36.3L124.5,211H175.2z M156.6,297.6c-1.8-15.3-3.5-34.1-5.3-56.5c-3.6,25.8-5.8,44.6-6.7,56.5
		H156.6z M284.7,251.7h-32.5v-10c0-4.7-0.4-7.6-1.2-8.9c-0.8-1.3-2.2-1.9-4.2-1.9c-2.1,0-3.7,0.9-4.8,2.6c-1.1,1.7-1.6,4.3-1.6,7.8
		c0,4.5,0.6,7.9,1.8,10.2c1.2,2.3,4.5,5,9.9,8.2c15.6,9.3,25.4,16.8,29.4,22.8c4.1,5.9,6.1,15.5,6.1,28.7c0,9.6-1.1,16.7-3.4,21.2
		c-2.2,4.5-6.6,8.4-13,11.4c-6.4,3.1-13.9,4.6-22.5,4.6c-9.4,0-17.4-1.8-24-5.3c-6.6-3.6-11-8.1-13-13.5c-2-5.5-3.1-13.3-3.1-23.4
		v-8.8h32.5v16.4c0,5.1,0.5,8.3,1.4,9.7c0.9,1.4,2.6,2.2,4.9,2.2c2.3,0,4.1-0.9,5.2-2.8c1.1-1.8,1.7-4.5,1.7-8.1
		c0-7.9-1.1-13.1-3.2-15.6c-2.2-2.4-7.7-6.5-16.4-12.2c-8.7-5.8-14.5-10-17.3-12.6c-2.8-2.6-5.2-6.2-7-10.8
		c-1.9-4.6-2.8-10.5-2.8-17.6c0-10.3,1.3-17.9,4-22.6c2.6-4.8,6.9-8.5,12.8-11.2c5.9-2.7,13-4,21.3-4c9.1,0,16.9,1.5,23.3,4.4
		c6.4,2.9,10.7,6.6,12.8,11.1c2.1,4.5,3.1,12,3.1,22.7V251.7z M378.5,211v27h-20.8v107.8h-35V237.9H302v-27H378.5z M475.9,289.8
		c0,13.5-0.3,23.1-0.9,28.7c-0.7,5.6-2.6,10.8-6,15.4c-3.3,4.7-7.9,8.2-13.6,10.7c-5.7,2.5-12.4,3.7-20,3.7
		c-7.2,0-13.7-1.2-19.4-3.6c-5.8-2.4-10.4-5.9-13.9-10.6c-3.5-4.7-5.6-9.9-6.2-15.4c-0.7-5.6-1-15.3-1-29.1v-23
		c0-13.5,0.3-23.1,1-28.8c0.6-5.6,2.6-10.8,6-15.4c3.4-4.7,7.9-8.2,13.6-10.7c5.7-2.5,12.4-3.7,20-3.7c7.2,0,13.7,1.2,19.4,3.5
		c5.7,2.4,10.4,5.9,13.9,10.6c3.5,4.7,5.6,9.9,6.2,15.4c0.7,5.6,1,15.3,1,29.1V289.8z M440.9,245.6c0-6.3-0.3-10.3-1.1-12
		c-0.7-1.7-2.1-2.6-4.3-2.6c-1.8,0-3.2,0.7-4.2,2.1c-1,1.4-1.5,5.6-1.5,12.5v62.9c0,7.8,0.3,12.7,1,14.5c0.6,1.9,2.1,2.8,4.5,2.8
		c2.4,0,3.9-1,4.6-3.2c0.7-2.1,1-7.1,1-15.1V245.6z M498.3,211h24.8c16.5,0,27.7,0.6,33.6,1.9c5.9,1.3,10.6,4.5,14.3,9.8
		c3.7,5.3,5.5,13.6,5.5,25.1c0,10.5-1.3,17.5-3.9,21.1c-2.6,3.6-7.7,5.8-15.4,6.5c6.9,1.7,11.6,4,14,6.9c2.4,2.9,3.9,5.5,4.4,7.9
		c0.6,2.4,0.9,9.1,0.9,19.9v35.5H544v-44.8c0-7.2-0.6-11.7-1.7-13.4c-1.1-1.7-4.1-2.6-8.9-2.6v60.8h-35V211z M533.3,234v30
		c3.9,0,6.7-0.5,8.3-1.6c1.6-1.1,2.4-4.6,2.4-10.5v-7.4c0-4.3-0.8-7.1-2.3-8.4C540.2,234.7,537.4,234,533.3,234 M599.4,211h58.4v27
		h-23.4v25.5h21.9v25.6h-21.9v29.6h25.7v27h-60.8V211z M753.7,251.7h-32.5v-10c0-4.7-0.4-7.6-1.3-8.9c-0.8-1.3-2.2-1.9-4.2-1.9
		c-2.1,0-3.7,0.9-4.8,2.6c-1.1,1.7-1.6,4.3-1.6,7.8c0,4.5,0.6,7.9,1.8,10.2c1.2,2.3,4.5,5,9.9,8.2c15.6,9.3,25.4,16.8,29.5,22.8
		c4.1,5.9,6.1,15.5,6.1,28.7c0,9.6-1.1,16.7-3.4,21.2c-2.2,4.5-6.6,8.4-13,11.4c-6.4,3.1-13.9,4.6-22.5,4.6c-9.4,0-17.4-1.8-24-5.3
		c-6.6-3.6-11-8.1-13-13.5c-2-5.5-3.1-13.3-3.1-23.4v-8.8h32.5v16.4c0,5.1,0.5,8.3,1.4,9.7c0.9,1.4,2.6,2.2,4.9,2.2
		c2.3,0,4.1-0.9,5.2-2.8c1.1-1.8,1.7-4.5,1.7-8.1c0-7.9-1.1-13.1-3.2-15.6c-2.2-2.4-7.7-6.5-16.4-12.2c-8.7-5.8-14.5-10-17.3-12.6
		c-2.8-2.6-5.2-6.2-7-10.8c-1.9-4.6-2.8-10.5-2.8-17.6c0-10.3,1.3-17.9,3.9-22.6c2.6-4.8,6.9-8.5,12.8-11.2c5.9-2.7,13-4,21.3-4
		c9.1,0,16.9,1.5,23.3,4.4c6.4,2.9,10.7,6.6,12.8,11.1c2.1,4.5,3.1,12,3.1,22.7V251.7z"/>
	<path class="st1" d="M778.8,323.3c6.2,0,11.2,5,11.2,11.2c0,6.2-5,11.2-11.2,11.2c-6.2,0-11.2-5-11.2-11.2
		C767.7,328.3,772.7,323.3,778.8,323.3 M778.8,324.5c-5.5,0-10.1,4.5-10.1,10.1c0,5.6,4.5,10.1,10.1,10.1c5.5,0,10.1-4.5,10.1-10.1
		C788.9,329,784.4,324.5,778.8,324.5"/>
	<path class="st1" d="M773.5,340.6v-12.1h5.4c1.1,0,1.9,0.1,2.5,0.3c0.6,0.2,1,0.6,1.4,1.2c0.3,0.6,0.5,1.2,0.5,1.8
		c0,0.9-0.3,1.6-0.8,2.2c-0.6,0.6-1.4,1-2.6,1.1c0.4,0.2,0.8,0.4,1,0.6c0.5,0.4,0.9,1,1.3,1.6l2.1,3.3h-2l-1.6-2.5
		c-0.5-0.7-0.9-1.3-1.2-1.7c-0.3-0.4-0.6-0.7-0.8-0.8c-0.2-0.1-0.5-0.3-0.7-0.3c-0.2,0-0.5-0.1-0.9-0.1h-1.9v5.4H773.5z
		 M775.1,333.8h3.4c0.7,0,1.3-0.1,1.7-0.2c0.4-0.1,0.7-0.4,0.9-0.7c0.2-0.3,0.3-0.7,0.3-1.1c0-0.6-0.2-1-0.6-1.4
		c-0.4-0.4-1.1-0.6-2-0.6h-3.8V333.8z"/>
</g>
</svg>
