<svg xmlns="http://www.w3.org/2000/svg" width="562.77" height="119.93" viewBox="0 0 562.77 119.93">
  <g id="logos_envios_Chazki" transform="translate(-25.201 -27.89)">
    <path id="Trazado_21378" data-name="Trazado 21378" d="M267.85,140.46c-6.52,4.09-13.49,6.64-21.32,6.66a45.53,45.53,0,0,1-20.59-4.59,39.18,39.18,0,0,1-17.33-16.63,46.36,46.36,0,0,1-5.5-18.63,50.91,50.91,0,0,1,2.4-21.47c3.85-10.9,10.79-19.2,21.12-24.5a43.37,43.37,0,0,1,17.47-4.59c8.57-.52,16.24,1.94,23.41,6.4a4.25,4.25,0,0,0,.63.28,21.573,21.573,0,0,0,.15-3.38c.46,0,.91-.08,1.37-.08h20.6c0,.57.05,1.14.06,1.71v82a16.477,16.477,0,0,1-.06,1.72H268.35c0-1.6-.07-3.2-.11-4.8C268.13,140.19,268,140.22,267.85,140.46ZM225.28,99.2a30.24,30.24,0,0,0,2.14,13.93c4,9.24,13.69,13.11,22.49,11.66a20.77,20.77,0,0,0,13.43-8.57c7.67-10.28,6.18-22.57-2.27-31.11a20,20,0,0,0-18.35-6c-10.81,1.8-16.72,10.64-17.26,19.66a.35.35,0,0,0-.18.43Z" fill="#3670b7"/>
    <path id="Trazado_21379" data-name="Trazado 21379" d="M464.92,60.62c-4,5.11-8.06,10.24-12.1,15.34q-7.5,9.42-15,18.77a1.68,1.68,0,0,0-.11,2.25q10.37,18.09,20.66,36.22c2.28,4,4.71,8,6.79,12.11h-25.1c-1.92-3.38-3.86-6.75-5.76-10.14q-5.49-9.81-11-19.64a5.85,5.85,0,0,0-.3-.53c-.73.06-.94.68-1.27,1.1-4.42,5.84-8.81,11.71-13.23,17.55a3.41,3.41,0,0,0-.73,2.22c0,3.15,0,6.3-.06,9.45h-22c0-.57-.06-1.15-.06-1.72V29.6c0-.57,0-1.14.05-1.71h22c0,.68.06,1.37.06,2.06v70.69c.33.08.46-.15.53-.44q5.82-7.32,11.63-14.66,9.84-12.47,19.66-25a4,4,0,0,1,.38-.34H462.9C463.63,60.28,464.35,60,464.92,60.62Z" fill="#3670b7"/>
    <path id="Trazado_21380" data-name="Trazado 21380" d="M137.63,28V63c.55.2.78-.13,1.05-.31a26.94,26.94,0,0,1,15.25-4.46A36.64,36.64,0,0,1,177.09,66a37.66,37.66,0,0,1,14.74,25.66,40.056,40.056,0,0,1,.33,5.47v46.3a17.056,17.056,0,0,1-.07,1.89h-22c0-.46-.06-.92-.06-1.37,0-15.37-.05-30.74,0-46.11A17.64,17.64,0,0,0,168.72,90a15.81,15.81,0,0,0-12.79-9.47A16.37,16.37,0,0,0,137.79,93.7a13.71,13.71,0,0,0-.14,2.57q0,23.47,0,47a20.254,20.254,0,0,1-.07,2.06h-21.9c0-.57-.07-1.14-.07-1.71v-114a16.287,16.287,0,0,1,.06-1.71h18.37C135.23,27.9,136.43,28,137.63,28Z" fill="#3670b7"/>
    <path id="Trazado_21381" data-name="Trazado 21381" d="M74.31,57.87a41.81,41.81,0,0,1,30,19.06,1.07,1.07,0,0,1-.15,1.6c-4.84,5-9.8,10-14.75,14.92a7.469,7.469,0,0,1-.64.48c-.44-.88-.84-1.69-1.25-2.48-3.15-6-8-10-14.7-11.31a19.23,19.23,0,0,0-16.68,4.25c-5,4.17-7.5,9.69-8.4,16a22.43,22.43,0,0,0,1.39,12.28A21.19,21.19,0,0,0,64.8,125.59a13.171,13.171,0,0,0,1.54.16,9.12,9.12,0,0,0,5,0,20.28,20.28,0,0,0,10.3-3.9,21,21,0,0,0,6.87-8.35,1.715,1.715,0,0,1,1,.72l14.23,14.22c1,1,1,1.06.15,2.22a43,43,0,0,1-27.79,16.8,26,26,0,0,1-3.4.36c-2.48-.12-5-.11-7.43,0a40.61,40.61,0,0,1-19.38-6.29,43.09,43.09,0,0,1-16-17.33,42.2,42.2,0,0,1-4.57-16.93A47.83,47.83,0,0,1,33,77.73,43.12,43.12,0,0,1,60.44,58.35a14.57,14.57,0,0,1,3.22-.48Z" fill="#3670b7"/>
    <path id="Trazado_21382" data-name="Trazado 21382" d="M302.59,145l9-16L330,96.39q4-7.17,8.08-14.36c-.5-.73-1.26-.39-1.88-.39H302.32c0-5.39-.05-10.78-.06-16.18,0-1.72,0-3.44.07-5.16h71.23a44.068,44.068,0,0,1-3.23,6q-10.14,18-20.37,36l-11.94,21c-.22.32-.11.56.24.6a10.5,10.5,0,0,0,1.37,0h33.95c0,3.61.07,7.23.07,10.84s0,7-.06,10.5H304.37C303.76,145.33,303.09,145.54,302.59,145Z" fill="#3670b7"/>
    <path id="Trazado_21383" data-name="Trazado 21383" d="M525.51,130.62a58.367,58.367,0,0,0,5.8-6.9,49.44,49.44,0,0,0,8.38-20.82,48.6,48.6,0,0,0,.54-10.77,49.881,49.881,0,0,0-4.55-17.85,50.929,50.929,0,0,0-9.26-13.54c-.55-.58-.65-.91,0-1.52q7.15-7.09,14.23-14.24c.66-.66,1-.58,1.66,0a69.819,69.819,0,0,1,11.51,15.54,71.461,71.461,0,0,1,8.1,24.29,65.678,65.678,0,0,1,.74,12.84,73.261,73.261,0,0,1-8.3,31.22,67.74,67.74,0,0,1-10.6,14.94c-.73.77-1.24,2.2-2.27,2.09-.81-.08-1.52-1.27-2.25-2l-12.18-12.16a14.687,14.687,0,0,0-1.55-1.12Z" fill="#4eae33"/>
    <path id="Trazado_21384" data-name="Trazado 21384" d="M482.92,74.46c-6.32-.62-12.11-6.19-13-12.94a15.1,15.1,0,1,1,16.9,13Z" fill="#4eae33"/>
    <path id="Trazado_21385" data-name="Trazado 21385" d="M579.07,145.07a8.81,8.81,0,1,1,8.9-8.72A8.81,8.81,0,0,1,579.07,145.07ZM579,143.3a7,7,0,0,0,7.14-7,7.036,7.036,0,1,0-14.07,0C572,140.22,575.66,143.54,579,143.3Z" fill="#3670b7"/>
    <path id="Trazado_21386" data-name="Trazado 21386" d="M582.28,140.35c-1.5.28-1.5.28-2-1-.15-.37-.29-.74-.44-1.12-.29-.7-.9-.62-1.46-.53s-.44.57-.46,1v.51c-.08.55.3,1.4-.79,1.33s-.66-.9-.68-1.43v-6.35c0-.57.23-.84.81-.82a25.2,25.2,0,0,1,2.75,0,2.72,2.72,0,0,1,2.08,4.31,2.44,2.44,0,0,0-.12,2.75,2.15,2.15,0,0,1,.31,1.35Zm-3.21-4.28h.21a1.26,1.26,0,0,0,1.53-1,1.1,1.1,0,0,0-.56-1.3,2,2,0,0,0-2.09-.06c-.56.4-.31,1.27-.19,1.91S578.69,136,579.07,136.07Z" fill="#3670b7"/>
    <rect id="Rectángulo_17345" data-name="Rectángulo 17345" width="22.08" height="42.48" transform="translate(473.88 102.84)" fill="#3670b7"/>
  </g>
</svg>
