<?xml version="1.0" encoding="utf-8"?>
<!-- Generator: Adobe Illustrator 16.0.3, SVG Export Plug-In . SVG Version: 6.00 Build 0)  -->
<!DOCTYPE svg PUBLIC "-//W3C//DTD SVG 1.1//EN" "http://www.w3.org/Graphics/SVG/1.1/DTD/svg11.dtd">
<svg version="1.1" id="Capa_1" xmlns="http://www.w3.org/2000/svg" xmlns:xlink="http://www.w3.org/1999/xlink" x="0px" y="0px"
	 width="1224px" height="1224px" viewBox="0 0 1224 1224" enable-background="new 0 0 1224 1224" xml:space="preserve">
<g>
	<g>
		<path fill="#40281E" d="M73.01,918.696c1.75,19.629,19.761,31.422,38.699,31.398c15.833,0,25.266-7.092,31.384-16.878h42.009
			c-7.267,16.69-17.843,29.591-30.6,38.175c-12.497,8.806-27.397,13.308-42.816,13.308c-44.604,0-79.652-36.063-79.652-79.579
			c0-42.351,33.235-80.605,78.95-80.605c22.724,0,42.446,8.771,56.582,23.454c18.714,19.735,24.829,43.703,21.534,70.728H73.01z
			 M148.878,887.497c-1.137-10.241-13.048-28.506-37.659-28.366c-24.814,0-36.475,17.939-37.708,28.366H148.878z"/>
		<path fill="#40281E" d="M235,900l-50.642-70.482h49.172l26.63,42.595l26.415-42.595h48.617L284.593,900l57.36,79.953h-50.053
			l-31.74-48.94l-32.19,48.94h-49.404L235,900z"/>
		<path fill="#40281E" d="M391.55,900l-50.642-70.482h49.172l26.63,42.595l26.418-42.595h48.612L441.127,900l57.379,79.953h-50.072
			l-31.724-48.94l-32.203,48.94h-49.383L391.55,900z"/>
		<path fill="#40281E" d="M504.621,829.518h38.516c0,6.229,0,12.469,0,18.965c10.191-13.087,26.19-23.968,50.188-23.968
			c52.973,0,74.082,45.988,74.082,81.562c0,43.155-30.383,78.868-73.838,78.868c-28.132,0-42.305-14.043-48.011-21.391
			c0,5.284,0,10.847,0,16.399v51.271h-40.937V829.518z M626.469,904.595c-0.036-19.408-14.162-41.836-41.432-41.836
			c-11.884,0-22.249,4.724-29.671,12.397c-7.172,7.465-11.593,18.102-11.593,29.964c0,11.629,4.461,22.021,11.897,29.462
			c7.423,7.452,17.821,12.152,29.443,12.152c25.287,0,41.356-20.353,41.356-41.871V904.595z"/>
		<path fill="#40281E" d="M678.662,829.518h38.537c0,5.855,0,11.99,0,18.09c5.412-10.485,15.231-23,39.841-23.093v41.195
			c-0.548,0-1.119,0-1.689,0c-24.04,0-35.75,10.007-35.75,33.311v80.933h-40.938V829.518z"/>
		<path fill="#40281E" d="M798.504,918.696c1.738,19.629,19.782,31.422,38.688,31.398c15.839,0,25.264-7.092,31.398-16.878h42
			c-7.255,16.69-17.834,29.591-30.594,38.175c-12.502,8.806-27.409,13.308-42.84,13.308c-44.577,0-79.613-36.063-79.613-79.579
			c0-42.351,33.217-80.605,78.926-80.605c22.731,0,42.466,8.771,56.591,23.454c18.709,19.735,24.844,43.703,21.531,70.728H798.504z
			 M874.398,887.497c-1.178-10.241-13.074-28.506-37.684-28.366c-24.82,0-36.484,17.939-37.708,28.366H874.398z"/>
		<path fill="#40281E" d="M920.329,951.692l66.702-90.94h-66.177v-31.234h110.499v31.258l-62.61,87.966h63.111v31.212H920.329
			V951.692z"/>
		<path fill="#40281E" d="M1034.035,904.326c0-37.45,27.129-79.567,80.852-79.567c53.698,0,80.851,42.117,80.851,79.859
			c0,37.767-27.152,79.871-80.851,79.871c-53.723,0-80.852-42.104-80.852-79.871V904.326z M1074.974,904.618
			c0,23.747,18.091,41.347,39.913,41.347c21.821,0,39.899-17.6,39.899-41.639c0-24.003-18.078-41.603-39.899-41.603
			c-21.822,0-39.913,17.6-39.913,41.603V904.618z"/>
	</g>
	<g>
		<g>
			<path fill="#D9D9D9" d="M710.353,516.503c-21.566,34.492-51.553,50.584-94.544,50.584c-56.711,0-103.935-32.865-114.812-79.889
				l-3.179-13.714H323.572l5.057,21.706c31.276,134.111,149.387,227.804,287.262,227.804c58.223,0,113.332-17.145,159.101-49.417
				c47.913-32.319,86.985-80.962,112.913-140.667l10.777-24.718H715.576L710.353,516.503z"/>
			<path fill="#D9D9D9" d="M823.778,156.864c-55.983-58.209-132.531-91.593-209.984-91.593L72.193,65.064l7.354,23.07
				c1.832,5.704,45.703,139.778,141.343,139.778h382.622h1.062c66.076,0,101.381,39.248,114.375,69.103H483.997l0.027-0.251H187.416
				l7.36,23.044c1.653,5.228,41.733,127.641,129.443,127.641h138.419l443.426-0.026l1.855-15.524
				C921.285,322.363,892.978,229.871,823.778,156.864z"/>
		</g>
		<path fill="#EB5D13" d="M725.352,525.872c-21.321,34.125-54.177,58.897-109.311,58.897
			c-60.704,0.082-118.649-34.777-132.277-93.587H345.862c28.362,121.749,136.918,214.109,270.029,214.109
			c53.768,0,105.67-15.676,149.232-46.375c44.357-29.939,81.271-74.85,106.57-133.044H725.352z"/>
		<path fill="#40281E" d="M811.019,169.125c-49.732-51.727-119.912-86.152-197.237-86.152l-239.887-0.228H257.91H96.401
			c0,0,40.652,127.488,124.489,127.488h37.021h115.984h229.502c90.661-0.56,134.539,66.706,138.785,104.478H464.505
			c0.011-0.079,0.037-0.184,0.037-0.266h-1.904H211.642c0,0,36.78,115.308,112.578,115.308h138.419v-0.012h427.716
			C902.506,330.119,879.928,241.8,811.019,169.125z"/>
	</g>
	<g>
		<path fill="#40281E" d="M352.927,1121.267c0.186,7.325,4.897,8.678,7.097,8.678c4.032,0,6.765-3.255,6.765-6.59
			c0-3.988-3.256-5.108-11.929-8.631c-4.249-1.634-14.491-5.564-14.491-16.632c-0.057-11.604,10.337-17.774,20.052-17.774
			c7.969,0,18.886,4.116,19.244,17.716h-13.436c-0.368-2.263-1.097-6.345-6.27-6.345c-3.152,0-6.081,2.215-6.081,5.54
			c0,3.441,2.275,4.361,12.577,8.807c10.03,4.443,13.831,9.179,13.831,16.713c0,9.413-5.322,18.545-20.12,18.545
			c-14.462,0-21-8.562-20.726-20.026H352.927z"/>
		<path fill="#40281E" d="M385.102,1118.153c0-10.93,7.905-23.21,23.561-23.21c15.645,0,23.558,12.28,23.558,23.279
			c0,11.021-7.913,23.281-23.558,23.281c-15.656,0-23.561-12.26-23.561-23.281V1118.153z M397.031,1118.223
			c0,6.928,5.264,12.083,11.632,12.083c6.366,0,11.646-5.155,11.646-12.152c0-7.01-5.28-12.118-11.646-12.118
			c-6.368,0-11.632,5.108-11.632,12.118V1118.223z"/>
		<path fill="#40281E" d="M439.964,1081.412h11.953v58.797h-11.953V1081.412z"/>
		<path fill="#40281E" d="M502.359,1140.209h-11.156c0-1.738,0-3.465,0-5.19c-1.687,2.729-4.967,6.647-12.854,6.647
			c-14.667-0.059-16.73-11.594-16.73-18.312v-27.013h11.951v23.887c0,5.609,1.549,10.229,8.145,10.217
			c6.972,0,8.703-4.816,8.703-10.101v-24.003h11.942V1140.209z"/>
		<path fill="#40281E" d="M556.292,1123.834c-2.437,9.865-11.17,17.75-22.82,17.75c-13.555,0-23.48-10.59-23.48-23.408
			c0-12.899,10.009-23.292,23.166-23.292c11.299,0,20.727,7.371,23.064,18.066h-12.091c-1.66-3.72-4.965-6.915-10.552-6.915
			c-3.43-0.117-6.18,1.119-8.392,3.393c-1.984,2.17-3.169,5.343-3.169,8.795c0,7.057,4.772,12.223,11.561,12.223
			c5.927,0,9.039-3.51,10.538-6.611H556.292z"/>
		<path fill="#40281E" d="M563.764,1081.412h11.948v9.693h-11.948V1081.412z M563.764,1096.342h11.948v43.867h-11.948V1096.342z"/>
		<path fill="#40281E" d="M583.41,1118.153c0-10.93,7.915-23.21,23.584-23.21c15.66,0,23.558,12.28,23.558,23.279
			c0,11.021-7.897,23.281-23.558,23.281c-15.67,0-23.584-12.26-23.584-23.281V1118.153z M595.348,1118.223
			c0,6.928,5.284,12.083,11.646,12.083c6.368,0,11.625-5.155,11.625-12.152c0-7.01-5.257-12.118-11.625-12.118
			c-6.362,0-11.646,5.108-11.646,12.118V1118.223z"/>
		<path fill="#40281E" d="M638.296,1096.342h11.161c0,1.646,0,3.37-0.012,5.18c1.668-2.729,4.969-6.674,12.795-6.638
			c14.591,0.035,16.655,11.605,16.655,18.313v27.013H666.94v-23.936c0-5.551-1.552-10.191-8.059-10.191
			c-6.929,0.033-8.631,4.815-8.631,10.088v24.039h-11.955V1096.342z"/>
		<path fill="#40281E" d="M698,1122.34c0.536,5.727,5.809,9.156,11.313,9.156c4.62,0,7.36-2.089,9.146-4.946h12.233
			c-2.087,4.888-5.19,8.655-8.899,11.163c-3.674,2.554-7.999,3.871-12.502,3.871c-13.005,0-23.199-10.521-23.199-23.197
			c0-12.352,9.669-23.503,23.013-23.503c6.625,0,12.374,2.554,16.491,6.823c5.458,5.75,7.243,12.748,6.276,20.633H698z
			 M720.161,1113.254c-0.351-3.021-3.813-8.327-10.975-8.281c-7.256,0-10.65,5.213-10.999,8.281H720.161z"/>
		<path fill="#40281E" d="M758.557,1108.449c-0.082-1.587-0.723-4.001-4.689-3.978c-3.112,0-4.385,1.994-4.35,3.614
			c0.024,2.346,3.255,3.745,7.021,4.864c7.268,1.984,14.999,4.142,15.069,13.6c0.047,9.39-7.826,15.116-17.309,15.116
			c-6.695,0-16.364-3.277-17.366-14.427h11.861c0.466,4.372,4.467,4.828,5.645,4.828c2.707,0,5.25-1.656,5.226-4.188
			c-0.022-3.323-3.255-4.024-11.5-7.068c-5.809-1.842-10.556-5.341-10.579-11.464c0-8.899,7.617-14.464,16.457-14.464
			c5.809,0,15.232,2.474,16.248,13.565H758.557z"/>
		<path fill="#40281E" d="M803.847,1081.412h13.563v46.829h18.265v11.968h-31.828V1081.412z"/>
		<path fill="#40281E" d="M836.795,1118.153c0-10.93,7.886-23.21,23.561-23.21c15.641,0,23.571,12.28,23.571,23.279
			c0,11.021-7.931,23.281-23.571,23.281c-15.675,0-23.561-12.26-23.561-23.281V1118.153z M848.704,1118.223
			c0,6.928,5.271,12.083,11.651,12.083c6.345,0,11.617-5.155,11.617-12.152c0-7.01-5.272-12.118-11.617-12.118
			c-6.381,0-11.651,5.108-11.651,12.118V1118.223z"/>
		<path fill="#40281E" d="M936.855,1134.959c0,6.847-0.852,11.174-3.288,14.918c-3.523,5.342-11.278,9.763-21.275,9.763
			c-14.532,0-20.679-8.678-21.855-15.198h13.785c1.003,2.1,2.705,3.348,4.386,4.117c1.843,0.864,3.731,0.991,4.514,0.991
			c5.527,0,11.697-3.639,11.697-11.802c0-1.051,0-2.066,0-3.093c-1.749,3.126-5.924,6.929-13.063,6.929
			c-12.247,0-22.253-9.261-22.253-23.058c0-14.697,10.531-23.583,22.253-23.583c5.505,0,10.638,2.285,13.145,6.32
			c0-1.702,0-3.301,0-4.922h11.955V1134.959z M901.434,1118.176c0,7.266,5.249,12.27,11.688,12.27c3.51,0,6.31-1.235,8.421-3.37
			c2.006-2.089,3.266-5.004,3.358-8.362c0-3.29-0.969-6.461-2.927-8.749c-1.913-2.39-4.853-3.882-8.83-3.882
			c-6.274,0-11.71,4.955-11.71,12.023V1118.176z"/>
		<path fill="#40281E" d="M963.263,1073.715l3.849,8.549l-19.455,8.877l-3.465-7.127L963.263,1073.715z M946.572,1096.342h11.943
			v43.867h-11.943V1096.342z"/>
		<path fill="#40281E" d="M987.229,1108.449c-0.08-1.587-0.71-4.001-4.665-3.978c-3.126,0-4.408,1.994-4.373,3.614
			c0.023,2.346,3.277,3.745,7.021,4.864c7.256,1.984,15.022,4.142,15.082,13.6c0.034,9.39-7.839,15.116-17.333,15.116
			c-6.683,0-16.399-3.277-17.391-14.427h11.875c0.489,4.372,4.467,4.828,5.691,4.828c2.646,0,5.214-1.656,5.214-4.188
			c-0.024-3.323-3.278-4.024-11.535-7.068c-5.786-1.842-10.544-5.341-10.591-11.464c0-8.899,7.662-14.464,16.504-14.464
			c5.796,0,15.231,2.474,16.235,13.565H987.229z"/>
		<path fill="#40281E" d="M1010.125,1105.428h-6.857v-9.086h6.857v-14.93h11.967v14.93h6.836v9.086h-6.836v34.781h-11.967V1105.428z
			"/>
		<path fill="#40281E" d="M1034.794,1081.412h11.943v9.693h-11.943V1081.412z M1034.794,1096.342h11.943v43.867h-11.943V1096.342z"
			/>
		<path fill="#40281E" d="M1100.691,1123.834c-2.483,9.865-11.185,17.75-22.836,17.75c-13.53,0-23.467-10.59-23.467-23.408
			c0-12.899,9.994-23.292,23.163-23.292c11.313,0,20.703,7.371,23.047,18.066h-12.107c-1.62-3.72-4.955-6.915-10.531-6.915
			c-3.43-0.117-6.205,1.119-8.374,3.393c-2.006,2.17-3.196,5.343-3.196,8.795c0,7.057,4.771,12.223,11.56,12.223
			c5.959,0,9.05-3.51,10.542-6.611H1100.691z"/>
		<path fill="#40281E" d="M1153.854,1140.209h-11.933c0-1.82,0-3.651,0-5.472c-2.554,4.653-8.188,6.929-13.774,6.929
			c-13.984,0-22.173-10.929-22.173-23.443c0-14.147,10.207-23.339,22.173-23.339c7.559,0,11.955,3.814,13.774,6.858
			c0-1.844,0-3.65,0-5.4h11.933V1140.209z M1117.918,1118.433c0.024,4.677,3.441,12.095,12.015,12.095
			c5.166,0,8.467-2.601,10.275-5.878c1.107-1.796,1.633-3.791,1.75-5.819c0.15-2.077-0.269-4.131-1.167-5.995
			c-1.575-3.523-5.05-6.8-10.94-6.8c-7.966,0-11.933,6.554-11.933,12.352V1118.433z"/>
		<path fill="#40281E" d="M1182.674,1108.449c-0.093-1.587-0.733-4.001-4.688-3.978c-3.091,0-4.396,1.994-4.361,3.614
			c0.047,2.346,3.253,3.745,7.032,4.864c7.255,1.984,14.999,4.142,15.081,13.6c0.024,9.39-7.851,15.116-17.331,15.116
			c-6.73,0-16.399-3.277-17.379-14.427h11.861c0.514,4.372,4.491,4.828,5.668,4.828c2.672,0,5.248-1.656,5.237-4.188
			c-0.022-3.323-3.277-4.024-11.5-7.068c-5.809-1.842-10.603-5.341-10.613-11.464c0-8.899,7.639-14.464,16.456-14.464
			c5.832,0,15.268,2.474,16.248,13.565H1182.674z"/>
	</g>
</g>
</svg>
