<svg height="400" viewBox="0 0 400 400" width="400" xmlns="http://www.w3.org/2000/svg"><g fill="none" fill-rule="evenodd"><path d="m0 0h400v400h-400z" fill="#fff"/><g fill-rule="nonzero" transform="translate(45 132)"><path d="m212.266667 137c-.4-.401524-1.066667-.736127-1.133334-1.137651-.6-4.617525-1.066666-9.301971-1.666666-14.120259 1.6.200762 3 .468445 4.4.535366 1.733333.133841 3.533333.267682 5.266666.133841 4.066667-.267683 7.333334-1.940699 9.533334-5.554414.466666-.803048.933333-1.539176 1.4-2.342223 1.933333-3.346033 2.266666-6.558225.733333-10.506543-8.533333-21.8161342-16.733333-43.7661094-25-65.6491639-.266667-.7361272-.466667-1.4722544-.8-2.3422229 6.533333 0 12.866667-.0669207 19.2.0669206.533333 0 1.266667.9368892 1.466667 1.6060958 4 11.7780354 7.933333 23.5560709 11.933333 35.3341063 1.533333 4.6175253 3.133333 9.2350505 4.8 14.2540997.333333-.8699685.533333-1.3384131.733333-1.8068577 5.2-15.7932748 10.4-31.6534703 15.533334-47.5136657.466666-1.5391751 1.133333-2.0076197 2.733333-1.940699 5.8.1338413 11.533333.0669206 17.6.0669206-.266667.8030479-.466667 1.4722545-.666667 2.0745404-9.666666 26.4336591-19.333333 52.9342388-29.066666 79.3678978-1.2 3.212192-2.666667 6.357462-4.4 9.368892-2.666667 4.751367-6.733334 7.829717-11.933334 9.368892-.666666.200762-1.333333.468444-1.933333.736127-6.266667 0-12.466667 0-18.733333 0z" fill="#000"/><path d="m0 34h24v74c-8.0230548 0-15.97694524 0-24 0 0-24.6444644 0-49.3555356 0-74z" fill="#000"/><path d="m13.5940794 0c.5497992.20658683 1.0995985.48203593 1.6493978.68862275 5.4979927 1.92814372 8.5906136 7.2994012 7.5597399 13.08383235-.9621487 5.3023952-5.7728923 9.2275449-11.3396099 9.2275449-5.77289232 0-10.3774612-4.0628743-11.33960992-9.9850299-.82469891-5.23353297 2.54282162-10.60479046 7.76591468-12.39520962.54979926-.20658683 1.09959853-.41317365 1.6493978-.61976048z" fill="#000"/><path d="m37 8.07312536c7.087113 0 13.8430526-.06697179 20.5989921.06697178.5298776 0 1.2584593.93760497 1.4571634 1.6073228 4.437725 12.99252596 8.87545 25.98505196 13.2469403 38.97757796 3.5104391 10.3136547 6.9546436 20.5603375 10.4650827 30.8739922.1987041.5357742.3974083 1.0715485.7948165 2.143097.3974082-1.0045767.662347-1.6073228.8610511-2.2100688 7.6169906-23.1722371 15.2339813-46.3444742 22.7847369-69.58368301.529878-1.54035101 1.12599-2.0091535 2.715623-1.94218172 5.696184.06697179 11.326134.06697179 17.022318.06697179.596113 0 1.25846.06697178 2.053276.06697178-2.053276 5.82654516-4.040317 11.45217496-6.027358 17.07780476-9.537797 26.8556852-19.075594 53.7113703-28.547156 80.5670551-.5961123 1.674295-1.3246941 2.277041-3.113031 2.210069-5.8286537-.133943-11.5910727-.066972-17.4197264 0-1.2584593 0-1.788337-.40183-2.1857452-1.607323-11.3923686-32.2134274-22.7847372-64.4268552-34.1771058-96.57331127-.1987041-.4018307-.3311735-.93760497-.5298776-1.74126637z" fill="#000"/><path d="m161.904748 35c18.313901.1990123 32.330315 11.2110245 36.09888 28.4587545 3.768564 17.1813926-3.371874 34.0974355-17.718864 42.1242635-12.826342 7.164442-31.801394 5.439669-43.173202-3.913908-6.479286-5.3733311-9.917275-12.4050979-11.305693-20.5646009-1.586764-9.2209019-.991728-18.1101165 3.239643-26.6676441 5.421443-11.0120123 14.479221-16.9160429 26.37995-18.8398282 2.04957-.3316871 4.297486-.3980245 6.479286-.5970368zm17.718864 37.8786686c-.462806-3.1178589-.595036-5.9040307-1.256188-8.5575276-1.91734-8.2258405-8.330511-13.5991717-16.065985-13.7318466-8.132165-.1326748-14.545336 4.7762945-16.925482 13.1348098-1.718994 6.1030429-1.652879 12.2724233.132231 18.3754662 2.31403 7.6951411 8.661086 12.537773 16.198215 12.537773 7.669359 0 13.950299-4.7099571 16.198215-12.4714356.991727-3.1178589 1.256188-6.3683926 1.718994-9.2872392z" fill="#000"/><g fill="#942d83"><path d="m257.896 110.122304c6.664-3.587671 12.988-6.976026 19.312-10.3643823 2.108-1.129452 3.536-.9965752 5.44.3986303 1.292.930137 2.856 1.59452 4.352 2.39178-.136 4.584247 0 9.434246-2.176 13.885616-1.292 2.723972-2.992 5.315068-4.964 7.64041-2.516 2.923287-5.576 5.381506-8.296 8.105479-.816.79726-1.496 1.129452-2.584.465068-.748-.465068-1.7-.730822-2.516-1.19589-3.468-2.126027-7.004-3.056164-10.948-1.129452-.612.332192-1.632-.132877-2.448-.199315 0-.199315-.068-.39863-.068-.597945 2.652-1.528082 5.304-3.056164 8.024-4.517808.408-.199315 1.224.066438 1.768.332192 2.108 1.129452 4.08 2.325342 6.256 3.587671.34-.39863.612-.730822.816-1.129452 1.972-3.853425 3.876-7.773287 5.78-11.69315 1.36-2.790411 1.496-5.713698 1.292-8.703424-.068-1.19589-.408-1.793835-1.836-1.328767-2.38.79726-4.828 1.461644-7.14 2.325342-.68.265754-1.088 1.063014-1.564 1.727397-.272.332192-.204.863699-.34 1.262329-.34.79726-.748 1.59452-1.156 2.391781-.476-.597945-.952-1.262329-1.564-2.059589-1.02.531507-2.244 1.19589-3.74 1.99315-.612-1.262328-1.224-2.524657-1.7-3.587671z"/><path d="m300.630573 105c1.681529 1.533333 8.687898 2.2 10.369427.8v13.733333c-3.22293.133334-6.515924.266667-10.159236.466667 0-3.2 0-6.333333 0-9.733333.210191-.133334.770701-.4 1.261147-.666667-.700637-1.466667-1.401274-2.866667-2.101911-4.266667.280255-.066666.420382-.2.630573-.333333z"/><path d="m287.463739 101c-3.59837 0-6.397103-2.8351648-6.463739-6.5274725 0-3.2307693 2.199004-5.4725275 5.397555-5.4725275 3.531734 0 6.530376 2.967033 6.597013 6.4615385.133273 3.2307692-2.199004 5.5384615-5.530829 5.5384615z"/><path d="m282 124.811305c.789474-1.26965 1.447368-2.405652 2.171053-3.474831.263158-.400942.592105-.801885.986842-1.336474 3.618421 1.937887 7.631579 3.207537 10.263158 6.682368 1.052631 1.336474 2.171052 1.670592 3.618421.735061.394737-.267295.789473-.467766 1.25-.467766.526315-.066824 1.118421.066824 1.710526.066824-.197368.467765-.328947 1.069178-.657895 1.403297-3.355263 3.408008-3.289473 3.140713-7.5.935531-3.355263-1.737415-7.105263-2.739771-10.657894-4.076244-.460527-.133648-.657895-.267295-1.184211-.467766z"/><path d="m297.936865 108.103737c.557956.551755 1.464634.965571 1.743611 1.724235.836934 2.000113 0 3.51744-2.162078 3.103623-3.068756-.482785-6.067768-1.586296-9.066779-2.551868-1.255401-.413816-1.604123-1.379388-1.39489-2.758776.209234-1.379389.209234-2.827746.278978-4.620951 1.743612 1.517327 3.27799 2.896715 4.812368 4.276104 1.952845 1.793204 3.556967 2.069082 5.78879.827633z"/><path d="m310 103.389556c-.19708 2.077631-.985401 2.986594-2.956204 2.467186-.919708-.259703-1.90511-.324629-2.824818-.259703-1.839416.129851-2.627737-.908964-3.218978-2.597039 3.021898.129852 5.978102.259704 9 .389556z"/></g></g></g></svg>