<svg id="svg" version="1.1" xmlns="http://www.w3.org/2000/svg" xmlns:xlink="http://www.w3.org/1999/xlink" width="400" height="134.4" viewBox="0, 0, 400,134.4"><g id="svgg"><path id="path0" d="M207.231 46.583 C 205.953 47.204,205.357 47.829,204.709 49.225 C 204.250 50.213,204.175 52.161,204.583 52.500 C 204.721 52.614,204.833 52.798,204.833 52.909 C 204.833 54.999,209.093 56.573,211.441 55.351 C 217.074 52.419,212.938 43.806,207.231 46.583 M69.417 49.443 C 64.750 49.936,59.580 53.123,58.528 56.156 C 58.419 56.471,58.224 56.846,58.096 56.989 C 57.968 57.133,57.784 57.680,57.688 58.204 C 57.591 58.729,57.379 59.364,57.215 59.614 C 56.714 60.377,56.773 66.450,57.292 67.533 C 57.498 67.963,57.667 68.413,57.667 68.533 C 57.669 69.223,58.905 71.105,60.275 72.503 C 62.111 74.377,62.655 74.738,65.221 75.783 L 66.750 76.405 70.000 76.406 L 73.250 76.408 74.833 75.810 C 76.835 75.054,77.167 75.122,77.166 76.286 C 77.165 77.199,76.898 78.301,76.589 78.667 C 76.473 78.804,76.326 79.135,76.263 79.402 C 76.199 79.668,75.926 80.154,75.657 80.481 C 75.387 80.808,75.167 81.157,75.167 81.255 C 75.167 81.824,71.972 84.162,71.185 84.169 C 71.037 84.171,70.617 84.280,70.250 84.412 C 69.213 84.785,67.924 84.713,66.089 84.179 C 64.240 83.641,63.846 83.698,63.263 84.587 C 63.105 84.827,62.579 85.450,62.092 85.970 C 60.172 88.026,59.833 88.460,59.833 88.865 C 59.833 89.267,59.971 89.376,61.042 89.824 C 61.248 89.910,61.959 90.212,62.623 90.495 C 65.511 91.728,69.464 92.100,72.626 91.437 C 74.510 91.042,75.014 90.865,76.417 90.109 C 76.692 89.960,77.206 89.696,77.559 89.522 C 80.287 88.174,84.235 82.753,84.752 79.643 C 84.818 79.244,84.982 78.704,85.115 78.444 C 85.248 78.185,85.428 77.510,85.516 76.944 C 85.604 76.379,85.784 75.640,85.916 75.301 C 86.717 73.248,86.658 63.464,85.829 60.886 C 84.608 57.088,84.140 56.072,83.019 54.785 C 82.073 53.700,80.628 52.345,80.125 52.073 C 79.873 51.936,79.667 51.764,79.667 51.689 C 79.667 51.614,79.348 51.451,78.958 51.327 C 78.569 51.202,78.098 51.005,77.911 50.888 C 77.609 50.699,75.222 50.012,73.667 49.666 C 72.987 49.515,70.146 49.366,69.417 49.443 M101.417 49.447 C 99.152 49.697,96.819 50.440,95.667 51.280 C 95.254 51.581,94.700 51.948,94.436 52.096 C 93.274 52.747,90.500 56.058,90.500 56.793 C 90.500 56.918,90.316 57.410,90.091 57.885 C 88.960 60.278,88.858 66.076,89.906 68.384 C 90.122 68.860,90.420 69.512,90.568 69.833 C 93.041 75.212,101.512 78.179,107.333 75.705 C 108.993 75.000,109.667 75.186,109.667 76.351 C 109.667 76.893,108.938 78.871,108.445 79.667 C 108.247 79.987,107.934 80.521,107.750 80.853 C 106.940 82.316,104.809 83.849,102.909 84.335 C 100.911 84.846,100.178 84.777,96.649 83.738 C 96.468 83.685,95.957 84.156,95.066 85.199 C 94.342 86.046,93.390 87.111,92.950 87.566 C 91.629 88.932,91.835 89.234,94.955 90.512 C 99.561 92.397,105.626 92.095,109.324 89.794 C 109.732 89.541,110.159 89.333,110.274 89.333 C 110.890 89.333,114.315 85.648,115.077 84.167 C 115.242 83.846,115.526 83.283,115.707 82.917 C 115.889 82.550,116.133 82.137,116.250 82.000 C 116.366 81.862,116.583 81.323,116.733 80.800 C 116.882 80.278,117.078 79.805,117.169 79.749 C 117.259 79.693,117.333 79.398,117.333 79.093 C 117.333 78.789,117.514 78.059,117.736 77.471 C 117.964 76.864,118.190 75.795,118.260 74.993 C 118.327 74.218,118.521 73.096,118.691 72.501 C 119.160 70.857,119.145 64.903,118.668 63.547 C 118.485 63.028,118.288 62.111,118.228 61.510 C 118.169 60.909,117.987 60.151,117.824 59.826 C 117.661 59.500,117.475 58.938,117.409 58.576 C 117.344 58.213,117.189 57.799,117.064 57.656 C 116.939 57.512,116.742 57.135,116.627 56.817 C 116.339 56.027,114.844 53.923,114.333 53.591 C 114.104 53.442,113.429 52.912,112.833 52.413 C 112.237 51.914,111.487 51.421,111.167 51.318 C 110.846 51.214,110.433 51.036,110.250 50.922 C 108.878 50.067,103.675 49.198,101.417 49.447 M289.033 49.867 C 288.889 50.011,288.833 51.205,288.833 54.187 L 288.833 58.308 288.402 58.821 L 287.970 59.333 281.580 59.333 C 274.774 59.333,274.663 59.346,274.669 60.137 C 274.787 76.525,274.613 79.203,273.293 81.283 C 270.892 85.069,265.192 85.522,262.925 82.107 C 261.683 80.236,261.601 79.478,261.503 68.972 C 261.456 63.869,261.355 59.633,261.280 59.558 C 260.968 59.246,253.830 59.362,253.659 59.682 C 253.444 60.083,253.455 78.706,253.671 81.151 C 254.237 87.544,259.403 91.672,266.358 91.289 C 268.585 91.166,271.180 89.950,272.448 88.436 C 273.765 86.862,274.667 87.154,274.667 89.153 C 274.667 90.916,274.526 90.854,278.506 90.862 C 280.382 90.866,282.036 90.861,282.182 90.851 C 282.812 90.809,282.836 90.338,282.831 77.988 C 282.826 64.906,282.810 65.138,283.763 64.898 C 284.801 64.638,287.994 64.920,288.381 65.307 L 288.750 65.676 288.838 74.796 C 288.923 83.547,288.965 84.270,289.418 84.833 C 289.529 84.971,289.701 85.326,289.800 85.623 C 291.321 90.159,298.784 92.688,303.685 90.327 C 307.776 88.357,307.894 88.148,306.423 85.487 C 305.824 84.403,305.333 83.439,305.333 83.345 C 305.333 82.689,304.478 82.620,303.857 83.227 C 302.532 84.521,299.609 84.557,298.129 83.297 C 297.089 82.412,296.988 81.653,296.883 73.978 C 296.781 66.450,296.804 66.092,297.442 65.334 L 297.870 64.825 301.126 64.841 C 304.996 64.860,304.662 65.113,304.662 62.167 C 304.662 59.175,304.982 59.423,301.058 59.382 C 297.773 59.347,297.771 59.346,297.344 58.919 L 296.917 58.492 296.917 54.241 C 296.917 50.643,296.878 49.965,296.667 49.831 C 296.283 49.587,289.280 49.620,289.033 49.867 M74.106 57.009 C 79.190 59.457,79.324 66.523,74.333 68.970 C 68.124 72.015,62.391 65.534,65.782 59.305 C 67.102 56.879,71.384 55.698,74.106 57.009 M106.382 56.967 C 110.580 58.827,111.589 65.220,108.132 68.053 C 104.268 71.219,98.773 69.749,97.343 65.167 C 95.648 59.740,101.225 54.682,106.382 56.967 M164.250 59.107 C 162.568 59.461,159.768 60.924,159.250 61.718 C 158.352 63.095,157.170 62.517,157.164 60.697 C 157.160 59.380,157.283 59.423,153.349 59.366 C 150.007 59.317,149.837 59.330,149.509 59.657 C 149.072 60.094,148.956 89.982,149.389 90.574 C 149.648 90.928,156.512 91.055,156.854 90.712 C 157.258 90.309,157.329 88.808,157.315 81.000 C 157.304 75.324,157.361 72.416,157.496 71.678 C 158.030 68.765,160.205 66.507,163.035 65.929 C 165.909 65.342,168.296 66.509,168.924 68.808 C 169.066 69.326,169.272 69.900,169.382 70.083 C 169.531 70.329,169.605 73.041,169.667 80.450 C 169.731 88.196,169.798 90.531,169.960 90.693 C 170.239 90.972,177.433 90.930,177.773 90.647 C 177.959 90.493,178.001 88.886,178.005 81.771 C 178.011 72.116,178.077 71.167,178.850 69.631 C 180.819 65.716,186.145 64.430,188.944 67.193 C 190.792 69.019,190.866 69.535,190.894 80.917 C 190.913 88.734,190.953 90.139,191.165 90.458 C 191.411 90.829,191.458 90.833,195.187 90.833 L 198.960 90.833 199.154 90.365 C 199.296 90.021,199.333 87.139,199.292 79.490 L 199.236 69.083 198.645 67.167 C 197.439 63.259,195.578 61.234,191.750 59.661 C 188.927 58.501,183.065 59.008,180.685 60.618 C 180.374 60.828,180.010 61.000,179.876 61.000 C 179.517 61.000,177.204 62.995,176.830 63.628 C 176.205 64.685,175.186 64.668,174.453 63.589 C 173.830 62.672,172.302 61.000,172.088 61.000 C 171.982 61.000,171.751 60.866,171.573 60.703 C 169.994 59.252,166.831 58.562,164.250 59.107 M321.000 59.158 C 318.440 59.580,315.823 60.544,314.820 61.433 C 314.675 61.562,314.476 61.667,314.376 61.667 C 313.988 61.667,310.500 65.036,310.500 65.411 C 310.500 65.506,310.233 65.959,309.906 66.417 C 309.081 67.576,308.402 69.069,308.165 70.250 C 308.054 70.800,307.853 71.512,307.718 71.833 C 307.268 72.903,307.385 77.274,307.917 79.272 C 308.704 82.222,310.550 85.327,312.524 87.018 C 312.994 87.421,313.536 87.900,313.729 88.083 C 313.921 88.267,314.343 88.546,314.665 88.705 C 314.987 88.863,315.362 89.067,315.500 89.157 C 318.281 90.985,322.695 91.652,327.583 90.985 C 328.994 90.792,331.426 89.918,332.667 89.157 C 332.804 89.073,333.141 88.880,333.414 88.727 C 336.040 87.268,339.176 83.195,339.935 80.260 C 340.079 79.704,340.284 79.145,340.390 79.016 C 340.710 78.629,340.623 71.721,340.290 71.076 C 340.146 70.799,339.974 70.274,339.906 69.911 C 339.581 68.155,337.085 64.388,335.167 62.759 C 333.801 61.600,331.194 60.173,329.968 59.915 C 329.665 59.851,329.001 59.661,328.494 59.493 C 327.780 59.256,323.323 58.752,322.833 58.852 C 322.787 58.861,321.962 58.999,321.000 59.158 M354.250 58.936 C 353.975 58.970,353.088 59.080,352.278 59.182 C 346.488 59.908,342.476 63.971,342.708 68.875 C 342.755 69.861,342.865 70.761,342.952 70.875 C 343.039 70.990,343.214 71.346,343.341 71.667 C 344.155 73.727,348.608 76.912,351.358 77.401 C 351.693 77.460,352.051 77.611,352.155 77.736 C 352.259 77.861,352.749 78.014,353.244 78.075 C 354.225 78.198,356.820 79.416,357.898 80.260 C 360.012 81.914,359.216 84.489,356.325 85.356 C 354.346 85.948,348.001 84.278,345.716 82.563 C 344.486 81.639,343.914 81.819,342.998 83.420 C 342.711 83.921,342.144 84.739,341.738 85.238 C 340.773 86.423,340.791 86.662,341.898 87.397 C 347.881 91.369,356.817 92.530,361.333 89.923 C 361.563 89.791,362.020 89.533,362.351 89.350 C 364.403 88.214,366.033 85.768,366.858 82.583 C 367.455 80.282,365.910 76.160,364.036 75.050 C 362.192 73.959,358.755 72.436,357.667 72.227 C 357.033 72.106,354.995 71.348,353.898 70.826 C 353.522 70.647,353.103 70.500,352.967 70.500 C 352.572 70.500,350.883 69.296,350.596 68.810 C 348.769 65.717,354.636 63.637,359.250 65.742 C 359.708 65.951,360.280 66.169,360.519 66.225 C 360.759 66.282,361.339 66.592,361.807 66.914 C 362.920 67.680,363.198 67.601,363.899 66.325 C 364.072 66.009,364.603 65.070,365.078 64.239 C 366.188 62.296,366.161 62.225,363.923 61.156 C 360.370 59.459,356.755 58.629,354.250 58.936 M234.250 59.275 C 232.896 59.563,230.090 61.003,229.116 61.910 C 227.950 62.995,227.167 62.572,227.167 60.857 C 227.167 59.270,227.335 59.333,223.129 59.333 L 219.492 59.333 219.329 59.761 C 219.122 60.306,219.108 89.990,219.314 90.533 L 219.462 90.922 223.170 90.883 C 225.210 90.861,226.925 90.798,226.981 90.741 C 227.037 90.685,227.129 86.352,227.184 81.111 C 227.294 70.685,227.307 70.543,228.310 68.790 C 229.666 66.421,232.715 64.685,234.712 65.145 C 235.159 65.249,235.729 65.333,235.979 65.333 C 236.838 65.333,239.333 67.399,239.333 68.110 C 239.333 68.169,239.540 68.638,239.792 69.151 L 240.250 70.083 240.301 80.164 C 240.347 89.117,240.382 90.278,240.619 90.539 C 240.980 90.939,247.724 90.989,248.260 90.596 C 248.719 90.260,248.752 70.718,248.297 69.067 C 248.147 68.526,247.950 67.633,247.859 67.083 C 247.709 66.185,247.447 65.608,246.307 63.667 C 244.273 60.204,238.969 58.272,234.250 59.275 M205.458 59.444 C 205.274 59.495,205.166 59.689,205.164 59.971 C 205.104 70.438,205.210 90.610,205.327 90.727 C 205.530 90.930,212.971 90.929,213.173 90.727 C 213.344 90.556,213.413 59.691,213.243 59.520 C 213.121 59.398,205.883 59.327,205.458 59.444 M325.333 65.820 C 328.680 66.372,331.460 69.053,332.174 72.417 C 333.926 80.672,327.352 86.958,320.417 83.658 C 319.055 83.010,316.667 80.610,316.667 79.890 C 316.667 79.847,316.474 79.405,316.238 78.908 C 315.456 77.254,315.512 72.902,316.339 71.032 C 317.977 67.328,321.634 65.209,325.333 65.820 " stroke="none" fill="#3e3f40" fill-rule="evenodd"></path><path id="path1" d="M0.000 67.167 L 0.000 134.333 200.000 134.333 L 400.000 134.333 400.000 67.167 L 400.000 0.000 200.000 0.000 L 0.000 0.000 0.000 67.167 M125.770 8.608 C 127.500 9.512,128.958 10.458,130.583 11.729 C 131.225 12.231,132.223 13.004,132.802 13.446 C 133.380 13.888,134.093 14.441,134.385 14.674 C 134.677 14.907,135.142 15.239,135.417 15.412 C 136.522 16.108,141.723 21.329,143.471 23.498 C 144.247 24.462,145.246 25.639,145.691 26.115 C 146.136 26.591,146.500 27.074,146.500 27.189 C 146.500 27.305,146.675 27.665,146.888 27.991 C 147.101 28.317,147.489 28.921,147.750 29.333 C 148.010 29.746,148.521 30.522,148.884 31.058 C 150.963 34.127,150.922 34.250,146.219 38.952 C 140.970 44.201,141.794 44.228,136.148 38.621 C 131.897 34.400,131.002 33.734,130.291 34.264 C 129.447 34.892,129.535 35.566,130.651 37.026 C 132.605 39.582,133.829 41.339,134.417 42.427 C 134.783 43.107,135.505 44.395,136.020 45.290 C 136.535 46.185,137.159 47.442,137.406 48.083 C 137.652 48.725,138.032 49.700,138.249 50.250 C 138.645 51.255,139.330 53.272,140.116 55.750 C 141.985 61.641,142.646 74.478,141.338 79.500 C 141.255 79.821,141.109 80.653,141.015 81.349 C 140.648 84.059,138.018 92.317,137.253 93.164 C 137.114 93.317,137.000 93.490,137.000 93.547 C 137.000 93.641,135.271 97.203,134.687 98.314 C 134.561 98.554,134.036 99.379,133.520 100.147 C 133.005 100.915,132.439 101.778,132.263 102.063 C 132.087 102.349,131.675 102.919,131.347 103.329 C 131.019 103.739,130.600 104.279,130.417 104.529 C 129.413 105.899,126.585 109.020,124.630 110.917 C 122.671 112.817,121.704 113.605,118.750 115.708 C 118.383 115.968,117.676 116.479,117.178 116.841 C 116.680 117.203,116.184 117.500,116.076 117.500 C 115.968 117.500,115.596 117.725,115.250 118.000 C 114.904 118.275,114.550 118.500,114.463 118.500 C 114.326 118.500,113.197 119.030,108.417 121.340 C 107.867 121.606,106.892 121.983,106.250 122.177 C 105.608 122.372,104.108 122.858,102.917 123.258 C 101.725 123.657,100.263 124.054,99.667 124.140 C 99.071 124.225,97.201 124.532,95.511 124.821 C 92.574 125.323,92.215 125.348,87.344 125.382 C 82.202 125.417,81.644 125.377,77.250 124.660 C 74.865 124.270,71.767 123.444,70.417 122.836 C 70.233 122.754,69.821 122.635,69.500 122.573 C 69.179 122.510,68.651 122.325,68.326 122.161 C 68.001 121.996,67.326 121.753,66.826 121.620 C 66.326 121.487,65.467 121.148,64.917 120.867 C 64.367 120.586,63.242 120.013,62.417 119.593 C 61.592 119.174,60.354 118.459,59.667 118.004 C 58.979 117.549,58.229 117.094,58.000 116.993 C 57.771 116.893,57.471 116.712,57.334 116.593 C 57.196 116.473,56.821 116.290,56.500 116.185 C 55.964 116.009,55.105 115.325,51.186 111.953 C 49.145 110.196,47.013 108.017,44.140 104.750 C 41.187 101.391,36.026 91.643,35.096 87.665 C 34.978 87.161,34.732 86.448,34.549 86.082 C 33.969 84.922,33.423 82.180,32.741 77.000 C 32.276 73.465,32.501 63.670,33.079 62.286 C 33.219 61.951,33.335 61.244,33.336 60.714 C 33.337 60.184,33.445 59.337,33.576 58.833 C 33.707 58.329,33.901 57.579,34.009 57.167 C 34.332 55.926,36.202 50.096,36.334 49.917 C 36.401 49.825,36.550 49.450,36.665 49.083 C 36.911 48.296,37.671 46.833,37.833 46.833 C 37.896 46.833,38.042 46.515,38.157 46.125 C 38.396 45.318,39.093 43.992,39.874 42.858 C 40.168 42.432,40.560 41.807,40.746 41.468 C 40.931 41.130,41.260 40.530,41.476 40.135 C 41.692 39.740,42.076 39.192,42.328 38.917 C 42.580 38.642,43.366 37.647,44.075 36.706 C 44.784 35.765,45.863 34.484,46.473 33.860 C 47.084 33.235,47.921 32.285,48.333 31.749 C 49.057 30.807,51.667 28.584,53.070 27.713 C 53.444 27.481,54.275 26.862,54.917 26.337 C 55.558 25.812,56.318 25.262,56.604 25.115 C 56.890 24.967,57.969 24.281,59.001 23.590 C 60.033 22.899,60.938 22.333,61.012 22.333 C 61.087 22.333,62.033 21.912,63.115 21.397 C 66.009 20.021,66.425 19.833,66.573 19.833 C 66.647 19.833,67.280 19.576,67.979 19.260 C 70.292 18.218,73.737 17.341,79.083 16.435 C 84.031 15.596,94.345 15.576,95.981 16.402 C 96.221 16.522,96.829 16.672,97.333 16.734 C 98.276 16.850,102.384 17.874,104.750 18.582 C 105.483 18.802,106.271 19.034,106.500 19.097 C 106.729 19.161,107.178 19.353,107.498 19.523 C 107.817 19.694,108.164 19.833,108.268 19.833 C 108.578 19.833,111.103 21.105,114.504 22.974 C 114.894 23.189,115.597 23.635,116.065 23.965 C 116.902 24.556,118.637 25.756,119.127 26.083 C 122.113 28.077,122.345 28.177,123.217 27.846 C 124.244 27.455,123.888 26.426,122.148 24.750 C 121.481 24.108,120.669 23.294,120.343 22.940 C 120.017 22.585,118.700 21.213,117.417 19.890 C 114.270 16.646,114.156 16.204,116.030 14.500 C 116.584 13.996,117.648 12.953,118.394 12.183 C 123.184 7.238,123.167 7.246,125.770 8.608 M83.167 27.496 C 82.021 27.563,80.821 27.701,80.500 27.803 C 80.179 27.905,79.279 28.060,78.500 28.146 C 77.721 28.232,76.746 28.413,76.333 28.548 C 75.921 28.683,75.283 28.870,74.917 28.964 C 73.798 29.252,70.516 30.658,68.667 31.641 C 67.704 32.152,66.204 32.933,65.333 33.375 C 64.462 33.817,63.489 34.368,63.171 34.598 C 61.686 35.673,60.675 36.493,59.752 37.370 C 59.201 37.895,58.544 38.410,58.292 38.516 C 58.040 38.621,57.833 38.773,57.833 38.854 C 57.833 38.935,57.042 39.844,56.076 40.875 C 55.109 41.906,54.003 43.188,53.617 43.724 C 53.232 44.260,52.598 45.099,52.209 45.588 C 51.819 46.077,51.423 46.651,51.328 46.863 C 51.233 47.076,50.900 47.663,50.588 48.167 C 50.277 48.671,49.890 49.346,49.728 49.667 C 49.566 49.987,49.227 50.590,48.975 51.005 C 48.723 51.420,48.281 52.433,47.992 53.255 C 47.704 54.077,47.256 55.237,46.996 55.833 C 44.935 60.568,44.052 72.289,45.372 77.417 C 45.607 78.333,46.003 79.946,46.251 81.000 C 46.688 82.858,47.278 84.645,47.736 85.500 C 47.859 85.729,48.246 86.629,48.595 87.500 C 48.944 88.371,49.438 89.421,49.693 89.833 C 49.948 90.246,50.341 90.927,50.567 91.348 C 50.793 91.769,51.228 92.444,51.532 92.848 C 51.837 93.252,52.677 94.460,53.399 95.532 C 54.685 97.439,58.913 101.823,60.667 103.066 C 60.987 103.294,61.773 103.839,62.411 104.277 C 63.050 104.715,63.800 105.270,64.078 105.510 C 64.356 105.750,65.108 106.212,65.750 106.537 C 66.392 106.863,67.142 107.249,67.417 107.395 C 69.516 108.514,72.744 109.869,74.583 110.403 C 78.881 111.651,78.921 111.659,83.695 112.163 C 85.729 112.378,88.341 112.381,90.075 112.171 C 90.813 112.081,92.240 111.926,93.245 111.826 C 94.956 111.656,97.780 111.071,98.917 110.651 C 99.192 110.550,99.987 110.294,100.684 110.083 C 101.381 109.873,102.093 109.620,102.267 109.521 C 102.441 109.422,103.052 109.151,103.625 108.919 C 105.947 107.976,109.551 106.023,111.254 104.783 C 113.035 103.488,113.994 102.833,114.113 102.832 C 114.465 102.827,119.095 97.880,120.118 96.417 C 120.310 96.142,120.768 95.601,121.136 95.216 C 122.432 93.859,123.711 91.683,126.240 86.535 C 126.658 85.683,127.000 84.887,127.000 84.766 C 127.000 84.644,127.143 84.363,127.318 84.141 C 127.493 83.918,127.729 83.252,127.842 82.660 C 127.956 82.068,128.142 81.396,128.257 81.166 C 128.372 80.937,128.518 80.300,128.582 79.750 C 128.646 79.200,128.838 78.188,129.008 77.500 C 129.724 74.603,129.841 64.761,129.179 63.094 C 129.072 62.825,128.843 61.812,128.669 60.844 C 128.264 58.588,127.771 56.611,127.446 55.942 C 126.570 54.140,125.667 52.129,125.667 51.980 C 125.667 51.677,124.176 48.793,123.704 48.183 C 123.205 47.539,122.843 46.965,121.904 45.333 C 121.225 44.153,120.973 43.846,118.349 41.007 C 116.290 38.779,114.666 37.167,114.483 37.167 C 114.412 37.167,114.016 36.885,113.604 36.542 C 111.942 35.157,109.146 33.256,107.684 32.517 C 106.987 32.165,106.154 31.732,105.833 31.554 C 105.513 31.376,104.725 31.014,104.083 30.751 C 103.442 30.487,102.839 30.214,102.743 30.144 C 102.048 29.635,96.949 28.266,94.438 27.915 C 93.442 27.776,92.569 27.626,92.499 27.583 C 92.266 27.439,85.281 27.374,83.167 27.496 M211.583 45.824 C 216.371 48.170,216.021 54.521,210.994 56.503 C 208.801 57.367,205.664 56.149,204.342 53.920 C 202.851 51.408,204.055 46.781,206.384 46.072 C 206.585 46.011,206.862 45.865,207.000 45.747 C 207.718 45.136,210.266 45.178,211.583 45.824 M74.833 49.006 C 77.289 49.675,77.940 49.921,79.744 50.859 C 84.134 53.143,86.869 58.594,87.341 66.000 C 87.495 68.418,87.332 72.100,87.006 73.560 C 86.921 73.940,86.768 74.924,86.666 75.748 C 86.564 76.571,86.343 77.556,86.175 77.937 C 86.007 78.317,85.815 78.955,85.748 79.356 C 85.682 79.756,85.514 80.304,85.376 80.574 C 85.238 80.843,85.064 81.277,84.989 81.537 C 84.290 83.976,80.792 88.610,78.829 89.700 C 78.449 89.911,77.920 90.205,77.654 90.353 C 77.388 90.501,77.076 90.699,76.960 90.792 C 74.058 93.125,65.998 93.193,61.333 90.923 C 61.104 90.812,60.553 90.544,60.108 90.328 C 59.072 89.825,58.807 89.432,58.986 88.667 C 59.118 88.103,59.463 87.650,61.259 85.676 C 61.723 85.167,62.463 84.319,62.905 83.792 C 63.852 82.660,64.285 82.581,65.905 83.248 C 67.246 83.799,69.321 83.965,70.292 83.600 C 70.681 83.453,71.310 83.218,71.690 83.076 C 73.000 82.588,75.832 79.474,75.834 78.519 C 75.834 78.371,75.984 78.004,76.167 77.704 C 76.888 76.523,76.253 75.702,75.244 76.510 C 73.779 77.683,66.923 77.678,64.917 76.502 C 64.642 76.341,64.203 76.159,63.942 76.097 C 63.680 76.036,63.268 75.850,63.025 75.684 C 62.782 75.518,62.141 75.091,61.600 74.733 C 60.720 74.152,60.302 73.765,58.627 71.979 C 58.377 71.712,58.125 71.307,58.068 71.080 C 58.011 70.853,57.906 70.667,57.835 70.667 C 57.765 70.667,57.616 70.423,57.505 70.125 C 57.394 69.827,57.150 69.255,56.963 68.854 C 56.775 68.452,56.553 67.852,56.468 67.520 C 56.384 67.188,56.237 66.617,56.142 66.250 C 55.490 63.735,56.376 58.354,57.885 55.667 C 58.915 53.830,62.065 50.691,63.157 50.414 C 63.380 50.358,63.755 50.177,63.990 50.013 C 64.364 49.751,66.481 48.989,67.417 48.780 C 68.553 48.526,73.639 48.681,74.833 49.006 M108.333 49.287 C 109.960 49.795,112.531 50.994,113.032 51.478 C 113.188 51.627,113.664 52.012,114.091 52.333 C 114.922 52.958,117.000 55.395,117.000 55.744 C 117.000 55.860,117.157 56.155,117.350 56.400 C 117.542 56.645,117.802 57.198,117.928 57.631 C 118.053 58.063,118.344 58.966,118.575 59.638 C 119.786 63.166,119.985 72.518,118.923 76.000 C 118.797 76.412,118.645 77.050,118.585 77.417 C 118.452 78.230,117.627 80.731,117.266 81.417 C 117.121 81.692,117.002 82.037,117.001 82.185 C 117.000 82.333,116.813 82.730,116.583 83.067 C 116.354 83.405,116.167 83.742,116.167 83.815 C 116.167 83.888,116.023 84.078,115.848 84.236 C 115.673 84.395,115.481 84.719,115.422 84.956 C 115.155 86.017,112.846 88.474,110.748 89.929 C 108.163 91.721,103.695 93.002,100.917 92.747 C 99.491 92.617,95.976 91.874,95.758 91.657 C 95.671 91.571,95.461 91.500,95.291 91.500 C 94.736 91.500,92.189 90.294,91.596 89.751 C 90.791 89.014,91.044 88.276,92.659 86.657 C 92.984 86.330,93.470 85.768,93.738 85.407 C 95.614 82.884,96.533 82.483,98.472 83.341 C 101.892 84.854,105.756 83.033,107.804 78.944 C 108.993 76.569,108.960 75.840,107.693 76.487 C 107.334 76.670,106.600 76.891,106.062 76.979 C 105.524 77.067,104.872 77.220,104.614 77.319 C 103.494 77.751,98.456 77.244,97.417 76.595 C 97.233 76.481,96.729 76.268,96.295 76.122 C 93.111 75.048,89.233 70.488,88.679 67.167 C 88.176 64.152,88.123 63.112,88.397 61.690 C 88.546 60.924,88.667 60.080,88.667 59.816 C 88.667 59.079,89.603 56.556,90.305 55.400 C 92.133 52.391,95.854 49.685,99.417 48.776 C 100.679 48.454,106.789 48.804,108.333 49.287 M297.020 49.015 C 297.768 49.313,297.833 49.722,297.833 54.095 L 297.833 58.175 298.261 58.337 C 298.496 58.427,299.947 58.500,301.486 58.500 C 305.718 58.500,305.667 58.456,305.667 62.102 C 305.667 65.877,305.727 65.825,301.309 65.830 C 298.592 65.833,298.020 65.875,297.942 66.077 C 297.891 66.211,297.834 69.633,297.816 73.682 L 297.784 81.042 298.264 81.929 C 299.263 83.775,301.683 83.937,303.689 82.292 C 304.812 81.371,305.505 81.574,305.969 82.959 C 306.068 83.257,306.407 83.895,306.721 84.376 C 307.925 86.220,308.383 87.269,308.263 87.908 C 308.149 88.515,307.268 89.405,306.438 89.752 C 306.118 89.886,305.813 90.065,305.760 90.151 C 305.201 91.056,301.696 92.058,299.083 92.061 C 296.612 92.064,292.879 90.911,292.545 90.042 C 292.500 89.927,292.371 89.833,292.258 89.833 C 292.144 89.833,291.624 89.365,291.103 88.792 C 289.733 87.286,289.679 87.216,289.317 86.448 C 289.137 86.064,288.880 85.563,288.747 85.333 C 288.614 85.104,288.504 84.795,288.502 84.645 C 288.501 84.496,288.372 84.084,288.214 83.729 C 287.960 83.154,287.922 82.165,287.866 74.705 C 287.792 64.919,288.010 65.833,285.749 65.833 C 283.254 65.833,283.484 64.469,283.538 78.920 L 283.583 91.029 283.122 91.426 C 282.665 91.819,282.627 91.823,278.751 91.827 L 274.842 91.831 274.254 91.315 C 273.739 90.862,273.667 90.703,273.667 90.016 C 273.667 89.013,273.405 88.717,272.930 89.181 C 271.858 90.228,270.960 90.780,268.847 91.693 C 266.567 92.678,260.758 91.952,258.640 90.417 C 258.334 90.195,257.821 89.866,257.500 89.686 C 255.620 88.629,253.968 86.217,253.151 83.333 L 252.607 81.417 252.542 70.684 C 252.470 58.915,252.448 59.295,253.213 58.829 C 254.123 58.274,261.206 58.333,261.917 58.902 L 262.417 59.302 262.502 69.359 L 262.587 79.417 263.026 80.445 C 264.563 84.047,268.650 84.783,271.537 81.979 C 273.645 79.931,273.669 79.782,273.666 68.723 C 273.664 59.793,273.686 59.472,274.355 58.849 C 274.721 58.508,274.865 58.500,280.959 58.500 C 284.934 58.500,287.305 58.438,287.511 58.327 C 287.816 58.164,287.833 57.938,287.833 54.085 C 287.833 49.715,287.894 49.341,288.661 48.968 C 289.214 48.700,296.330 48.740,297.020 49.015 M69.611 57.502 C 69.076 57.670,68.513 57.910,68.361 58.036 C 68.208 58.162,67.877 58.368,67.625 58.494 C 67.373 58.620,67.167 58.778,67.167 58.845 C 67.167 58.912,66.872 59.358,66.512 59.837 C 65.737 60.869,65.495 62.399,65.785 64.433 C 66.406 68.797,72.130 70.285,75.793 67.035 C 76.936 66.021,77.598 62.858,76.917 61.667 C 76.786 61.438,76.676 61.090,76.673 60.894 C 76.665 60.426,75.305 58.786,74.528 58.307 C 72.670 57.161,71.373 56.949,69.611 57.502 M102.048 57.498 C 101.106 57.776,99.500 58.725,99.500 59.004 C 99.500 59.067,99.314 59.319,99.087 59.564 C 96.417 62.445,98.157 67.722,102.083 68.649 C 108.619 70.191,112.219 62.130,106.736 58.232 C 105.390 57.275,103.700 57.010,102.048 57.498 M167.423 58.176 C 170.243 58.490,172.753 60.029,174.922 62.773 L 175.595 63.623 176.922 62.289 C 177.653 61.555,178.512 60.832,178.833 60.682 C 179.154 60.531,179.754 60.190,180.167 59.924 C 180.579 59.657,181.292 59.299,181.750 59.128 C 182.208 58.957,182.846 58.691,183.167 58.537 C 184.159 58.060,189.890 58.135,191.333 58.643 C 194.743 59.843,198.129 62.624,198.597 64.608 C 198.659 64.869,198.842 65.308,199.004 65.583 C 199.949 67.189,200.000 67.924,200.000 79.836 L 200.000 90.848 199.591 91.258 L 199.182 91.667 195.465 91.667 C 191.642 91.667,190.794 91.563,190.403 91.048 C 190.219 90.805,190.177 88.985,190.175 81.250 L 190.172 71.750 189.718 70.373 C 188.384 66.332,185.135 65.341,181.428 67.843 C 181.006 68.128,180.550 68.575,180.415 68.837 C 180.279 69.099,180.025 69.414,179.849 69.537 C 178.937 70.176,178.767 71.956,178.671 81.899 L 178.583 91.048 178.164 91.361 C 177.607 91.776,170.221 91.936,169.662 91.545 C 168.945 91.042,168.940 90.981,168.886 81.169 C 168.825 70.127,168.711 69.160,167.292 67.641 C 165.234 65.437,160.721 66.641,159.038 69.843 C 158.076 71.674,158.000 72.582,158.000 82.224 L 158.000 90.942 157.570 91.346 C 156.695 92.168,149.346 91.984,148.535 91.120 C 148.232 90.798,147.939 66.930,148.152 59.946 C 148.161 59.661,148.359 59.282,148.654 58.987 L 149.141 58.500 153.058 58.500 L 156.974 58.500 157.487 58.931 C 157.943 59.315,158.000 59.462,158.000 60.265 C 158.000 61.352,158.154 61.396,159.260 60.625 C 161.251 59.236,162.757 58.503,164.167 58.237 C 165.576 57.970,165.580 57.970,167.423 58.176 M241.083 58.738 C 243.149 59.567,244.947 60.763,245.951 61.973 C 247.376 63.690,247.819 64.490,248.462 66.503 C 249.354 69.298,249.354 69.301,249.300 80.445 L 249.250 90.807 248.863 91.219 L 248.475 91.631 244.387 91.585 C 240.585 91.543,240.276 91.517,239.972 91.213 C 239.656 90.897,239.647 90.606,239.660 81.568 C 239.670 74.093,239.627 72.069,239.440 71.333 C 239.311 70.829,239.154 70.117,239.089 69.750 C 238.243 64.920,230.758 64.860,228.711 69.667 L 228.250 70.750 228.167 80.766 C 228.078 91.463,228.110 91.079,227.264 91.541 C 227.041 91.663,225.557 91.747,223.122 91.777 L 219.327 91.823 218.824 91.370 L 218.320 90.917 218.323 75.167 L 218.325 59.417 218.865 58.958 L 219.404 58.500 223.113 58.500 C 227.694 58.500,228.436 58.736,228.098 60.084 C 228.044 60.300,228.072 60.669,228.162 60.903 L 228.324 61.330 228.935 60.915 C 229.271 60.687,229.637 60.500,229.747 60.500 C 229.858 60.500,230.091 60.342,230.266 60.148 C 231.961 58.271,237.968 57.488,241.083 58.738 M325.574 58.173 C 326.862 58.268,328.217 58.449,328.583 58.576 C 328.950 58.703,329.689 58.929,330.225 59.079 C 331.595 59.463,334.839 61.225,335.333 61.854 C 335.379 61.913,335.744 62.233,336.144 62.567 C 336.775 63.092,337.314 63.720,338.802 65.667 C 341.459 69.142,342.264 76.489,340.497 81.133 C 340.049 82.309,339.120 84.166,338.979 84.166 C 338.921 84.167,338.775 84.410,338.654 84.708 C 337.808 86.789,332.518 90.657,329.480 91.416 C 328.895 91.562,328.117 91.759,327.750 91.854 C 326.884 92.079,321.828 92.080,320.750 91.856 C 320.292 91.761,319.504 91.598,319.000 91.493 C 315.196 90.705,310.493 87.031,308.663 83.417 C 308.477 83.050,308.219 82.563,308.089 82.333 C 307.846 81.906,307.486 80.878,307.073 79.435 C 305.999 75.679,307.086 68.573,309.112 66.112 C 309.325 65.853,309.500 65.559,309.500 65.458 C 309.500 64.948,312.204 62.180,313.610 61.252 C 314.145 60.899,314.771 60.485,315.000 60.334 C 316.384 59.417,318.927 58.535,321.000 58.251 C 323.057 57.970,322.863 57.973,325.574 58.173 M356.917 58.177 C 359.209 58.376,361.151 58.920,363.352 59.977 C 364.141 60.356,364.833 60.667,364.889 60.667 C 366.210 60.667,367.122 63.021,366.205 64.066 C 366.036 64.259,365.804 64.604,365.690 64.833 C 365.577 65.063,365.319 65.515,365.117 65.838 C 364.915 66.161,364.600 66.676,364.417 66.981 C 363.747 68.097,363.570 68.242,362.880 68.242 C 362.497 68.242,362.027 68.105,361.751 67.913 C 358.945 65.957,354.234 65.183,352.212 66.345 C 349.924 67.660,351.839 69.624,356.851 71.102 C 357.346 71.248,357.825 71.425,357.917 71.495 C 358.008 71.566,358.383 71.677,358.750 71.743 C 359.385 71.858,360.234 72.202,362.086 73.096 C 362.545 73.318,362.971 73.500,363.032 73.500 C 363.762 73.500,365.954 75.583,366.721 77.004 C 367.463 78.381,367.713 82.578,367.156 84.321 C 366.741 85.618,366.430 86.259,365.679 87.367 C 364.822 88.631,364.465 88.945,362.326 90.328 C 359.637 92.066,354.275 92.688,350.417 91.708 C 349.683 91.522,348.783 91.318,348.417 91.254 C 348.050 91.191,347.525 91.038,347.250 90.915 C 346.975 90.791,346.225 90.487,345.583 90.239 C 344.097 89.665,342.499 88.884,342.171 88.570 C 342.031 88.436,341.523 88.022,341.042 87.649 C 340.040 86.874,339.861 86.161,340.518 85.567 C 340.711 85.393,341.005 84.982,341.172 84.656 C 341.339 84.329,341.599 83.959,341.750 83.833 C 341.901 83.708,342.162 83.338,342.330 83.011 C 343.207 81.307,344.244 80.734,345.353 81.344 C 346.134 81.773,347.411 82.499,347.667 82.659 C 349.883 84.045,355.429 85.034,356.590 84.251 C 356.862 84.068,357.290 83.827,357.543 83.716 C 358.978 83.087,357.960 80.608,356.009 79.980 C 355.683 79.876,355.342 79.733,355.250 79.664 C 354.958 79.443,352.902 78.667,352.608 78.667 C 352.034 78.667,347.612 76.816,347.411 76.492 C 347.366 76.419,346.955 76.234,346.497 76.082 C 342.161 74.642,340.559 67.327,343.639 63.034 C 345.462 60.495,349.334 58.490,353.000 58.190 C 353.962 58.111,354.787 58.037,354.833 58.025 C 354.879 58.013,355.817 58.082,356.917 58.177 M213.625 58.930 L 214.000 59.352 214.000 75.184 L 214.000 91.015 213.615 91.400 C 213.234 91.781,213.198 91.784,209.406 91.754 C 204.842 91.718,204.661 91.670,204.456 90.445 C 204.188 88.844,204.385 59.422,204.667 59.083 C 205.166 58.482,205.683 58.415,209.517 58.462 L 213.250 58.507 213.625 58.930 M322.684 66.612 C 322.372 66.656,321.959 66.790,321.767 66.911 C 321.574 67.031,321.137 67.218,320.795 67.326 C 319.216 67.827,317.456 70.207,316.673 72.903 C 315.815 75.857,316.992 80.125,319.122 81.780 C 319.454 82.038,319.865 82.383,320.034 82.546 C 321.457 83.915,326.308 83.922,328.009 82.558 C 331.814 79.506,332.819 74.551,330.474 70.397 C 329.987 69.534,327.791 67.333,327.417 67.333 C 327.318 67.333,326.940 67.180,326.577 66.992 C 325.899 66.642,323.871 66.444,322.684 66.612 " stroke="none" fill="#fbfbfa" fill-rule="evenodd"></path><path id="path2" d="M122.750 9.440 C 122.278 9.694,121.556 10.314,121.083 10.874 C 119.932 12.237,118.346 13.851,117.764 14.250 C 114.940 16.190,114.932 16.142,118.671 19.750 C 119.431 20.483,120.346 21.453,120.705 21.905 C 121.064 22.357,122.077 23.457,122.956 24.349 C 125.138 26.560,125.345 27.015,124.674 28.116 C 123.891 29.400,122.612 29.582,121.161 28.615 C 119.433 27.463,116.978 25.748,115.948 24.975 C 115.381 24.548,114.129 23.806,113.167 23.326 C 112.204 22.845,110.779 22.092,110.000 21.652 C 108.675 20.903,105.653 19.783,103.750 19.337 C 103.292 19.229,102.692 19.007,102.417 18.842 C 102.142 18.677,101.579 18.493,101.167 18.433 C 100.754 18.372,99.779 18.181,99.000 18.008 C 98.221 17.834,97.208 17.618,96.750 17.528 C 96.292 17.437,95.617 17.283,95.250 17.187 C 93.008 16.594,83.008 16.637,79.250 17.256 C 73.252 18.244,70.325 19.078,67.000 20.747 C 66.587 20.954,65.875 21.257,65.417 21.420 C 64.634 21.698,63.153 22.341,61.840 22.973 C 61.524 23.125,60.811 23.583,60.257 23.990 C 59.703 24.396,58.609 25.044,57.826 25.429 C 56.921 25.873,56.100 26.429,55.576 26.955 C 55.122 27.410,54.300 28.070,53.750 28.420 C 51.862 29.625,49.580 31.708,48.843 32.901 C 48.656 33.203,48.034 33.866,47.460 34.375 C 46.886 34.884,46.079 35.762,45.667 36.327 C 45.254 36.891,44.442 37.893,43.861 38.552 C 43.280 39.211,42.693 40.006,42.555 40.319 C 42.418 40.633,42.019 41.308,41.670 41.819 C 40.762 43.148,38.729 46.673,38.586 47.167 C 38.520 47.396,38.372 47.733,38.258 47.917 C 38.144 48.100,37.916 48.663,37.750 49.167 C 37.584 49.671,37.348 50.239,37.225 50.429 C 36.932 50.879,35.296 55.892,34.917 57.500 C 34.755 58.188,34.478 59.263,34.302 59.889 C 34.126 60.516,33.911 61.654,33.824 62.418 C 33.737 63.182,33.554 64.394,33.416 65.112 C 33.068 66.934,33.065 74.206,33.412 75.703 C 33.547 76.285,33.736 77.508,33.832 78.422 C 34.238 82.271,36.398 89.466,38.159 92.833 C 38.327 93.154,38.515 93.660,38.578 93.956 C 38.641 94.253,38.765 94.541,38.854 94.596 C 38.944 94.652,39.305 95.321,39.658 96.084 C 40.272 97.414,42.327 100.683,43.429 102.083 C 43.717 102.450,44.232 103.162,44.571 103.667 C 45.584 105.168,50.888 110.625,52.667 111.994 C 53.354 112.523,54.109 113.149,54.343 113.385 C 55.373 114.422,57.757 116.061,58.804 116.451 C 59.109 116.565,59.583 116.847,59.858 117.079 C 60.134 117.310,60.420 117.500,60.494 117.500 C 60.568 117.500,61.068 117.791,61.606 118.147 C 62.144 118.502,62.771 118.848,63.000 118.914 C 63.229 118.980,63.717 119.169,64.083 119.332 C 67.437 120.830,68.265 121.180,69.500 121.619 C 70.936 122.130,72.009 122.432,74.417 123.002 C 75.150 123.176,76.078 123.434,76.479 123.576 C 76.880 123.717,77.518 123.834,77.896 123.834 C 78.274 123.834,79.483 123.984,80.583 124.167 C 84.286 124.782,92.990 124.480,97.917 123.565 C 98.650 123.428,99.884 123.202,100.659 123.060 C 101.434 122.919,102.147 122.699,102.242 122.571 C 102.412 122.346,103.358 121.980,105.417 121.344 C 106.408 121.037,108.347 120.215,110.917 119.009 C 111.650 118.666,112.869 118.098,113.625 117.749 C 114.381 117.400,115.000 117.064,115.000 117.002 C 115.000 116.940,115.394 116.641,115.875 116.338 C 120.744 113.268,124.454 110.140,127.363 106.652 C 127.701 106.248,128.174 105.692,128.416 105.417 C 129.511 104.172,130.068 103.427,131.589 101.167 C 132.484 99.837,133.430 98.504,133.691 98.203 C 133.953 97.901,134.167 97.577,134.167 97.481 C 134.167 97.175,135.036 95.100,135.356 94.643 C 135.813 93.989,137.500 90.655,137.500 90.405 C 137.500 90.286,137.686 89.752,137.912 89.219 C 138.139 88.686,138.555 87.358,138.836 86.268 C 139.117 85.178,139.409 84.166,139.486 84.018 C 139.775 83.462,140.499 79.507,140.665 77.583 C 141.212 71.229,141.214 71.154,141.016 67.600 C 140.670 61.379,139.929 57.283,138.659 54.583 C 138.572 54.400,138.391 53.712,138.256 53.055 C 138.121 52.398,137.757 51.386,137.447 50.805 C 137.137 50.225,136.792 49.375,136.681 48.917 C 136.569 48.458,136.133 47.446,135.711 46.667 C 135.290 45.887,134.584 44.555,134.143 43.705 C 133.424 42.322,132.207 40.639,131.293 39.768 C 131.111 39.594,130.799 39.099,130.599 38.668 C 130.399 38.237,129.949 37.554,129.599 37.150 C 128.064 35.384,128.341 34.034,130.397 33.249 C 131.592 32.792,132.115 33.137,135.198 36.417 C 136.906 38.234,140.209 41.347,140.696 41.598 C 141.454 41.991,142.401 41.469,144.047 39.752 C 144.800 38.966,146.222 37.499,147.206 36.493 C 148.190 35.486,149.042 34.475,149.099 34.246 C 149.240 33.685,147.861 30.918,146.781 29.595 C 146.338 29.052,145.764 28.190,145.506 27.679 C 145.248 27.168,144.766 26.487,144.434 26.167 C 144.102 25.846,143.629 25.283,143.382 24.917 C 143.136 24.550,142.854 24.175,142.756 24.083 C 142.658 23.992,141.996 23.232,141.285 22.395 C 140.574 21.558,139.432 20.404,138.746 19.830 C 138.061 19.256,137.500 18.728,137.500 18.657 C 137.500 18.422,134.002 15.437,133.460 15.209 C 133.168 15.087,132.427 14.502,131.814 13.910 C 131.201 13.318,130.619 12.833,130.521 12.833 C 130.423 12.833,129.760 12.360,129.047 11.781 C 128.333 11.202,127.487 10.590,127.167 10.421 C 124.305 8.913,123.899 8.823,122.750 9.440 M93.250 26.766 C 95.384 27.043,100.211 28.152,101.482 28.659 C 104.743 29.957,105.752 30.398,106.762 30.969 C 107.397 31.328,108.104 31.679,108.333 31.750 C 108.563 31.821,108.929 32.019,109.147 32.190 C 109.366 32.360,109.674 32.500,109.831 32.500 C 109.988 32.500,110.353 32.725,110.640 33.000 C 110.928 33.275,111.239 33.500,111.332 33.500 C 111.424 33.500,111.818 33.811,112.208 34.192 C 112.598 34.572,113.104 35.003,113.333 35.150 C 114.939 36.178,117.040 37.948,117.829 38.938 C 118.331 39.568,119.277 40.646,119.932 41.333 C 121.157 42.620,121.737 43.398,122.977 45.417 C 123.371 46.058,123.911 46.883,124.178 47.250 C 124.895 48.235,126.813 51.921,127.257 53.167 C 127.469 53.762,127.862 54.775,128.129 55.417 C 130.031 59.980,130.981 68.332,130.334 74.798 C 130.109 77.045,129.090 82.034,128.675 82.917 C 128.503 83.283,128.315 83.859,128.259 84.195 C 128.142 84.896,126.597 88.372,125.816 89.694 C 125.527 90.183,124.990 91.146,124.624 91.833 C 123.670 93.621,122.970 94.676,122.053 95.711 C 121.049 96.842,119.434 98.739,118.667 99.686 C 117.985 100.528,117.799 100.714,116.153 102.201 C 114.194 103.972,113.623 104.434,113.001 104.753 C 112.681 104.916,111.968 105.418,111.418 105.868 C 110.502 106.615,105.095 109.450,104.000 109.756 C 103.771 109.821,103.171 110.059,102.667 110.286 C 102.162 110.513,101.506 110.808,101.207 110.942 C 100.651 111.189,98.107 111.922,96.167 112.393 C 92.105 113.379,78.755 113.118,76.688 112.012 C 76.527 111.925,75.613 111.657,74.657 111.414 C 73.701 111.172,72.844 110.917,72.751 110.847 C 72.659 110.777,71.946 110.468,71.167 110.159 C 69.108 109.344,65.233 107.400,64.140 106.634 C 63.621 106.270,62.971 105.847,62.696 105.694 C 62.420 105.542,61.908 105.256,61.556 105.059 C 61.204 104.862,60.644 104.412,60.310 104.059 C 59.977 103.706,59.419 103.192,59.071 102.917 C 56.870 101.176,52.910 96.838,52.149 95.333 C 51.720 94.485,51.173 93.697,50.395 92.807 C 50.102 92.472,49.603 91.685,49.286 91.057 C 48.969 90.430,48.513 89.549,48.272 89.100 C 48.031 88.651,47.833 88.170,47.833 88.031 C 47.833 87.892,47.356 86.797,46.772 85.597 C 45.667 83.329,45.072 81.361,44.600 78.417 C 44.467 77.592,44.274 76.617,44.171 76.250 C 43.414 73.570,44.032 61.461,45.075 58.521 C 45.217 58.120,45.334 57.670,45.335 57.521 C 45.335 57.372,45.710 56.430,46.168 55.427 C 46.626 54.424,47.000 53.529,47.000 53.438 C 47.000 53.347,47.142 52.967,47.316 52.594 C 47.491 52.222,47.915 51.282,48.259 50.505 C 49.012 48.806,49.675 47.654,50.434 46.722 C 50.745 46.340,51.000 45.955,51.000 45.866 C 51.000 45.409,54.781 40.602,55.974 39.541 C 56.309 39.243,57.146 38.503,57.833 37.897 C 58.521 37.291,59.346 36.553,59.667 36.257 C 60.370 35.609,62.695 33.848,63.309 33.500 C 63.552 33.362,63.975 33.090,64.250 32.895 C 64.525 32.700,65.350 32.243,66.083 31.880 C 66.817 31.517,67.788 30.983,68.241 30.693 C 68.694 30.404,69.144 30.166,69.241 30.165 C 69.338 30.164,69.792 29.979,70.250 29.754 C 70.708 29.528,71.168 29.341,71.271 29.339 C 71.374 29.336,72.049 29.063,72.771 28.733 C 74.718 27.841,80.050 26.824,84.750 26.447 C 86.220 26.329,91.368 26.522,93.250 26.766 " stroke="none" fill="#9bc154" fill-rule="evenodd"></path><path id="path3" d="M122.413 8.292 C 121.771 8.752,120.914 9.582,118.394 12.183 C 117.648 12.953,116.584 13.996,116.030 14.500 C 114.156 16.204,114.270 16.646,117.417 19.890 C 118.700 21.213,120.017 22.585,120.343 22.940 C 120.669 23.294,121.481 24.108,122.148 24.750 C 123.888 26.426,124.244 27.455,123.217 27.846 C 122.345 28.177,122.113 28.077,119.127 26.083 C 118.637 25.756,116.902 24.556,116.065 23.965 C 115.597 23.635,114.894 23.189,114.504 22.974 C 111.103 21.105,108.578 19.833,108.268 19.833 C 108.164 19.833,107.817 19.694,107.498 19.523 C 107.178 19.353,106.729 19.161,106.500 19.097 C 106.271 19.034,105.483 18.802,104.750 18.582 C 102.384 17.874,98.276 16.850,97.333 16.734 C 96.829 16.672,96.221 16.522,95.981 16.402 C 94.345 15.576,84.031 15.596,79.083 16.435 C 73.737 17.341,70.292 18.218,67.979 19.260 C 67.280 19.576,66.647 19.833,66.573 19.833 C 66.425 19.833,66.009 20.021,63.115 21.397 C 62.033 21.912,61.087 22.333,61.012 22.333 C 60.938 22.333,60.033 22.899,59.001 23.590 C 57.969 24.281,56.890 24.967,56.604 25.115 C 56.318 25.262,55.558 25.812,54.917 26.337 C 54.275 26.862,53.444 27.481,53.070 27.713 C 51.667 28.584,49.057 30.807,48.333 31.749 C 47.921 32.285,47.084 33.235,46.473 33.860 C 45.863 34.484,44.784 35.765,44.075 36.706 C 43.366 37.647,42.580 38.642,42.328 38.917 C 42.076 39.192,41.692 39.740,41.476 40.135 C 41.260 40.530,40.931 41.130,40.746 41.468 C 40.560 41.807,40.168 42.432,39.874 42.858 C 39.093 43.992,38.396 45.318,38.157 46.125 C 38.042 46.515,37.896 46.833,37.833 46.833 C 37.671 46.833,36.911 48.296,36.665 49.083 C 36.550 49.450,36.401 49.825,36.334 49.917 C 36.202 50.096,34.332 55.926,34.009 57.167 C 33.901 57.579,33.707 58.329,33.576 58.833 C 33.445 59.337,33.337 60.184,33.336 60.714 C 33.335 61.244,33.219 61.951,33.079 62.286 C 32.501 63.670,32.276 73.465,32.741 77.000 C 33.423 82.180,33.969 84.922,34.549 86.082 C 34.732 86.448,34.978 87.161,35.096 87.665 C 36.026 91.643,41.187 101.391,44.140 104.750 C 47.013 108.017,49.145 110.196,51.186 111.953 C 55.105 115.325,55.964 116.009,56.500 116.185 C 56.821 116.290,57.196 116.473,57.334 116.593 C 57.471 116.712,57.771 116.893,58.000 116.993 C 58.229 117.094,58.979 117.549,59.667 118.004 C 60.354 118.459,61.592 119.174,62.417 119.593 C 63.242 120.013,64.367 120.586,64.917 120.867 C 65.467 121.148,66.326 121.487,66.826 121.620 C 67.326 121.753,68.001 121.996,68.326 122.161 C 68.651 122.325,69.179 122.510,69.500 122.573 C 69.821 122.635,70.233 122.754,70.417 122.836 C 71.767 123.444,74.865 124.270,77.250 124.660 C 81.644 125.377,82.202 125.417,87.344 125.382 C 92.215 125.348,92.574 125.323,95.511 124.821 C 97.201 124.532,99.071 124.225,99.667 124.140 C 100.263 124.054,101.725 123.657,102.917 123.258 C 104.108 122.858,105.608 122.372,106.250 122.177 C 106.892 121.983,107.867 121.606,108.417 121.340 C 113.197 119.030,114.326 118.500,114.463 118.500 C 114.550 118.500,114.904 118.275,115.250 118.000 C 115.596 117.725,115.968 117.500,116.076 117.500 C 116.184 117.500,116.680 117.203,117.178 116.841 C 117.676 116.479,118.383 115.968,118.750 115.708 C 121.704 113.605,122.671 112.817,124.630 110.917 C 126.585 109.020,129.413 105.899,130.417 104.529 C 130.600 104.279,131.019 103.739,131.347 103.329 C 131.675 102.919,132.087 102.349,132.263 102.063 C 132.439 101.778,133.005 100.915,133.520 100.147 C 134.036 99.379,134.561 98.554,134.687 98.314 C 135.271 97.203,137.000 93.641,137.000 93.547 C 137.000 93.490,137.114 93.317,137.253 93.164 C 138.018 92.317,140.648 84.059,141.015 81.349 C 141.109 80.653,141.255 79.821,141.338 79.500 C 142.646 74.478,141.985 61.641,140.116 55.750 C 139.330 53.272,138.645 51.255,138.249 50.250 C 138.032 49.700,137.652 48.725,137.406 48.083 C 137.159 47.442,136.535 46.185,136.020 45.290 C 135.505 44.395,134.783 43.107,134.417 42.427 C 133.829 41.339,132.605 39.582,130.651 37.026 C 129.535 35.566,129.447 34.892,130.291 34.264 C 131.002 33.734,131.897 34.400,136.148 38.621 C 141.794 44.228,140.970 44.201,146.219 38.952 C 150.922 34.250,150.963 34.127,148.884 31.058 C 148.521 30.522,148.010 29.746,147.750 29.333 C 147.489 28.921,147.101 28.317,146.888 27.991 C 146.675 27.665,146.500 27.305,146.500 27.189 C 146.500 27.074,146.136 26.591,145.691 26.115 C 145.246 25.639,144.247 24.462,143.471 23.498 C 141.723 21.329,136.522 16.108,135.417 15.412 C 135.142 15.239,134.677 14.907,134.385 14.674 C 134.093 14.441,133.380 13.888,132.802 13.446 C 132.223 13.004,131.225 12.231,130.583 11.729 C 126.352 8.420,123.759 7.328,122.413 8.292 M125.250 9.456 C 125.800 9.684,126.449 10.013,126.692 10.186 C 126.936 10.359,127.208 10.500,127.297 10.500 C 127.386 10.500,128.109 11.025,128.905 11.667 C 129.701 12.308,130.430 12.833,130.525 12.833 C 130.621 12.833,131.201 13.318,131.814 13.910 C 132.427 14.502,133.168 15.087,133.460 15.209 C 134.002 15.437,137.500 18.422,137.500 18.657 C 137.500 18.728,138.061 19.256,138.746 19.830 C 139.432 20.404,140.574 21.558,141.285 22.395 C 141.996 23.232,142.658 23.992,142.756 24.083 C 142.854 24.175,143.136 24.550,143.382 24.917 C 143.629 25.283,144.102 25.846,144.434 26.167 C 144.766 26.487,145.245 27.162,145.500 27.667 C 145.755 28.171,146.312 29.008,146.739 29.526 C 147.599 30.570,149.163 33.537,149.165 34.127 C 149.166 34.384,148.570 35.111,147.292 36.412 C 146.260 37.461,144.817 38.947,144.083 39.712 C 143.350 40.478,142.396 41.312,141.964 41.565 L 141.179 42.025 140.464 41.471 C 139.663 40.849,136.634 37.942,135.199 36.417 C 132.111 33.135,131.592 32.792,130.397 33.249 C 128.341 34.034,128.064 35.384,129.599 37.150 C 129.949 37.554,130.399 38.237,130.599 38.668 C 130.799 39.099,131.111 39.594,131.293 39.768 C 132.207 40.639,133.424 42.322,134.143 43.705 C 134.584 44.555,135.290 45.887,135.711 46.667 C 136.133 47.446,136.569 48.458,136.681 48.917 C 136.792 49.375,137.137 50.225,137.447 50.805 C 137.757 51.386,138.121 52.398,138.256 53.055 C 138.391 53.712,138.572 54.400,138.659 54.583 C 139.929 57.283,140.670 61.379,141.016 67.600 C 141.214 71.154,141.212 71.229,140.665 77.583 C 140.499 79.507,139.775 83.462,139.486 84.018 C 139.409 84.166,139.117 85.178,138.836 86.268 C 138.555 87.358,138.139 88.686,137.912 89.219 C 137.686 89.752,137.500 90.286,137.500 90.405 C 137.500 90.655,135.813 93.989,135.356 94.643 C 135.036 95.100,134.167 97.175,134.167 97.481 C 134.167 97.577,133.953 97.901,133.691 98.203 C 133.430 98.504,132.484 99.837,131.589 101.167 C 130.068 103.427,129.511 104.172,128.416 105.417 C 128.174 105.692,127.701 106.248,127.363 106.652 C 124.464 110.129,120.813 113.210,115.917 116.310 C 115.550 116.543,115.170 116.826,115.071 116.941 C 114.973 117.055,114.073 117.530,113.071 117.996 C 112.070 118.462,110.875 119.024,110.417 119.246 C 108.718 120.066,106.387 121.044,105.417 121.344 C 103.358 121.980,102.412 122.346,102.242 122.571 C 102.147 122.699,101.434 122.919,100.659 123.060 C 99.884 123.202,98.650 123.428,97.917 123.565 C 92.990 124.480,84.286 124.782,80.583 124.167 C 79.483 123.984,78.274 123.834,77.896 123.834 C 77.518 123.834,76.880 123.717,76.479 123.576 C 76.078 123.434,75.150 123.176,74.417 123.002 C 72.009 122.432,70.936 122.130,69.500 121.619 C 68.265 121.180,67.437 120.830,64.083 119.332 C 63.717 119.169,63.229 118.980,63.000 118.914 C 62.771 118.848,62.144 118.502,61.606 118.147 C 61.068 117.791,60.568 117.500,60.494 117.500 C 60.420 117.500,60.134 117.310,59.858 117.079 C 59.583 116.847,59.109 116.565,58.804 116.451 C 57.757 116.061,55.373 114.422,54.343 113.385 C 54.109 113.149,53.354 112.523,52.667 111.994 C 50.888 110.625,45.584 105.168,44.571 103.667 C 44.232 103.162,43.717 102.450,43.429 102.083 C 42.327 100.683,40.272 97.414,39.658 96.084 C 39.305 95.321,38.944 94.652,38.854 94.596 C 38.765 94.541,38.641 94.253,38.578 93.956 C 38.515 93.660,38.327 93.154,38.159 92.833 C 36.398 89.466,34.238 82.271,33.832 78.422 C 33.736 77.508,33.547 76.285,33.412 75.703 C 33.065 74.206,33.068 66.934,33.416 65.112 C 33.554 64.394,33.737 63.182,33.824 62.418 C 33.911 61.654,34.126 60.516,34.302 59.889 C 34.478 59.263,34.755 58.188,34.917 57.500 C 35.296 55.892,36.932 50.879,37.225 50.429 C 37.348 50.239,37.584 49.671,37.750 49.167 C 37.916 48.663,38.144 48.100,38.258 47.917 C 38.372 47.733,38.520 47.396,38.586 47.167 C 38.729 46.673,40.762 43.148,41.670 41.819 C 42.019 41.308,42.418 40.633,42.555 40.319 C 42.693 40.006,43.280 39.211,43.861 38.552 C 44.442 37.893,45.254 36.891,45.667 36.327 C 46.079 35.762,46.886 34.884,47.460 34.375 C 48.034 33.866,48.656 33.203,48.843 32.901 C 49.579 31.710,51.858 29.629,53.750 28.419 C 54.300 28.068,55.135 27.398,55.606 26.932 C 56.147 26.396,56.999 25.817,57.918 25.360 C 58.718 24.962,59.798 24.325,60.318 23.944 C 60.839 23.562,61.524 23.125,61.840 22.973 C 63.153 22.341,64.634 21.698,65.417 21.420 C 65.875 21.257,66.587 20.954,67.000 20.747 C 70.325 19.078,73.252 18.244,79.250 17.256 C 83.008 16.637,93.008 16.594,95.250 17.187 C 95.617 17.283,96.292 17.437,96.750 17.528 C 97.208 17.618,98.221 17.834,99.000 18.008 C 99.779 18.181,100.754 18.372,101.167 18.433 C 101.579 18.493,102.142 18.677,102.417 18.842 C 102.692 19.007,103.292 19.229,103.750 19.337 C 105.653 19.783,108.675 20.903,110.000 21.652 C 110.779 22.092,112.204 22.845,113.167 23.326 C 114.129 23.806,115.381 24.548,115.948 24.975 C 116.978 25.748,119.433 27.463,121.161 28.615 C 122.612 29.582,123.891 29.400,124.674 28.116 C 125.345 27.015,125.138 26.560,122.956 24.349 C 122.077 23.457,121.064 22.357,120.705 21.905 C 120.346 21.453,119.431 20.483,118.671 19.750 C 114.932 16.142,114.940 16.190,117.764 14.250 C 118.332 13.860,119.898 12.273,121.083 10.885 C 122.036 9.771,123.416 8.832,123.917 8.957 C 124.100 9.003,124.700 9.227,125.250 9.456 M84.750 26.447 C 80.050 26.824,74.718 27.841,72.771 28.733 C 72.049 29.063,71.374 29.336,71.271 29.339 C 71.168 29.341,70.708 29.528,70.250 29.754 C 69.792 29.979,69.338 30.164,69.241 30.165 C 69.144 30.166,68.694 30.404,68.241 30.693 C 67.788 30.983,66.817 31.517,66.083 31.880 C 65.350 32.243,64.525 32.700,64.250 32.895 C 63.975 33.090,63.552 33.362,63.309 33.500 C 62.695 33.848,60.370 35.609,59.667 36.257 C 59.346 36.553,58.521 37.291,57.833 37.897 C 57.146 38.503,56.309 39.243,55.974 39.541 C 54.781 40.602,51.000 45.409,51.000 45.866 C 51.000 45.955,50.745 46.340,50.434 46.722 C 49.675 47.654,49.012 48.806,48.259 50.505 C 47.915 51.282,47.491 52.222,47.316 52.594 C 47.142 52.967,47.000 53.347,47.000 53.438 C 47.000 53.529,46.626 54.424,46.168 55.427 C 45.710 56.430,45.335 57.372,45.335 57.521 C 45.334 57.670,45.217 58.120,45.075 58.521 C 44.032 61.461,43.414 73.570,44.171 76.250 C 44.274 76.617,44.467 77.592,44.600 78.417 C 45.072 81.361,45.667 83.329,46.772 85.597 C 47.356 86.797,47.833 87.892,47.833 88.031 C 47.833 88.170,48.031 88.651,48.272 89.100 C 48.513 89.549,48.969 90.430,49.286 91.057 C 49.603 91.685,50.102 92.472,50.395 92.807 C 51.173 93.697,51.720 94.485,52.149 95.333 C 52.910 96.838,56.870 101.176,59.071 102.917 C 59.419 103.192,59.977 103.706,60.310 104.059 C 60.644 104.412,61.204 104.862,61.556 105.059 C 61.908 105.256,62.420 105.542,62.696 105.694 C 62.971 105.847,63.621 106.270,64.140 106.634 C 65.233 107.400,69.108 109.344,71.167 110.159 C 71.946 110.468,72.659 110.777,72.751 110.847 C 72.844 110.917,73.701 111.172,74.657 111.414 C 75.613 111.657,76.527 111.925,76.688 112.012 C 78.755 113.118,92.105 113.379,96.167 112.393 C 99.081 111.686,102.318 110.619,102.917 110.169 C 103.008 110.100,103.383 109.952,103.750 109.840 C 105.138 109.418,110.425 106.678,111.422 105.864 C 111.974 105.413,112.724 104.891,113.088 104.704 C 113.452 104.517,113.970 104.132,114.240 103.849 C 114.509 103.565,114.792 103.333,114.868 103.333 C 114.945 103.333,115.371 102.977,115.815 102.542 C 116.260 102.106,116.952 101.450,117.353 101.083 C 117.755 100.717,118.346 100.090,118.667 99.691 C 119.403 98.776,121.008 96.889,122.053 95.711 C 122.970 94.676,123.670 93.621,124.624 91.833 C 124.990 91.146,125.527 90.183,125.816 89.694 C 126.597 88.372,128.142 84.896,128.259 84.195 C 128.315 83.859,128.503 83.283,128.675 82.917 C 129.090 82.034,130.109 77.045,130.334 74.798 C 130.981 68.332,130.031 59.980,128.129 55.417 C 127.862 54.775,127.469 53.762,127.257 53.167 C 126.813 51.921,124.895 48.235,124.178 47.250 C 123.911 46.883,123.371 46.058,122.977 45.417 C 121.737 43.398,121.157 42.620,119.932 41.333 C 119.277 40.646,118.331 39.568,117.829 38.938 C 117.040 37.948,114.939 36.178,113.333 35.150 C 113.104 35.003,112.598 34.572,112.208 34.192 C 111.818 33.811,111.424 33.500,111.332 33.500 C 111.239 33.500,110.928 33.275,110.640 33.000 C 110.353 32.725,109.988 32.500,109.831 32.500 C 109.674 32.500,109.366 32.360,109.147 32.190 C 108.929 32.019,108.563 31.821,108.333 31.750 C 108.104 31.679,107.397 31.328,106.762 30.969 C 105.752 30.398,104.743 29.957,101.482 28.659 C 97.871 27.221,89.272 26.084,84.750 26.447 M92.499 27.583 C 92.569 27.626,93.442 27.776,94.438 27.915 C 96.949 28.266,102.048 29.635,102.743 30.144 C 102.839 30.214,103.442 30.487,104.083 30.751 C 104.725 31.014,105.513 31.376,105.833 31.554 C 106.154 31.732,106.987 32.165,107.684 32.517 C 109.146 33.256,111.942 35.157,113.604 36.542 C 114.016 36.885,114.412 37.167,114.483 37.167 C 114.666 37.167,116.290 38.779,118.349 41.007 C 120.973 43.846,121.225 44.153,121.904 45.333 C 122.843 46.965,123.205 47.539,123.704 48.183 C 124.176 48.793,125.667 51.677,125.667 51.980 C 125.667 52.129,126.570 54.140,127.446 55.942 C 127.771 56.611,128.264 58.588,128.669 60.844 C 128.843 61.812,129.072 62.825,129.179 63.094 C 129.841 64.761,129.724 74.603,129.008 77.500 C 128.838 78.188,128.646 79.200,128.582 79.750 C 128.518 80.300,128.372 80.937,128.257 81.166 C 128.142 81.396,127.956 82.068,127.842 82.660 C 127.729 83.252,127.493 83.918,127.318 84.141 C 127.143 84.363,127.000 84.644,127.000 84.766 C 127.000 84.887,126.658 85.683,126.240 86.535 C 123.711 91.683,122.432 93.859,121.136 95.216 C 120.768 95.601,120.310 96.142,120.118 96.417 C 119.095 97.880,114.465 102.827,114.113 102.832 C 113.994 102.833,113.035 103.488,111.254 104.783 C 109.551 106.023,105.947 107.976,103.625 108.919 C 103.052 109.151,102.441 109.422,102.267 109.521 C 102.093 109.620,101.381 109.873,100.684 110.083 C 99.987 110.294,99.192 110.550,98.917 110.651 C 97.780 111.071,94.956 111.656,93.245 111.826 C 92.240 111.926,90.813 112.081,90.075 112.171 C 88.341 112.381,85.729 112.378,83.695 112.163 C 78.921 111.659,78.881 111.651,74.583 110.403 C 72.744 109.869,69.516 108.514,67.417 107.395 C 67.142 107.249,66.392 106.863,65.750 106.537 C 65.108 106.212,64.356 105.750,64.078 105.510 C 63.800 105.270,63.050 104.715,62.411 104.277 C 61.773 103.839,60.987 103.294,60.667 103.066 C 58.913 101.823,54.685 97.439,53.399 95.532 C 52.677 94.460,51.837 93.252,51.532 92.848 C 51.228 92.444,50.793 91.769,50.567 91.348 C 50.341 90.927,49.948 90.246,49.693 89.833 C 49.438 89.421,48.944 88.371,48.595 87.500 C 48.246 86.629,47.859 85.729,47.736 85.500 C 47.278 84.645,46.688 82.858,46.251 81.000 C 46.003 79.946,45.607 78.333,45.372 77.417 C 44.052 72.289,44.935 60.568,46.996 55.833 C 47.256 55.237,47.704 54.077,47.992 53.255 C 48.281 52.433,48.723 51.420,48.975 51.005 C 49.227 50.590,49.566 49.987,49.728 49.667 C 49.890 49.346,50.277 48.671,50.588 48.167 C 50.900 47.663,51.233 47.076,51.328 46.863 C 51.423 46.651,51.819 46.077,52.209 45.588 C 52.598 45.099,53.232 44.260,53.617 43.724 C 54.003 43.188,55.109 41.906,56.076 40.875 C 57.042 39.844,57.833 38.935,57.833 38.854 C 57.833 38.773,58.040 38.621,58.292 38.516 C 58.544 38.410,59.201 37.895,59.752 37.370 C 60.675 36.493,61.686 35.673,63.171 34.598 C 63.489 34.368,64.462 33.817,65.333 33.375 C 66.204 32.933,67.704 32.152,68.667 31.641 C 70.516 30.658,73.798 29.252,74.917 28.964 C 75.283 28.870,75.921 28.683,76.333 28.548 C 76.746 28.413,77.721 28.232,78.500 28.146 C 79.279 28.060,80.179 27.905,80.500 27.803 C 81.640 27.439,91.960 27.250,92.499 27.583 M207.583 45.453 C 207.400 45.498,207.137 45.630,207.000 45.747 C 206.862 45.865,206.585 46.011,206.384 46.072 C 204.900 46.524,203.610 48.993,203.693 51.224 C 203.936 57.806,212.875 58.848,214.734 52.511 C 215.969 48.305,211.992 44.379,207.583 45.453 M211.421 46.229 C 216.584 48.729,214.905 56.327,209.213 56.225 C 204.482 56.141,202.237 50.716,205.529 47.324 C 207.204 45.597,209.308 45.206,211.421 46.229 M67.417 48.780 C 66.481 48.989,64.364 49.751,63.990 50.013 C 63.755 50.177,63.380 50.358,63.157 50.414 C 62.065 50.691,58.915 53.830,57.885 55.667 C 56.376 58.354,55.490 63.735,56.142 66.250 C 56.237 66.617,56.384 67.188,56.468 67.520 C 56.553 67.852,56.775 68.452,56.963 68.854 C 57.150 69.255,57.394 69.827,57.505 70.125 C 57.616 70.423,57.765 70.667,57.835 70.667 C 57.906 70.667,58.011 70.853,58.068 71.080 C 58.125 71.307,58.377 71.712,58.627 71.979 C 60.302 73.765,60.720 74.152,61.600 74.733 C 62.141 75.091,62.782 75.518,63.025 75.684 C 63.268 75.850,63.680 76.036,63.942 76.097 C 64.203 76.159,64.642 76.341,64.917 76.502 C 66.923 77.678,73.779 77.683,75.244 76.510 C 76.253 75.702,76.888 76.523,76.167 77.704 C 75.984 78.004,75.834 78.371,75.834 78.519 C 75.832 79.474,73.000 82.588,71.690 83.076 C 71.310 83.218,70.681 83.453,70.292 83.600 C 69.321 83.965,67.246 83.799,65.905 83.248 C 64.285 82.581,63.852 82.660,62.905 83.792 C 62.463 84.319,61.723 85.167,61.259 85.676 C 59.463 87.650,59.118 88.103,58.986 88.667 C 58.807 89.432,59.072 89.825,60.108 90.328 C 60.553 90.544,61.104 90.812,61.333 90.923 C 65.998 93.193,74.058 93.125,76.960 90.792 C 77.076 90.699,77.388 90.501,77.654 90.353 C 77.920 90.205,78.449 89.911,78.829 89.700 C 80.792 88.610,84.290 83.976,84.989 81.537 C 85.064 81.277,85.238 80.843,85.376 80.574 C 85.514 80.304,85.682 79.756,85.748 79.356 C 85.815 78.955,86.007 78.317,86.175 77.937 C 86.343 77.556,86.564 76.571,86.666 75.748 C 86.768 74.924,86.921 73.940,87.006 73.560 C 88.356 67.509,86.662 57.858,83.597 54.142 C 81.466 51.559,79.088 50.165,74.833 49.006 C 73.639 48.681,68.553 48.526,67.417 48.780 M99.417 48.776 C 95.854 49.685,92.133 52.391,90.305 55.400 C 89.603 56.556,88.667 59.079,88.667 59.816 C 88.667 60.080,88.546 60.924,88.397 61.690 C 88.123 63.112,88.176 64.152,88.679 67.167 C 89.233 70.488,93.111 75.048,96.295 76.122 C 96.729 76.268,97.233 76.481,97.417 76.595 C 98.456 77.244,103.494 77.751,104.614 77.319 C 104.872 77.220,105.524 77.067,106.062 76.979 C 106.600 76.891,107.334 76.670,107.693 76.487 C 108.960 75.840,108.993 76.569,107.804 78.944 C 105.756 83.033,101.892 84.854,98.472 83.341 C 96.533 82.483,95.614 82.884,93.738 85.407 C 93.470 85.768,92.984 86.330,92.659 86.657 C 91.044 88.276,90.791 89.014,91.596 89.751 C 92.189 90.294,94.736 91.500,95.291 91.500 C 95.461 91.500,95.671 91.571,95.758 91.657 C 95.976 91.874,99.491 92.617,100.917 92.747 C 103.695 93.002,108.163 91.721,110.748 89.929 C 112.846 88.474,115.155 86.017,115.422 84.956 C 115.481 84.719,115.673 84.395,115.848 84.236 C 116.023 84.078,116.167 83.888,116.167 83.815 C 116.167 83.742,116.354 83.405,116.583 83.067 C 116.813 82.730,117.000 82.333,117.001 82.185 C 117.002 82.037,117.121 81.692,117.266 81.417 C 117.627 80.731,118.452 78.230,118.585 77.417 C 118.645 77.050,118.797 76.412,118.923 76.000 C 119.985 72.518,119.786 63.166,118.575 59.638 C 118.344 58.966,118.053 58.063,117.928 57.631 C 117.802 57.198,117.542 56.645,117.350 56.400 C 117.157 56.155,117.000 55.860,117.000 55.744 C 117.000 55.395,114.922 52.958,114.091 52.333 C 113.664 52.012,113.188 51.627,113.032 51.478 C 112.531 50.994,109.960 49.795,108.333 49.287 C 106.789 48.804,100.679 48.454,99.417 48.776 M288.661 48.968 C 287.894 49.341,287.833 49.715,287.833 54.085 C 287.833 57.938,287.816 58.164,287.511 58.327 C 287.305 58.438,284.934 58.500,280.959 58.500 C 274.865 58.500,274.721 58.508,274.355 58.849 C 273.686 59.472,273.664 59.793,273.666 68.723 C 273.669 79.782,273.645 79.931,271.537 81.979 C 268.650 84.783,264.563 84.047,263.026 80.445 L 262.587 79.417 262.502 69.359 L 262.417 59.302 261.917 58.902 C 261.206 58.333,254.123 58.274,253.213 58.829 C 252.448 59.295,252.470 58.915,252.542 70.684 L 252.607 81.417 253.151 83.333 C 253.968 86.217,255.620 88.629,257.500 89.686 C 257.821 89.866,258.334 90.195,258.640 90.417 C 260.758 91.952,266.567 92.678,268.847 91.693 C 270.960 90.780,271.858 90.228,272.930 89.181 C 273.405 88.717,273.667 89.013,273.667 90.016 C 273.667 90.703,273.739 90.862,274.254 91.315 L 274.842 91.831 278.751 91.827 C 282.627 91.823,282.665 91.819,283.122 91.426 L 283.583 91.029 283.538 78.920 C 283.484 64.469,283.254 65.833,285.749 65.833 C 288.010 65.833,287.792 64.919,287.866 74.705 C 287.922 82.165,287.960 83.154,288.214 83.729 C 288.372 84.084,288.501 84.496,288.502 84.645 C 288.504 84.795,288.614 85.104,288.747 85.333 C 288.880 85.563,289.137 86.064,289.317 86.448 C 289.679 87.216,289.733 87.286,291.103 88.792 C 291.624 89.365,292.144 89.833,292.258 89.833 C 292.371 89.833,292.500 89.927,292.545 90.042 C 292.879 90.911,296.612 92.064,299.083 92.061 C 301.696 92.058,305.201 91.056,305.760 90.151 C 305.813 90.065,306.118 89.886,306.438 89.752 C 307.268 89.405,308.149 88.515,308.263 87.908 C 308.383 87.269,307.925 86.220,306.721 84.376 C 306.407 83.895,306.068 83.257,305.969 82.959 C 305.505 81.574,304.812 81.371,303.689 82.292 C 301.683 83.937,299.263 83.775,298.264 81.929 L 297.784 81.042 297.816 73.682 C 297.834 69.633,297.891 66.211,297.942 66.077 C 298.020 65.875,298.592 65.833,301.309 65.830 C 305.727 65.825,305.667 65.877,305.667 62.102 C 305.667 58.456,305.718 58.500,301.486 58.500 C 299.947 58.500,298.496 58.427,298.261 58.337 L 297.833 58.175 297.833 54.095 C 297.833 49.722,297.768 49.313,297.020 49.015 C 296.330 48.740,289.214 48.700,288.661 48.968 M75.167 49.581 C 81.005 51.136,84.093 54.067,85.877 59.750 C 88.347 67.617,86.446 80.222,81.888 86.196 C 77.286 92.228,68.567 93.912,61.053 90.220 C 58.667 89.048,58.621 89.277,61.985 85.524 C 62.589 84.849,63.146 84.188,63.223 84.054 C 63.660 83.292,64.296 83.174,65.559 83.619 C 70.209 85.260,74.161 83.337,76.314 78.389 C 77.272 76.187,76.977 75.428,75.391 76.010 C 72.253 77.162,67.310 77.272,65.305 76.235 C 65.025 76.090,64.503 75.869,64.145 75.742 C 61.041 74.647,57.981 71.103,56.815 67.250 C 55.686 63.524,56.868 57.351,59.288 54.333 C 60.039 53.397,62.767 51.000,63.082 51.000 C 63.177 51.000,63.517 50.827,63.836 50.615 C 66.260 49.006,71.284 48.547,75.167 49.581 M107.250 49.486 C 112.307 50.902,115.186 53.044,117.063 56.788 C 117.395 57.450,117.667 58.097,117.667 58.225 C 117.667 58.353,117.816 58.796,117.999 59.210 C 119.585 62.795,119.729 69.807,118.358 76.667 C 118.130 77.807,117.396 80.188,117.099 80.750 C 116.954 81.025,116.835 81.352,116.834 81.477 C 116.833 81.687,116.430 82.472,115.239 84.583 C 111.234 91.681,102.207 94.118,93.606 90.423 C 90.840 89.235,90.889 89.067,95.417 84.246 L 96.417 83.182 97.667 83.600 C 102.146 85.097,105.921 83.582,108.111 79.407 C 109.816 76.156,109.539 75.170,107.198 76.165 C 101.365 78.643,93.253 75.716,90.308 70.070 C 87.449 64.590,88.565 56.870,92.776 53.000 C 93.757 52.098,95.231 51.000,95.460 51.000 C 95.551 51.000,95.720 50.887,95.835 50.748 C 96.233 50.269,98.378 49.478,100.138 49.162 C 101.662 48.888,105.788 49.076,107.250 49.486 M294.333 49.319 C 297.675 49.353,297.377 48.893,297.399 54.060 C 297.422 59.503,297.035 59.000,301.200 59.000 C 305.343 59.000,305.167 58.861,305.167 62.137 C 305.167 64.230,305.133 64.498,304.821 64.894 L 304.476 65.333 301.264 65.333 C 296.927 65.333,297.417 64.286,297.417 73.560 C 297.417 81.617,297.448 81.937,298.306 82.893 C 299.518 84.243,302.307 84.154,303.856 82.716 C 304.343 82.263,305.123 82.238,305.348 82.667 C 305.420 82.804,305.586 83.142,305.717 83.417 C 305.849 83.692,306.388 84.659,306.916 85.566 C 308.022 87.467,308.073 87.820,307.349 88.568 C 306.357 89.591,303.672 90.940,301.804 91.353 C 295.154 92.826,289.016 88.634,288.487 82.260 C 288.410 81.338,288.345 77.348,288.341 73.393 C 288.332 64.636,288.583 65.417,285.771 65.417 C 282.940 65.417,283.265 63.789,283.167 78.459 L 283.083 90.907 282.667 91.122 C 282.354 91.284,281.322 91.327,278.547 91.294 C 274.123 91.241,274.229 91.285,274.287 89.535 C 274.338 87.956,273.478 87.379,272.842 88.567 C 272.618 88.986,271.520 89.845,270.327 90.535 C 266.012 93.031,258.694 91.414,255.558 87.271 C 253.237 84.205,253.125 83.452,253.043 70.309 L 252.976 59.702 253.353 59.351 C 253.713 59.015,253.897 59.000,257.519 59.000 L 261.309 59.000 261.642 59.423 C 261.964 59.833,261.975 60.119,261.992 68.714 C 262.011 77.709,262.093 79.186,262.659 80.682 C 264.708 86.102,272.617 84.641,274.023 78.583 C 274.155 78.017,274.228 74.855,274.253 68.704 C 274.288 60.285,274.311 59.635,274.588 59.329 C 274.874 59.012,275.127 59.000,281.264 59.000 L 287.642 59.000 287.988 58.561 C 288.316 58.143,288.333 57.917,288.333 54.003 C 288.333 48.991,288.251 49.158,290.667 49.248 C 291.354 49.274,293.004 49.306,294.333 49.319 M69.750 56.980 C 66.415 57.858,64.722 60.827,65.395 64.619 C 66.638 71.632,77.572 70.412,77.562 63.260 C 77.557 59.121,73.625 55.960,69.750 56.980 M102.083 56.980 C 96.523 58.446,95.858 66.767,101.133 68.859 C 105.384 70.544,109.750 67.702,109.750 63.250 C 109.750 58.989,106.023 55.942,102.083 56.980 M73.013 57.548 C 74.825 58.313,76.658 59.989,76.673 60.894 C 76.676 61.090,76.786 61.438,76.917 61.667 C 77.598 62.858,76.936 66.021,75.793 67.035 C 72.130 70.285,66.406 68.797,65.785 64.433 C 65.495 62.399,65.737 60.869,66.512 59.837 C 66.872 59.358,67.167 58.912,67.167 58.845 C 67.167 58.778,67.373 58.620,67.625 58.494 C 67.877 58.368,68.208 58.162,68.361 58.036 C 69.337 57.232,71.683 56.986,73.013 57.548 M104.827 57.426 C 109.189 58.419,111.037 64.108,107.945 67.027 C 105.473 69.361,101.264 69.348,99.217 67.000 C 97.493 65.023,97.429 61.353,99.087 59.564 C 99.314 59.319,99.500 59.067,99.500 59.004 C 99.500 58.034,102.973 57.005,104.827 57.426 M164.167 58.237 C 162.757 58.503,161.251 59.236,159.260 60.625 C 158.154 61.396,158.000 61.352,158.000 60.265 C 158.000 59.462,157.943 59.315,157.487 58.931 L 156.974 58.500 153.058 58.500 L 149.141 58.500 148.654 58.987 C 148.359 59.282,148.161 59.661,148.152 59.946 C 147.939 66.930,148.232 90.798,148.535 91.120 C 149.346 91.984,156.695 92.168,157.570 91.346 L 158.000 90.942 158.000 82.224 C 158.000 72.582,158.076 71.674,159.038 69.843 C 160.721 66.641,165.234 65.437,167.292 67.641 C 168.711 69.160,168.825 70.127,168.886 81.169 C 168.940 90.981,168.945 91.042,169.662 91.545 C 170.221 91.936,177.607 91.776,178.164 91.361 L 178.583 91.048 178.671 81.899 C 178.767 71.956,178.937 70.176,179.849 69.537 C 180.025 69.414,180.279 69.099,180.415 68.837 C 180.663 68.358,181.603 67.642,182.889 66.955 C 183.918 66.404,186.270 66.434,187.327 67.011 C 188.349 67.569,189.176 68.732,189.718 70.373 L 190.172 71.750 190.175 81.250 C 190.177 88.985,190.219 90.805,190.403 91.048 C 190.794 91.563,191.642 91.667,195.465 91.667 L 199.182 91.667 199.591 91.258 L 200.000 90.848 200.000 79.836 C 200.000 67.924,199.949 67.189,199.004 65.583 C 198.842 65.308,198.659 64.869,198.597 64.608 C 198.129 62.624,194.743 59.843,191.333 58.643 C 189.890 58.135,184.159 58.060,183.167 58.537 C 182.846 58.691,182.208 58.957,181.750 59.128 C 181.292 59.299,180.579 59.657,180.167 59.924 C 179.754 60.190,179.154 60.531,178.833 60.682 C 178.512 60.832,177.653 61.555,176.922 62.289 L 175.595 63.623 174.922 62.773 C 171.989 59.062,168.216 57.471,164.167 58.237 M235.720 58.191 C 233.593 58.341,231.086 59.240,230.266 60.148 C 230.091 60.342,229.858 60.500,229.747 60.500 C 229.637 60.500,229.271 60.687,228.935 60.915 L 228.324 61.330 228.162 60.903 C 228.072 60.669,228.044 60.300,228.098 60.084 C 228.436 58.736,227.694 58.500,223.113 58.500 L 219.404 58.500 218.865 58.958 L 218.325 59.417 218.323 75.167 L 218.320 90.917 218.824 91.370 L 219.327 91.823 223.122 91.777 C 225.557 91.747,227.041 91.663,227.264 91.541 C 228.110 91.079,228.078 91.463,228.167 80.766 L 228.250 70.750 228.711 69.667 C 230.758 64.860,238.243 64.920,239.089 69.750 C 239.154 70.117,239.311 70.829,239.440 71.333 C 239.627 72.069,239.670 74.093,239.660 81.568 C 239.647 90.606,239.656 90.897,239.972 91.213 C 240.276 91.517,240.585 91.543,244.387 91.585 L 248.475 91.631 248.863 91.219 L 249.250 90.807 249.300 80.445 C 249.354 69.301,249.354 69.298,248.462 66.503 C 247.819 64.490,247.376 63.690,245.951 61.973 C 243.687 59.243,240.021 57.888,235.720 58.191 M321.000 58.251 C 318.927 58.535,316.384 59.417,315.000 60.334 C 314.771 60.485,314.145 60.899,313.610 61.252 C 312.204 62.180,309.500 64.948,309.500 65.458 C 309.500 65.559,309.325 65.853,309.112 66.112 C 307.086 68.573,305.999 75.679,307.073 79.435 C 307.486 80.878,307.846 81.906,308.089 82.333 C 308.219 82.563,308.477 83.050,308.663 83.417 C 310.493 87.031,315.196 90.705,319.000 91.493 C 319.504 91.598,320.292 91.761,320.750 91.856 C 321.828 92.080,326.884 92.079,327.750 91.854 C 328.117 91.759,328.895 91.562,329.480 91.416 C 332.518 90.657,337.808 86.789,338.654 84.708 C 338.775 84.410,338.921 84.167,338.979 84.166 C 339.120 84.166,340.049 82.309,340.497 81.133 C 342.264 76.489,341.459 69.142,338.802 65.667 C 337.314 63.720,336.775 63.092,336.144 62.567 C 335.744 62.233,335.379 61.913,335.333 61.854 C 334.839 61.225,331.595 59.463,330.225 59.079 C 329.689 58.929,328.950 58.703,328.583 58.576 C 328.217 58.449,326.862 58.268,325.574 58.173 C 322.863 57.973,323.057 57.970,321.000 58.251 M353.000 58.190 C 349.334 58.490,345.462 60.495,343.639 63.034 C 340.559 67.327,342.161 74.642,346.497 76.082 C 346.955 76.234,347.366 76.419,347.411 76.492 C 347.612 76.816,352.034 78.667,352.608 78.667 C 352.902 78.667,354.958 79.443,355.250 79.664 C 355.342 79.733,355.683 79.876,356.009 79.980 C 357.960 80.608,358.978 83.087,357.543 83.716 C 357.290 83.827,356.862 84.068,356.590 84.251 C 355.429 85.034,349.883 84.045,347.667 82.659 C 347.411 82.499,346.134 81.773,345.353 81.344 C 344.244 80.734,343.207 81.307,342.330 83.011 C 342.162 83.338,341.901 83.708,341.750 83.833 C 341.599 83.959,341.339 84.329,341.172 84.656 C 341.005 84.982,340.711 85.393,340.518 85.567 C 339.861 86.161,340.040 86.874,341.042 87.649 C 341.523 88.022,342.031 88.436,342.171 88.570 C 342.499 88.884,344.097 89.665,345.583 90.239 C 346.225 90.487,346.975 90.791,347.250 90.915 C 347.525 91.038,348.050 91.191,348.417 91.254 C 348.783 91.318,349.683 91.522,350.417 91.708 C 354.275 92.688,359.637 92.066,362.326 90.328 C 364.465 88.945,364.822 88.631,365.679 87.367 C 366.430 86.259,366.741 85.618,367.156 84.321 C 367.713 82.578,367.463 78.381,366.721 77.004 C 365.954 75.583,363.762 73.500,363.032 73.500 C 362.971 73.500,362.545 73.318,362.086 73.096 C 360.234 72.202,359.385 71.858,358.750 71.743 C 358.383 71.677,358.008 71.566,357.917 71.495 C 357.825 71.425,357.346 71.248,356.851 71.102 C 351.839 69.624,349.924 67.660,352.212 66.345 C 354.234 65.183,358.945 65.957,361.751 67.913 C 362.027 68.105,362.497 68.242,362.880 68.242 C 363.570 68.242,363.747 68.097,364.417 66.981 C 364.600 66.676,364.915 66.161,365.117 65.838 C 365.319 65.515,365.577 65.063,365.690 64.833 C 365.804 64.604,366.036 64.259,366.205 64.066 C 367.122 63.021,366.210 60.667,364.889 60.667 C 364.833 60.667,364.141 60.356,363.352 59.977 C 360.896 58.797,356.102 57.699,354.833 58.025 C 354.787 58.037,353.962 58.111,353.000 58.190 M205.350 58.599 C 204.360 59.017,204.421 58.028,204.369 74.513 C 204.317 90.904,204.327 91.122,205.086 91.486 C 206.054 91.950,213.137 91.879,213.615 91.400 L 214.000 91.015 214.000 75.184 L 214.000 59.352 213.625 58.930 L 213.250 58.507 209.517 58.462 C 207.083 58.432,205.633 58.480,205.350 58.599 M168.250 58.752 C 170.149 59.153,172.210 60.364,173.539 61.861 C 173.973 62.350,174.581 63.045,174.890 63.405 C 175.501 64.116,176.348 64.075,176.587 63.322 C 176.722 62.896,178.945 61.006,179.663 60.707 C 179.986 60.572,180.438 60.331,180.667 60.171 C 183.544 58.161,189.567 58.038,193.303 59.913 C 195.907 61.220,197.812 63.358,198.652 65.917 C 199.712 69.146,199.667 68.524,199.667 79.824 C 199.667 90.525,199.640 90.979,199.006 91.193 C 198.498 91.365,190.999 91.066,190.800 90.867 C 190.629 90.696,190.566 88.528,190.500 80.617 L 190.416 70.583 189.936 69.446 C 187.833 64.473,180.942 65.205,178.861 70.623 L 178.427 71.750 178.368 81.281 C 178.317 89.505,178.275 90.841,178.059 91.020 C 177.582 91.416,170.075 91.360,169.711 90.957 C 169.439 90.657,169.410 89.888,169.322 80.774 C 169.218 70.032,169.192 69.742,168.168 68.086 C 166.248 64.979,160.916 65.728,158.773 69.405 C 157.768 71.130,157.783 70.971,157.679 81.203 C 157.590 89.980,157.562 90.676,157.286 90.953 C 156.755 91.482,149.423 91.398,148.985 90.857 C 148.677 90.476,148.667 89.979,148.667 75.141 L 148.667 59.818 149.076 59.409 L 149.485 59.000 153.141 59.000 C 157.513 59.000,157.434 58.970,157.640 60.706 C 157.830 62.309,158.033 62.359,159.354 61.125 C 161.577 59.049,165.145 58.097,168.250 58.752 M240.713 59.074 C 244.925 60.654,247.243 63.240,248.340 67.583 L 248.806 69.427 248.890 79.750 C 248.959 88.258,248.934 90.170,248.745 90.620 L 248.517 91.167 244.550 91.164 C 242.344 91.163,240.472 91.091,240.333 91.004 C 240.117 90.867,240.071 89.472,239.993 80.715 C 239.893 69.380,239.923 69.670,238.607 67.700 C 235.979 63.768,229.159 65.613,227.950 70.583 C 227.861 70.950,227.742 75.625,227.686 80.973 L 227.583 90.696 227.208 91.000 C 226.657 91.446,219.710 91.474,219.164 91.032 L 218.814 90.748 218.828 75.174 C 218.841 61.036,218.868 59.572,219.114 59.300 C 219.360 59.028,219.738 59.000,223.155 59.000 C 227.675 59.000,227.667 58.997,227.667 60.484 C 227.667 61.752,228.107 62.269,228.710 61.708 C 231.708 58.921,237.132 57.731,240.713 59.074 M326.877 58.748 C 328.991 59.088,331.316 59.870,332.971 60.796 C 334.327 61.556,336.833 63.552,336.833 63.872 C 336.833 63.960,337.077 64.260,337.375 64.539 C 338.310 65.411,339.625 67.833,340.383 70.079 C 341.146 72.339,341.176 77.799,340.438 80.000 C 337.560 88.585,329.815 92.974,320.417 91.347 C 318.073 90.941,313.788 89.037,313.246 88.161 C 313.187 88.064,312.752 87.680,312.280 87.307 C 309.604 85.191,307.479 80.855,307.178 76.897 C 306.753 71.302,308.264 66.892,311.827 63.325 C 315.651 59.495,321.143 57.825,326.877 58.748 M358.000 58.743 C 359.820 59.021,361.224 59.452,363.000 60.279 C 366.815 62.055,366.811 62.047,365.311 64.634 C 364.742 65.615,364.121 66.694,363.931 67.034 C 363.313 68.133,362.816 68.170,361.548 67.209 C 359.195 65.426,353.457 64.792,351.712 66.123 C 349.409 67.881,350.951 69.538,356.667 71.448 C 365.196 74.297,367.050 76.014,367.073 81.083 C 367.113 90.108,357.619 94.304,346.559 90.150 C 341.988 88.433,339.804 86.666,340.960 85.619 C 341.122 85.473,341.778 84.565,342.418 83.600 C 343.875 81.407,344.539 81.072,345.583 82.002 C 347.332 83.557,354.246 85.548,355.959 84.988 C 358.664 84.104,359.497 82.227,357.862 80.699 C 357.138 80.022,354.086 78.542,353.105 78.392 C 352.726 78.334,352.201 78.178,351.937 78.045 C 351.673 77.912,351.108 77.699,350.681 77.572 C 345.891 76.150,342.695 73.030,342.409 69.497 C 341.818 62.210,348.864 57.350,358.000 58.743 M213.362 59.276 C 213.653 59.539,213.667 60.251,213.667 75.189 L 213.667 90.826 213.262 91.091 C 212.685 91.469,205.483 91.389,205.095 91.000 C 204.887 90.791,204.695 68.702,204.827 59.970 C 204.841 59.035,204.999 59.000,209.207 59.000 C 212.556 59.000,213.097 59.036,213.362 59.276 M321.969 66.401 C 314.418 68.580,313.899 80.947,321.249 83.568 C 328.406 86.120,334.290 78.858,331.315 71.145 C 329.911 67.505,325.646 65.340,321.969 66.401 M326.577 66.992 C 326.940 67.180,327.318 67.333,327.417 67.333 C 327.791 67.333,329.987 69.534,330.474 70.397 C 332.819 74.551,331.814 79.506,328.009 82.558 C 326.308 83.922,321.457 83.915,320.034 82.546 C 319.865 82.383,319.454 82.038,319.122 81.780 C 316.992 80.125,315.815 75.857,316.673 72.903 C 317.456 70.207,319.216 67.827,320.795 67.326 C 321.137 67.218,321.574 67.031,321.767 66.911 C 322.583 66.400,325.526 66.450,326.577 66.992 " stroke="none" fill="#a6aba0" fill-rule="evenodd"></path><path id="path4" d="M207.917 45.809 C 202.044 47.739,203.086 56.116,209.213 56.225 C 213.926 56.310,216.241 50.857,213.014 47.271 C 211.959 46.098,209.332 45.344,207.917 45.809 M211.213 46.585 C 215.095 48.474,215.223 53.382,211.441 55.351 C 209.093 56.573,204.833 54.999,204.833 52.909 C 204.833 52.798,204.721 52.614,204.583 52.500 C 204.175 52.161,204.250 50.213,204.709 49.225 C 206.023 46.394,208.638 45.333,211.213 46.585 M67.328 49.312 C 65.735 49.692,64.574 50.125,63.836 50.615 C 63.517 50.827,63.177 51.000,63.082 51.000 C 62.767 51.000,60.039 53.397,59.288 54.333 C 56.868 57.351,55.686 63.524,56.815 67.250 C 57.981 71.103,61.041 74.647,64.145 75.742 C 64.503 75.869,65.025 76.090,65.305 76.235 C 67.310 77.272,72.253 77.162,75.391 76.010 C 76.977 75.428,77.272 76.187,76.314 78.389 C 74.161 83.337,70.209 85.260,65.559 83.619 C 64.296 83.174,63.660 83.292,63.223 84.054 C 63.146 84.188,62.589 84.849,61.985 85.524 C 58.621 89.277,58.667 89.048,61.053 90.220 C 71.307 95.258,81.859 90.577,85.217 79.500 C 87.016 73.567,87.485 65.750,86.312 61.250 C 84.553 54.500,81.454 51.255,75.167 49.581 C 72.862 48.967,69.288 48.845,67.328 49.312 M100.138 49.162 C 98.378 49.478,96.233 50.269,95.835 50.748 C 95.720 50.887,95.551 51.000,95.460 51.000 C 95.231 51.000,93.757 52.098,92.776 53.000 C 88.565 56.870,87.449 64.590,90.308 70.070 C 93.253 75.716,101.365 78.643,107.198 76.165 C 109.539 75.170,109.816 76.156,108.111 79.407 C 105.921 83.582,102.146 85.097,97.667 83.600 L 96.417 83.182 95.417 84.246 C 90.889 89.067,90.840 89.235,93.606 90.423 C 102.207 94.118,111.234 91.681,115.239 84.583 C 116.430 82.472,116.833 81.687,116.834 81.477 C 116.835 81.352,116.954 81.025,117.099 80.750 C 118.587 77.931,119.716 69.306,119.194 64.750 C 118.961 62.708,118.403 60.121,117.999 59.210 C 117.816 58.796,117.667 58.353,117.667 58.225 C 117.667 57.108,115.437 53.985,113.557 52.469 C 110.275 49.822,104.452 48.387,100.138 49.162 M289.167 49.289 C 288.341 49.579,288.333 49.620,288.333 54.003 C 288.333 57.917,288.316 58.143,287.988 58.561 L 287.642 59.000 281.264 59.000 C 275.127 59.000,274.874 59.012,274.588 59.329 C 274.311 59.635,274.288 60.285,274.253 68.704 C 274.228 74.855,274.155 78.017,274.023 78.583 C 272.617 84.641,264.708 86.102,262.659 80.682 C 262.093 79.186,262.011 77.709,261.992 68.714 C 261.975 60.119,261.964 59.833,261.642 59.423 L 261.309 59.000 257.519 59.000 C 253.897 59.000,253.713 59.015,253.353 59.351 L 252.976 59.702 253.043 70.309 C 253.125 83.452,253.237 84.205,255.558 87.271 C 258.694 91.414,266.012 93.031,270.327 90.535 C 271.520 89.845,272.618 88.986,272.842 88.567 C 273.478 87.379,274.338 87.956,274.287 89.535 C 274.229 91.285,274.123 91.241,278.547 91.294 C 281.322 91.327,282.354 91.284,282.667 91.122 L 283.083 90.907 283.167 78.459 C 283.265 63.789,282.940 65.417,285.771 65.417 C 288.583 65.417,288.332 64.636,288.341 73.393 C 288.345 77.348,288.410 81.338,288.487 82.260 C 289.016 88.634,295.154 92.826,301.804 91.353 C 303.232 91.037,303.718 90.829,306.119 89.500 C 308.095 88.406,308.217 87.804,306.916 85.566 C 306.388 84.659,305.849 83.692,305.717 83.417 C 305.586 83.142,305.420 82.804,305.348 82.667 C 305.123 82.238,304.343 82.263,303.856 82.716 C 302.307 84.154,299.518 84.243,298.306 82.893 C 297.448 81.937,297.417 81.617,297.417 73.560 C 297.417 64.286,296.927 65.333,301.264 65.333 L 304.476 65.333 304.821 64.894 C 305.133 64.498,305.167 64.230,305.167 62.137 C 305.167 58.861,305.343 59.000,301.200 59.000 C 297.035 59.000,297.422 59.503,297.399 54.060 C 297.377 48.893,297.675 49.353,294.333 49.319 C 293.004 49.306,291.354 49.274,290.667 49.248 C 289.979 49.222,289.304 49.241,289.167 49.289 M73.667 49.666 C 75.222 50.012,77.609 50.699,77.911 50.888 C 78.098 51.005,78.569 51.202,78.958 51.327 C 79.348 51.451,79.667 51.614,79.667 51.689 C 79.667 51.764,79.873 51.936,80.125 52.073 C 80.628 52.345,82.073 53.700,83.019 54.785 C 84.140 56.072,84.608 57.088,85.829 60.886 C 86.658 63.464,86.717 73.248,85.916 75.301 C 85.784 75.640,85.604 76.379,85.516 76.944 C 85.428 77.510,85.248 78.185,85.115 78.444 C 84.982 78.704,84.818 79.244,84.752 79.643 C 84.235 82.753,80.287 88.174,77.559 89.522 C 77.206 89.696,76.692 89.960,76.417 90.109 C 75.014 90.865,74.510 91.042,72.626 91.437 C 69.464 92.100,65.511 91.728,62.623 90.495 C 61.959 90.212,61.248 89.910,61.042 89.824 C 59.247 89.073,59.269 88.993,62.092 85.970 C 62.579 85.450,63.105 84.827,63.263 84.587 C 63.846 83.698,64.240 83.641,66.089 84.179 C 67.924 84.713,69.213 84.785,70.250 84.412 C 70.617 84.280,71.037 84.171,71.185 84.169 C 71.972 84.162,75.167 81.824,75.167 81.255 C 75.167 81.157,75.387 80.808,75.657 80.481 C 75.926 80.154,76.199 79.668,76.263 79.402 C 76.326 79.135,76.473 78.804,76.589 78.667 C 76.898 78.301,77.165 77.199,77.166 76.286 C 77.167 75.122,76.835 75.054,74.833 75.810 L 73.250 76.408 70.000 76.406 L 66.750 76.405 65.221 75.783 C 62.655 74.738,62.111 74.377,60.275 72.503 C 58.905 71.105,57.669 69.223,57.667 68.533 C 57.667 68.413,57.498 67.963,57.292 67.533 C 56.773 66.450,56.714 60.377,57.215 59.614 C 57.379 59.364,57.591 58.729,57.688 58.204 C 57.784 57.680,57.968 57.133,58.096 56.989 C 58.224 56.846,58.419 56.471,58.528 56.156 C 59.580 53.123,64.750 49.936,69.417 49.443 C 70.146 49.366,72.987 49.515,73.667 49.666 M107.833 50.126 C 108.979 50.449,110.067 50.808,110.250 50.922 C 110.433 51.036,110.846 51.214,111.167 51.318 C 111.487 51.421,112.237 51.914,112.833 52.413 C 113.429 52.912,114.104 53.442,114.333 53.591 C 114.844 53.923,116.339 56.027,116.627 56.817 C 116.742 57.135,116.939 57.512,117.064 57.656 C 117.189 57.799,117.344 58.213,117.409 58.576 C 117.475 58.938,117.661 59.500,117.824 59.826 C 117.987 60.151,118.169 60.909,118.228 61.510 C 118.288 62.111,118.485 63.028,118.668 63.547 C 119.145 64.903,119.160 70.857,118.691 72.501 C 118.521 73.096,118.327 74.218,118.260 74.993 C 118.190 75.795,117.964 76.864,117.736 77.471 C 117.514 78.059,117.333 78.789,117.333 79.093 C 117.333 79.398,117.259 79.693,117.169 79.749 C 117.078 79.805,116.882 80.278,116.733 80.800 C 116.583 81.323,116.366 81.862,116.250 82.000 C 116.133 82.137,115.889 82.550,115.707 82.917 C 114.937 84.470,114.740 84.799,114.014 85.738 C 113.337 86.613,112.484 87.495,110.950 88.904 C 110.693 89.140,110.389 89.333,110.274 89.333 C 110.159 89.333,109.732 89.541,109.324 89.794 C 105.626 92.095,99.561 92.397,94.955 90.512 C 91.835 89.234,91.629 88.932,92.950 87.566 C 93.390 87.111,94.342 86.046,95.066 85.199 C 95.957 84.156,96.468 83.685,96.649 83.738 C 100.178 84.777,100.911 84.846,102.909 84.335 C 104.809 83.849,106.940 82.316,107.750 80.853 C 107.934 80.521,108.247 79.987,108.445 79.667 C 108.938 78.871,109.667 76.893,109.667 76.351 C 109.667 75.186,108.993 75.000,107.333 75.705 C 101.512 78.179,93.041 75.212,90.568 69.833 C 90.420 69.512,90.122 68.860,89.906 68.384 C 88.858 66.076,88.960 60.278,90.091 57.885 C 90.316 57.410,90.500 56.918,90.500 56.793 C 90.500 56.058,93.274 52.747,94.436 52.096 C 94.700 51.948,95.254 51.581,95.667 51.280 C 96.079 50.979,96.979 50.534,97.667 50.291 C 100.833 49.171,104.252 49.115,107.833 50.126 M296.667 49.831 C 296.878 49.965,296.917 50.643,296.917 54.241 L 296.917 58.492 297.344 58.919 C 297.771 59.346,297.773 59.347,301.058 59.382 C 304.982 59.423,304.662 59.175,304.662 62.167 C 304.662 65.113,304.996 64.860,301.126 64.841 L 297.870 64.825 297.442 65.334 C 296.804 66.092,296.781 66.450,296.883 73.978 C 296.988 81.653,297.089 82.412,298.129 83.297 C 299.609 84.557,302.532 84.521,303.857 83.227 C 304.478 82.620,305.333 82.689,305.333 83.345 C 305.333 83.439,305.824 84.403,306.423 85.487 C 307.894 88.148,307.776 88.357,303.685 90.327 C 298.784 92.688,291.321 90.159,289.800 85.623 C 289.701 85.326,289.529 84.971,289.418 84.833 C 288.965 84.270,288.923 83.547,288.838 74.796 L 288.750 65.676 288.381 65.307 C 287.994 64.920,284.801 64.638,283.763 64.898 C 282.810 65.138,282.826 64.906,282.831 77.988 C 282.836 90.338,282.812 90.809,282.182 90.851 C 282.036 90.861,280.382 90.866,278.506 90.862 C 274.526 90.854,274.667 90.916,274.667 89.153 C 274.667 87.154,273.765 86.862,272.448 88.436 C 271.180 89.950,268.585 91.166,266.358 91.289 C 259.403 91.672,254.237 87.544,253.671 81.151 C 253.455 78.706,253.444 60.083,253.659 59.682 C 253.830 59.362,260.968 59.246,261.280 59.558 C 261.355 59.633,261.456 63.869,261.503 68.972 C 261.601 79.478,261.683 80.236,262.925 82.107 C 265.192 85.522,270.892 85.069,273.293 81.283 C 274.613 79.203,274.787 76.525,274.669 60.137 C 274.663 59.346,274.774 59.333,281.580 59.333 L 287.970 59.333 288.402 58.821 L 288.833 58.308 288.833 54.187 C 288.833 51.205,288.889 50.011,289.033 49.867 C 289.280 49.620,296.283 49.587,296.667 49.831 M69.500 56.657 C 65.252 57.438,63.264 63.567,66.067 67.239 C 68.390 70.283,73.288 70.514,76.262 67.720 C 79.307 64.860,78.116 58.940,74.106 57.009 C 73.206 56.575,70.900 56.399,69.500 56.657 M101.667 56.718 C 97.622 57.884,95.700 63.294,98.072 66.833 C 101.210 71.516,108.727 70.283,110.022 64.873 C 111.258 59.709,106.705 55.265,101.667 56.718 M73.993 57.425 C 80.123 60.740,78.111 69.145,71.167 69.232 C 66.328 69.293,63.462 63.706,66.176 59.505 C 67.760 57.056,71.480 56.065,73.993 57.425 M106.167 57.361 C 109.953 59.112,111.111 64.619,108.269 67.359 C 105.088 70.426,99.794 69.704,98.068 65.967 C 95.627 60.680,100.999 54.970,106.167 57.361 M163.833 58.762 C 162.496 59.112,160.227 60.309,159.354 61.125 C 158.033 62.359,157.830 62.309,157.640 60.706 C 157.434 58.970,157.513 59.000,153.141 59.000 L 149.485 59.000 149.076 59.409 L 148.667 59.818 148.667 75.141 C 148.667 89.979,148.677 90.476,148.985 90.857 C 149.423 91.398,156.755 91.482,157.286 90.953 C 157.562 90.676,157.590 89.980,157.679 81.203 C 157.783 70.971,157.768 71.130,158.773 69.405 C 160.916 65.728,166.248 64.979,168.168 68.086 C 169.192 69.742,169.218 70.032,169.322 80.774 C 169.410 89.888,169.439 90.657,169.711 90.957 C 170.075 91.360,177.582 91.416,178.059 91.020 C 178.275 90.841,178.317 89.505,178.368 81.281 L 178.427 71.750 178.861 70.623 C 180.942 65.205,187.833 64.473,189.936 69.446 L 190.416 70.583 190.500 80.617 C 190.566 88.528,190.629 90.696,190.800 90.867 C 190.999 91.066,198.498 91.365,199.006 91.193 C 199.640 90.979,199.667 90.525,199.667 79.824 C 199.667 68.524,199.712 69.146,198.652 65.917 C 197.812 63.358,195.907 61.220,193.303 59.913 C 189.567 58.038,183.544 58.161,180.667 60.171 C 180.438 60.331,179.986 60.572,179.663 60.707 C 178.945 61.006,176.722 62.896,176.587 63.322 C 176.348 64.075,175.501 64.116,174.890 63.405 C 172.769 60.937,172.160 60.414,170.250 59.428 C 168.577 58.565,165.719 58.268,163.833 58.762 M235.194 58.668 C 232.975 58.979,230.294 60.236,228.710 61.708 C 228.107 62.269,227.667 61.752,227.667 60.484 C 227.667 58.997,227.675 59.000,223.155 59.000 C 219.738 59.000,219.360 59.028,219.114 59.300 C 218.868 59.572,218.841 61.036,218.828 75.174 L 218.814 90.748 219.164 91.032 C 219.710 91.474,226.657 91.446,227.208 91.000 L 227.583 90.696 227.686 80.973 C 227.742 75.625,227.861 70.950,227.950 70.583 C 229.159 65.613,235.979 63.768,238.607 67.700 C 239.923 69.670,239.893 69.380,239.993 80.715 C 240.071 89.472,240.117 90.867,240.333 91.004 C 240.472 91.091,242.344 91.163,244.550 91.164 L 248.517 91.167 248.745 90.620 C 248.934 90.170,248.959 88.258,248.890 79.750 L 248.806 69.427 248.340 67.583 C 246.755 61.307,241.550 57.778,235.194 58.668 M320.218 58.845 C 319.376 59.022,318.127 59.383,317.442 59.646 C 312.888 61.400,309.342 65.181,307.840 69.885 C 305.884 76.009,307.876 83.826,312.280 87.307 C 312.752 87.680,313.187 88.064,313.246 88.161 C 313.788 89.037,318.073 90.941,320.417 91.347 C 329.815 92.974,337.560 88.585,340.438 80.000 C 341.176 77.799,341.146 72.339,340.383 70.079 C 339.625 67.833,338.310 65.411,337.375 64.539 C 337.077 64.260,336.833 63.960,336.833 63.872 C 336.833 63.552,334.327 61.556,332.971 60.796 C 329.380 58.785,324.245 58.000,320.218 58.845 M353.083 58.611 C 346.059 59.470,341.937 63.673,342.409 69.497 C 342.695 73.030,345.891 76.150,350.681 77.572 C 351.108 77.699,351.673 77.912,351.937 78.045 C 352.201 78.178,352.726 78.334,353.105 78.392 C 354.086 78.542,357.138 80.022,357.862 80.699 C 359.497 82.227,358.664 84.104,355.959 84.988 C 354.246 85.548,347.332 83.557,345.583 82.002 C 344.539 81.072,343.875 81.407,342.418 83.600 C 341.778 84.565,341.122 85.473,340.960 85.619 C 339.804 86.666,341.988 88.433,346.559 90.150 C 357.619 94.304,367.113 90.108,367.073 81.083 C 367.050 76.014,365.196 74.297,356.667 71.448 C 350.951 69.538,349.409 67.881,351.712 66.123 C 353.457 64.792,359.195 65.426,361.548 67.209 C 362.816 68.170,363.313 68.133,363.931 67.034 C 364.121 66.694,364.742 65.615,365.311 64.634 C 366.811 62.047,366.815 62.055,363.000 60.279 C 359.913 58.842,356.244 58.225,353.083 58.611 M167.702 59.079 C 169.309 59.322,170.708 59.908,171.573 60.703 C 171.751 60.866,171.982 61.000,172.088 61.000 C 172.302 61.000,173.830 62.672,174.453 63.589 C 175.186 64.668,176.205 64.685,176.830 63.628 C 177.204 62.995,179.517 61.000,179.876 61.000 C 180.010 61.000,180.374 60.828,180.685 60.618 C 183.065 59.008,188.927 58.501,191.750 59.661 C 195.578 61.234,197.439 63.259,198.645 67.167 L 199.236 69.083 199.292 79.490 C 199.333 87.139,199.296 90.021,199.154 90.365 L 198.960 90.833 195.187 90.833 C 191.458 90.833,191.411 90.829,191.165 90.458 C 190.953 90.139,190.913 88.734,190.894 80.917 C 190.866 69.535,190.792 69.019,188.944 67.193 C 186.145 64.430,180.819 65.716,178.850 69.631 C 178.077 71.167,178.011 72.116,178.005 81.771 C 178.001 88.886,177.959 90.493,177.773 90.647 C 177.433 90.930,170.239 90.972,169.960 90.693 C 169.798 90.531,169.731 88.196,169.667 80.450 C 169.605 73.041,169.531 70.329,169.382 70.083 C 169.272 69.900,169.066 69.326,168.924 68.808 C 168.296 66.509,165.909 65.342,163.035 65.929 C 160.205 66.507,158.030 68.765,157.496 71.678 C 157.361 72.416,157.304 75.324,157.315 81.000 C 157.329 88.808,157.258 90.309,156.854 90.712 C 156.512 91.055,149.648 90.928,149.389 90.574 C 148.956 89.982,149.072 60.094,149.509 59.657 C 149.837 59.330,150.007 59.317,153.349 59.366 C 157.283 59.423,157.160 59.380,157.164 60.697 C 157.170 62.517,158.352 63.095,159.250 61.718 C 159.768 60.924,162.568 59.461,164.250 59.107 C 165.748 58.791,165.785 58.790,167.702 59.079 M325.244 59.011 C 326.588 59.113,327.960 59.316,328.494 59.493 C 329.001 59.661,329.665 59.851,329.968 59.915 C 331.194 60.173,333.801 61.600,335.167 62.759 C 337.085 64.388,339.581 68.155,339.906 69.911 C 339.974 70.274,340.146 70.799,340.290 71.076 C 340.623 71.721,340.710 78.629,340.390 79.016 C 340.284 79.145,340.079 79.704,339.935 80.260 C 339.176 83.195,336.040 87.268,333.414 88.727 C 333.141 88.880,332.804 89.073,332.667 89.157 C 331.426 89.918,328.994 90.792,327.583 90.985 C 322.695 91.652,318.281 90.985,315.500 89.157 C 315.362 89.067,314.987 88.863,314.665 88.705 C 314.343 88.546,313.921 88.267,313.729 88.083 C 313.536 87.900,312.994 87.421,312.524 87.018 C 310.550 85.327,308.704 82.222,307.917 79.272 C 307.385 77.274,307.268 72.903,307.718 71.833 C 307.853 71.512,308.054 70.800,308.165 70.250 C 308.402 69.069,309.081 67.576,309.906 66.417 C 310.233 65.959,310.500 65.506,310.500 65.411 C 310.500 65.036,313.988 61.667,314.376 61.667 C 314.476 61.667,314.675 61.562,314.820 61.433 C 315.823 60.544,318.440 59.580,321.000 59.158 C 321.962 58.999,322.787 58.861,322.833 58.852 C 322.879 58.842,323.964 58.914,325.244 59.011 M358.192 59.183 C 359.659 59.369,361.531 60.014,363.923 61.156 C 366.161 62.225,366.188 62.296,365.078 64.239 C 364.603 65.070,364.072 66.009,363.899 66.325 C 363.198 67.601,362.920 67.680,361.807 66.914 C 361.339 66.592,360.759 66.282,360.519 66.225 C 360.280 66.169,359.708 65.951,359.250 65.742 C 354.636 63.637,348.769 65.717,350.596 68.810 C 350.883 69.296,352.572 70.500,352.967 70.500 C 353.103 70.500,353.522 70.647,353.898 70.826 C 354.995 71.348,357.033 72.106,357.667 72.227 C 358.755 72.436,362.192 73.959,364.036 75.050 C 365.438 75.880,366.759 78.481,366.940 80.773 C 367.180 83.791,364.985 87.892,362.351 89.350 C 362.020 89.533,361.563 89.791,361.333 89.923 C 356.817 92.530,347.881 91.369,341.898 87.397 C 340.791 86.662,340.773 86.423,341.738 85.238 C 342.144 84.739,342.711 83.921,342.998 83.420 C 343.914 81.819,344.486 81.639,345.716 82.563 C 348.001 84.278,354.346 85.948,356.325 85.356 C 359.216 84.489,360.012 81.914,357.898 80.260 C 356.820 79.416,354.225 78.198,353.244 78.075 C 352.749 78.014,352.259 77.861,352.155 77.736 C 352.051 77.611,351.693 77.460,351.358 77.401 C 348.608 76.912,344.155 73.727,343.341 71.667 C 343.214 71.346,343.039 70.990,342.952 70.875 C 342.865 70.761,342.755 69.861,342.708 68.875 C 342.476 63.971,346.488 59.908,352.278 59.182 C 353.088 59.080,353.975 58.970,354.250 58.936 C 354.851 58.862,356.452 58.963,358.192 59.183 M205.095 59.262 C 204.951 59.406,204.830 59.725,204.827 59.970 C 204.695 68.702,204.887 90.791,205.095 91.000 C 205.483 91.389,212.685 91.469,213.262 91.091 L 213.667 90.826 213.667 75.189 C 213.667 60.251,213.653 59.539,213.362 59.276 C 212.915 58.872,205.498 58.859,205.095 59.262 M239.826 59.248 C 242.357 59.904,245.259 61.882,246.307 63.667 C 247.447 65.608,247.709 66.185,247.859 67.083 C 247.950 67.633,248.147 68.526,248.297 69.067 C 248.752 70.718,248.719 90.260,248.260 90.596 C 247.724 90.989,240.980 90.939,240.619 90.539 C 240.382 90.278,240.347 89.117,240.301 80.164 L 240.250 70.083 239.792 69.151 C 239.540 68.638,239.333 68.169,239.333 68.110 C 239.333 67.399,236.838 65.333,235.979 65.333 C 235.729 65.333,235.159 65.249,234.712 65.145 C 232.715 64.685,229.666 66.421,228.310 68.790 C 227.307 70.543,227.294 70.685,227.184 81.111 C 227.129 86.352,227.037 90.685,226.981 90.741 C 226.925 90.798,225.210 90.861,223.170 90.883 L 219.462 90.922 219.314 90.533 C 219.108 89.990,219.122 60.306,219.329 59.761 L 219.492 59.333 223.129 59.333 C 227.335 59.333,227.167 59.270,227.167 60.857 C 227.167 62.572,227.950 62.995,229.116 61.910 C 231.575 59.621,236.522 58.392,239.826 59.248 M213.243 59.520 C 213.413 59.691,213.344 90.556,213.173 90.727 C 212.971 90.929,205.530 90.930,205.327 90.727 C 205.210 90.610,205.104 70.438,205.164 59.971 C 205.166 59.689,205.274 59.495,205.458 59.444 C 205.883 59.327,213.121 59.398,213.243 59.520 M321.613 66.142 C 319.340 66.824,317.407 68.616,316.339 71.032 C 315.512 72.902,315.456 77.254,316.238 78.908 C 316.474 79.405,316.667 79.847,316.667 79.890 C 316.667 80.138,317.974 81.843,318.636 82.457 C 323.140 86.639,330.999 84.005,332.185 77.917 C 333.716 70.057,328.377 64.111,321.613 66.142 M327.204 66.796 C 333.602 69.724,333.739 80.375,327.417 83.351 C 318.750 87.430,311.742 74.963,318.876 68.157 C 320.988 66.142,324.516 65.566,327.204 66.796 " stroke="none" fill="#8c8c8e" fill-rule="evenodd"></path></g></svg>