<?xml version="1.0" encoding="utf-8"?>
<!-- Generator: Adobe Illustrator 23.0.1, SVG Export Plug-In . SVG Version: 6.00 Build 0)  -->
<svg version="1.1" id="Layer_1" xmlns="http://www.w3.org/2000/svg" xmlns:xlink="http://www.w3.org/1999/xlink" x="0px" y="0px"
	 width="800px" height="500px" viewBox="0 0 800 500" style="enable-background:new 0 0 800 500;" xml:space="preserve">
<style type="text/css">
	.st0{fill:#03854A;}
</style>
<g>
	<g>
		<path class="st0" d="M105,116.4H10v260.4h58.7v-96.3H105c52.1,0,87.1-32.9,87.1-81.9C192.1,149.5,157.1,116.4,105,116.4
			 M68.7,165.3h31.7c20.9,0,31.5,11.2,31.5,33.4c0,22-10.6,33.1-31.5,33.1H68.7V165.3z"/>
		<rect x="222.9" y="195.9" class="st0" width="57" height="180.4"/>
		<path class="st0" d="M403.4,329.1c-3.1-2.8-3.6-10-3.6-21.3v-72.5h45.7v-46.2h-45.7v-55.6l-56.7,5.7v49.9h-25l-5.3,46.2h30.2v92.1
			c0,24.7,15.2,53.6,58.1,53.6h36.6l5.2-46.6h-16.2C414.7,334.4,409.3,334.4,403.4,329.1"/>
		<rect x="481.1" y="195.9" class="st0" width="57.1" height="180.4"/>
		<path class="st0" d="M720.3,324.8c-15.6,8.7-30.5,12.8-46.6,12.8c-29.3,0-46.8-20.2-46.8-54c0-34.1,17-53.7,46.8-53.7
			c16.3,0,30.9,4.1,46.2,12.7l14-43.6l-3.2-1.9c-11.6-6.7-27.8-13.6-60.8-13.6c-30.9,0-56.6,10.3-74.4,29.8
			c-16.1,17.7-24.9,42.6-24.9,70.3c0,49.8,30.7,100.1,99.3,100.1c32.8,0,48.7-6.9,60.9-14.4l3.1-1.9L720.3,324.8z"/>
		<path class="st0" d="M278.5,145.6c0,15.4-12.9,27.9-28.8,27.9c-15.9,0-28.7-12.5-28.7-27.9c0-15.4,12.9-27.9,28.7-27.9
			C265.7,117.7,278.5,130.2,278.5,145.6"/>
		<path class="st0" d="M535.7,145.6c0,15.4-12.9,27.9-28.7,27.9c-15.9,0-28.8-12.5-28.8-27.9c0-15.4,12.9-27.9,28.8-27.9
			C522.9,117.7,535.7,130.2,535.7,145.6"/>
	</g>
	<g>
		<path class="st0" d="M768,127.6c12.1,0,22,9.8,22,21.9c0,12.1-9.9,21.9-22,21.9c-12.1,0-22-9.8-22-21.9
			C746.1,137.4,755.9,127.6,768,127.6z M768,167.4c10,0,18.1-8.1,18.1-18c0-9.9-8.1-18-18.1-18c-10,0-18.1,8.1-18.1,18
			C750,159.4,758,167.4,768,167.4z M759.6,136.8h9.7c6,0,8.9,2.7,8.9,7.5c0,4.4-2.6,6.5-6,6.9l6.6,10.6h-4.8l-6.3-10.2h-3.4v10.2
			h-4.6V136.8z M764.2,147.7h3.4c2.8,0,6-0.2,6-3.5c0-3.3-3.1-3.5-6-3.5h-3.4V147.7z"/>
	</g>
</g>
</svg>
