<svg xmlns="http://www.w3.org/2000/svg" width="769.063" height="588.6" viewBox="0 0 769.063 588.6"><defs><style>.a{fill:#415fac;}.b{fill:#de3555;}</style></defs><g transform="translate(-591.452 -215)"><path class="a" d="M604.2,468.7c-1.9,0-11.7,62.3-12.9,68.2-2.8,14.6-9.9,64.2-14.7,73-2.2,4-5,7.3-9.3,9-1.3.5-8.2,2.9-7.1-.5L554,638.2s31.6,20.4,47,0c0,0,11.1-14.2,11.8-41.5l11.8-11.8,21,46.4h34.7l-30.9-66.8,45.2-42.7H656.9l-37.1,41.5,16.7-94.7C636.3,468.7,604.2,468.7,604.2,468.7Z" transform="translate(328.887 100.7)"/><path class="a" d="M751.4,586.2c40.8-1.7,42.5-33,42.5-33-.8-33-33.4-35.1-33.4-35.1-46.2-4.5-66,45-66,45H668.1c1.7,21,23.9,20.2,23.9,20.2-2.5,15.3,2.6,31.7,15.6,40.5,12.1,8.2,27.4,9.6,41.6,8,12.2-1.4,20.2-5.6,26.6-17.8,2.1-4,5.1-11.1,3.7-11.8-59.1,17.9-58.3-16.1-58.3-16.1h30.2Zm-20.1-32.5c5.4-7.5,16.6-17,26.5-11.7,6.6,3.5,6.5,13.9.7,18-7.8,5.5-24.4,5.1-33,3.1C725.1,563,730.7,554.5,731.3,553.7Z" transform="translate(328.887 100.7)"/><path class="a" d="M808.8,528.5s8.3,1.7,8.3,12l-14,89.9h31.4s8.2-73,26-82.9c8.1-4.5,21.6-4.3,21.9,7.6.5,20.5-2.2,39.9-5.8,59.9-1.8,10.5-5.1,28.5-14,35.6.5-.4,4.4.4,5.1.4a37.858,37.858,0,0,0,12.5-1.8c13.3-4.3,20.1-16.3,23.4-29.2,4.3-16.8,6.4-34.3,9.2-51.3,2.3-14.1,7.5-32.6-5.3-43.3-7-5.9-16.8-7.3-25.6-7.4,0,0-21.9-.5-33,19.3C848.8,537.1,830.6,514.9,808.8,528.5Z" transform="translate(328.887 100.7)"/><path class="a" d="M528.1,520.3,508.6,630.8h30.6L555.6,542S559.6,516.3,528.1,520.3Z" transform="translate(328.887 100.7)"/><circle class="a" cx="18.2" cy="18.2" r="18.2" transform="translate(861.087 571.6)"/><path class="a" d="M436.5,519.9H405.9c-2.9,14.6-5.7,29.1-8.6,43.6-2.7,13.5-7,27.7-6.6,41.6.5,14.9,10.9,26.9,26.3,27.3,0,0,26.6,2.1,40.2-19,0,0,4.6,13.9-8,24.8,0,0,30,7.1,36.5-22.9L504,519.9H471.8c.5,0-.7,19.7-.8,20.8-1.3,13.9-3.9,28.1-9.7,40.8-4.4,9.7-13.6,24.5-25.8,24.3s-13.1-12.9-11.3-22.4Z" transform="translate(328.887 100.7)"/><path class="a" d="M444.5,499H401.8s5.6-17,21.3-17.6h21.3V499Z" transform="translate(328.887 100.7)"/><path class="a" d="M508.6,499H465.9s5.6-17,21.3-17.6h21.3V499Z" transform="translate(328.887 100.7)"/><path class="b" d="M1013.8,224.9c-.3-47.6-43.8-58.8-44.2-58.9l-.3-.1c-48.8-9.1-76.4,30-83,40.8H836V132.5l-.2-.7c-4.1-12.8-20.5-17.1-21.2-17.3l-.6-.2H640.1c-20.7,0-27.8,15.5-28,16.2l-.4.9v72.8H262.8l-.2,4.8c-1.1,28.6,24.1,40.1,37.6,42.2l30,.1c13.3,31.7,44.2,34.1,45.5,34.2h62.8c-.5,8.3,3.3,15.6,6.7,20.4L401.8,321c-21.2,7.3-35.4,18.6-42,33.4-8.6,19.1-1.4,37-1.1,37.7l1.9,4.5L404.4,379c-8.7,15.2-7.6,32-7.5,33l.5,7,40.4-17.9a57.334,57.334,0,0,0-1.9,23.7l1,5.8L685,346.4c62.8,21.3,143.2,12.5,146.6,12.1,62.3-6.5,135.5-83,143.6-91.6,24.1-11.6,46.9,6.8,47.9,7.6l7.2,5.9.9-9.2C1034.2,239.7,1020.7,228.5,1013.8,224.9Zm-29.2-25.1a13.944,13.944,0,0,1,13.8,12.3,10.909,10.909,0,0,0-9-4.9,10.785,10.785,0,0,0-4.9,20.4,13.893,13.893,0,0,1-13.7-13.9A13.723,13.723,0,0,1,984.6,199.8Zm-17.2-24.1A53.255,53.255,0,0,1,988.8,188c-31,7.1-46.7,3.3-54.4-1.4a18.492,18.492,0,0,1-6.2-5.8A61.341,61.341,0,0,1,967.4,175.7Zm-47.9,9.9a27.691,27.691,0,0,0,9.1,9c7.5,4.8,17.5,7.2,29.9,7.2,1.8,0,3.7-.1,5.7-.2a23.73,23.73,0,0,0,3.8,29,122.66,122.66,0,0,1-72-20.4A83.978,83.978,0,0,1,919.5,185.6ZM645,158h63.5v12.8H645Zm63.5-9.9H645V124.2h63.5ZM645,180.7h63.5v28.1H645Zm73.4-56.5h10.7v84.6H718.4Zm85.8,46.6H739V158h65.2Zm0-22.7H739V124.2h65.2Zm-65.1,32.6h65.2v28.1H739.1Zm65.1,129.6c-12.6.7-25.6,1.1-38.6,1.1,15.8-7,30.1-13.4,38.6-17.4ZM621.5,133.7a19.784,19.784,0,0,1,13.6-9V246.9l-13.6,4.2V133.7ZM376.3,275.6c-2.2-.2-23.8-2.7-35.1-24.3H492.9v-9.9H301.3c-3.3-.6-26.6-5.6-28.8-27.2h339v40l-69.4,21.4H376.3Zm78.8,26.9c-2.7-3.2-7.3-9.9-6.6-17h61.7Zm-3.5,92.7,224.3-86.8-3.6-9.2L463,380.2l1.1-1.4-57.2,25.3c.9-9.7,5-26.7,21.9-34.8l226.3-84.1-3.4-9.3L425.1,360.1l.8,2.2-.9-2.1-58.5,23.5a41.1,41.1,0,0,1,2.4-25.3c5.6-12.2,17.7-21.6,36.2-28l50-17.4h0L645,254.2V218.7H804.2V283c-15.9,8-91.2,40.7-121,53.5L445.3,417.3C445.3,411.6,446.4,402.6,451.6,395.2Zm247.7-54.8c10.8-4.7,27.3-11.8,44.4-19.3q10.2.3,20.4.3c13.5,0,27-.4,40.1-1.1v30.1C777.9,351.2,736.2,350.5,699.3,340.4Zm131.2,8.2c-.2,0-6.4.7-16.4,1.2V319.5c13.4-1,26.4-2.3,38.6-4,26.4-3.7,49.5-13.3,71-22.8q6.15-2.7,12.6-5.4c2-.8,4-1.7,5.9-2.5C914.4,309.8,869.4,344.6,830.5,348.6Zm139.4-90.2-.8.4-.6.7c-.1.1-1,1.1-2.7,2.8-10.2,6.3-22,11.2-33.4,16-4.3,1.8-8.6,3.6-12.8,5.5-21.7,9.6-43.2,18.5-68.4,22.1-11.7,1.7-24.2,2.9-37.2,3.9v-185c3.8,1.4,10,4.6,12,9.4v82.5h61.6a131.668,131.668,0,0,0,76.5,24.2,135.689,135.689,0,0,0,44.6-7.3c3.5,1.6,12.7,7.9,12.8,28.2C1011.1,255.6,991,247.7,969.9,258.4Z" transform="translate(328.887 100.7)"/><path class="a" d="M377.1,524c.4-2-36.5-5-38.8-5-24.7,0-47.6,6.8-61.7,28.2a81.1,81.1,0,0,0-13.9,45.2s-1.9,48,44.6,38.4c0,0,14.9-5,21.3-11.8l1.5,2.8-8,35.3s-14.9,42.1,30.9,45.8c0,0,4.1-46.1,7.1-81.7C362.1,596.6,377.1,524.1,377.1,524Zm-38,47.4c-2.4,11.5-7.7,22.7-17.1,30-8.6,6.6-21.7,6.2-24.9-5.5-7.1-25.5,15.1-53.5,41.2-53.7a2.827,2.827,0,0,1,1.8.4,1.975,1.975,0,0,1,.6,1.1,4.868,4.868,0,0,1,.1,1.2C341.1,553.8,340.9,562.7,339.1,571.4Z" transform="translate(328.887 100.7)"/></g></svg>