<svg id="svg" version="1.1" xmlns="http://www.w3.org/2000/svg" xmlns:xlink="http://www.w3.org/1999/xlink" width="400" height="167.5889328063241" viewBox="0, 0, 400,167.5889328063241"><g id="svgg"><path id="path0" d="M24.510 4.197 C 24.568 9.046,24.431 8.711,26.352 8.715 L 27.642 8.718 27.694 9.430 L 27.745 10.142 28.541 10.194 C 29.266 10.240,29.338 10.282,29.338 10.666 C 29.338 11.529,29.571 11.691,30.990 11.817 L 32.314 11.934 32.461 12.631 L 32.608 13.328 34.065 13.376 L 35.522 13.424 35.573 14.130 C 35.624 14.829,35.633 14.838,36.421 14.990 C 37.179 15.137,37.217 15.171,37.217 15.697 C 37.217 16.433,37.566 16.597,39.134 16.597 L 40.402 16.597 40.402 17.351 L 40.402 18.106 41.133 18.106 C 41.857 18.106,41.865 18.112,42.013 18.815 C 42.179 19.601,42.536 19.751,44.290 19.772 L 45.077 19.782 45.129 20.495 L 45.180 21.207 48.240 21.253 L 51.299 21.298 51.299 20.540 L 51.299 19.782 52.627 19.782 C 54.396 19.782,54.484 19.737,54.484 18.842 L 54.484 18.106 55.876 18.106 C 57.436 18.106,57.670 17.981,57.670 17.150 C 57.670 16.608,57.685 16.597,58.405 16.597 C 59.180 16.597,59.338 16.407,59.344 15.465 C 59.346 15.142,59.436 15.088,59.975 15.087 C 60.321 15.086,61.000 15.038,61.484 14.979 L 62.364 14.874 62.364 14.143 L 62.364 13.412 63.755 13.412 C 65.315 13.412,65.549 13.287,65.549 12.456 C 65.549 11.927,65.577 11.903,66.186 11.903 C 66.989 11.903,67.225 11.666,67.225 10.863 L 67.225 10.226 68.724 10.226 L 70.223 10.226 70.336 9.472 L 70.449 8.718 71.509 8.718 C 72.091 8.718,72.762 8.644,72.998 8.554 L 73.428 8.391 73.428 4.195 L 73.428 0.000 71.081 0.000 L 68.734 0.000 68.734 0.401 C 68.734 0.786,68.679 0.805,67.386 0.864 C 65.929 0.930,65.724 1.056,65.719 1.886 C 65.717 2.299,65.656 2.347,65.144 2.347 C 64.188 2.347,64.040 2.473,64.040 3.287 L 64.040 4.023 62.549 4.023 C 60.929 4.023,60.855 4.068,60.855 5.043 L 60.855 5.532 59.670 5.532 C 58.185 5.532,57.911 5.677,57.774 6.532 C 57.666 7.206,57.663 7.209,56.913 7.209 L 56.161 7.209 56.161 7.957 L 56.161 8.705 54.610 8.753 L 53.060 8.801 53.009 9.489 L 52.959 10.177 51.500 10.327 L 50.042 10.478 49.884 11.190 L 49.726 11.903 48.175 11.903 L 46.624 11.903 46.573 11.190 C 46.522 10.484,46.514 10.476,45.725 10.324 C 45.021 10.188,44.928 10.120,44.926 9.737 C 44.922 8.962,44.713 8.837,43.296 8.755 L 41.967 8.678 41.813 7.985 C 41.672 7.347,41.613 7.289,41.073 7.251 C 38.825 7.091,38.726 7.058,38.726 6.476 C 38.726 5.769,38.465 5.532,37.687 5.532 C 37.094 5.532,37.049 5.498,37.049 5.041 C 37.049 4.234,36.684 4.023,35.280 4.023 C 33.940 4.023,33.997 4.066,33.828 2.941 C 33.767 2.537,33.260 2.386,31.894 2.364 C 30.852 2.347,30.847 2.344,30.847 1.858 C 30.847 0.992,30.705 0.838,29.907 0.838 C 29.233 0.838,29.170 0.803,29.170 0.419 L 29.170 0.000 26.815 0.000 L 24.460 0.000 24.510 4.197 M46.717 29.450 C 46.655 29.511,46.605 29.848,46.605 30.197 L 46.605 30.834 45.143 30.882 L 43.681 30.930 43.545 31.623 L 43.408 32.316 41.947 32.461 L 40.486 32.607 40.435 33.311 L 40.384 34.014 39.597 34.065 L 38.810 34.116 38.759 34.811 L 38.708 35.507 37.286 35.566 C 35.722 35.630,35.548 35.740,35.543 36.666 L 35.541 37.204 34.079 37.252 L 32.617 37.301 32.480 37.992 L 32.344 38.684 31.008 38.800 C 29.575 38.925,29.338 39.090,29.338 39.963 C 29.338 40.346,29.266 40.389,28.541 40.435 L 27.745 40.486 27.694 41.199 L 27.642 41.911 26.233 41.911 C 25.011 41.911,24.800 41.954,24.650 42.235 C 24.534 42.451,24.476 46.948,24.476 55.652 L 24.476 68.744 26.781 68.697 L 29.086 68.650 29.138 67.938 L 29.189 67.225 30.342 67.225 C 32.019 67.225,32.355 67.058,32.355 66.224 L 32.355 65.549 33.676 65.549 C 35.121 65.549,35.300 65.451,35.477 64.569 C 35.576 64.075,35.630 64.040,36.297 64.040 L 37.011 64.040 37.125 63.286 L 37.238 62.531 38.108 62.530 C 39.974 62.526,40.235 62.412,40.235 61.605 L 40.235 60.890 41.591 60.829 C 43.054 60.762,43.420 60.543,43.420 59.733 C 43.420 59.397,43.503 59.346,44.057 59.346 C 44.860 59.346,45.096 59.110,45.096 58.307 L 45.096 57.670 46.605 57.670 L 48.114 57.670 48.119 57.125 C 48.124 56.637,48.143 56.615,48.308 56.915 C 48.648 57.537,48.987 57.670,50.242 57.670 L 51.467 57.670 51.467 58.403 C 51.467 59.248,51.678 59.346,53.500 59.346 C 54.409 59.346,54.485 59.375,54.487 59.723 C 54.492 60.659,54.652 60.855,55.407 60.855 C 56.089 60.855,56.129 60.882,56.231 61.425 C 56.379 62.215,56.574 62.326,58.052 62.460 L 59.346 62.578 59.346 63.135 C 59.346 63.877,59.692 64.040,61.263 64.040 L 62.531 64.040 62.531 64.795 L 62.531 65.549 64.012 65.549 L 65.493 65.549 65.647 66.345 C 65.798 67.131,65.810 67.142,66.496 67.192 C 67.142 67.239,67.199 67.284,67.300 67.819 C 67.457 68.656,67.751 68.734,70.735 68.734 L 73.428 68.734 73.428 55.496 C 73.428 40.290,73.645 41.911,71.614 41.911 L 70.449 41.911 70.336 41.157 L 70.223 40.402 68.724 40.402 L 67.225 40.402 67.225 39.765 C 67.225 38.962,66.989 38.726,66.186 38.726 C 65.618 38.726,65.549 38.680,65.549 38.307 C 65.549 37.515,65.023 37.217,63.621 37.217 L 62.364 37.217 62.364 36.556 C 62.364 35.738,62.376 35.745,60.718 35.607 L 59.357 35.493 59.221 34.804 L 59.085 34.116 57.632 34.067 L 56.180 34.019 56.128 33.313 C 56.078 32.615,56.068 32.605,55.281 32.453 C 54.627 32.327,54.484 32.235,54.484 31.940 C 54.484 31.178,54.121 30.967,52.665 30.883 L 51.299 30.804 51.299 30.172 C 51.299 29.752,51.211 29.507,51.034 29.440 C 50.673 29.301,46.857 29.310,46.717 29.450 M46.815 75.288 C 46.699 75.408,46.605 75.794,46.605 76.144 L 46.605 76.781 45.115 76.781 L 43.626 76.781 43.513 77.536 L 43.399 78.290 42.225 78.290 C 40.747 78.290,40.402 78.462,40.402 79.198 C 40.402 79.848,40.165 79.961,38.782 79.964 C 37.582 79.967,37.399 80.072,37.279 80.823 C 37.176 81.463,37.160 81.475,36.459 81.475 C 35.684 81.475,35.541 81.634,35.541 82.495 L 35.541 82.984 34.409 82.986 C 32.709 82.990,32.557 83.062,32.428 83.924 L 32.317 84.661 31.029 84.661 C 29.579 84.661,29.338 84.797,29.338 85.616 C 29.338 86.134,29.301 86.169,28.765 86.169 C 27.809 86.169,27.661 86.295,27.661 87.109 L 27.661 87.846 26.170 87.846 C 24.550 87.846,24.476 87.890,24.476 88.865 L 24.476 89.355 23.251 89.355 C 21.827 89.355,21.498 89.536,21.426 90.360 L 21.375 90.947 19.985 91.031 C 18.490 91.121,18.280 91.249,18.276 92.070 C 18.273 92.489,18.217 92.525,17.477 92.573 L 16.681 92.624 16.630 93.316 L 16.580 94.007 15.149 94.083 C 13.582 94.165,13.418 94.268,13.414 95.180 L 13.412 95.725 12.168 95.725 C 10.530 95.725,10.394 95.789,10.394 96.557 L 10.394 97.186 9.011 97.298 C 7.504 97.421,7.209 97.606,7.209 98.430 C 7.209 98.862,7.157 98.895,6.412 98.943 L 5.616 98.994 5.565 99.707 L 5.513 100.419 4.193 100.419 C 2.674 100.419,2.347 100.614,2.347 101.521 L 2.347 102.096 1.174 102.096 L 0.000 102.096 -0.000 115.530 L -0.000 128.965 2.426 128.883 C 5.080 128.792,5.269 128.726,5.439 127.823 C 5.543 127.264,5.575 127.242,6.294 127.242 L 7.041 127.242 7.041 126.494 L 7.041 125.746 8.592 125.698 L 10.142 125.650 10.193 124.951 L 10.244 124.252 11.535 124.147 C 13.138 124.016,13.315 123.922,13.380 123.160 L 13.432 122.548 14.323 122.548 C 15.454 122.548,16.275 122.386,16.346 122.147 C 16.376 122.045,16.447 121.754,16.502 121.500 C 16.584 121.127,16.695 121.039,17.089 121.039 C 17.950 121.039,18.106 120.897,18.106 120.106 L 18.106 119.376 19.656 119.327 L 21.207 119.279 21.259 118.567 L 21.310 117.854 22.569 117.854 C 24.189 117.854,24.476 117.702,24.476 116.842 L 24.476 116.178 25.661 116.178 C 27.100 116.178,27.422 116.024,27.564 115.270 C 27.666 114.726,27.720 114.684,28.380 114.636 C 29.078 114.586,29.087 114.577,29.137 113.893 C 29.194 113.107,29.467 112.998,31.391 112.994 L 32.355 112.992 32.355 112.238 L 32.355 111.484 33.747 111.484 C 35.300 111.484,35.541 111.358,35.541 110.546 L 35.541 110.010 36.875 109.892 C 38.311 109.764,38.458 109.677,38.636 108.843 C 38.746 108.328,38.793 108.298,39.494 108.298 L 40.235 108.298 40.235 107.544 L 40.235 106.790 41.450 106.787 C 43.287 106.784,43.420 106.721,43.420 105.854 L 43.420 105.126 44.971 105.078 L 46.521 105.029 46.573 104.311 L 46.625 103.592 48.250 103.640 L 49.874 103.688 49.927 104.191 C 50.003 104.928,50.365 105.113,51.728 105.113 L 52.932 105.113 53.023 105.798 C 53.143 106.686,53.067 106.644,54.717 106.747 L 56.144 106.836 56.194 107.525 L 56.245 108.215 57.795 108.263 L 59.346 108.311 59.346 109.040 C 59.346 109.824,59.534 109.967,60.562 109.973 C 60.952 109.975,61.023 110.046,61.025 110.436 C 61.030 111.244,61.226 111.364,62.684 111.448 C 63.988 111.524,64.040 111.542,64.040 111.935 C 64.040 112.856,64.268 112.992,65.806 112.992 L 67.225 112.992 67.225 113.729 C 67.225 114.624,67.314 114.669,69.083 114.669 L 70.411 114.669 70.411 115.414 L 70.411 116.159 71.207 116.210 C 71.954 116.258,72.007 116.293,72.060 116.764 C 72.148 117.540,72.345 117.657,73.775 117.781 C 75.041 117.892,75.105 117.917,75.105 118.306 C 75.105 119.225,75.334 119.363,76.861 119.363 L 78.271 119.363 78.322 120.069 C 78.383 120.901,78.584 120.997,80.334 121.023 L 81.456 121.039 81.508 121.752 L 81.559 122.464 82.355 122.515 C 83.140 122.566,83.152 122.575,83.152 123.138 C 83.152 123.864,83.491 124.056,84.775 124.060 C 85.958 124.063,86.090 124.140,86.233 124.919 C 86.365 125.637,86.586 125.728,88.213 125.731 L 89.335 125.733 89.387 126.446 L 89.438 127.158 90.980 127.207 L 92.522 127.255 92.573 128.045 L 92.624 128.835 94.887 128.835 L 97.150 128.835 97.150 115.507 L 97.150 102.179 96.354 102.128 C 95.574 102.078,95.557 102.066,95.557 101.520 C 95.557 100.757,95.304 100.604,93.841 100.480 L 92.578 100.373 92.433 99.684 L 92.288 98.994 90.821 98.946 L 89.355 98.897 89.355 98.329 C 89.355 97.429,89.025 97.234,87.508 97.234 L 86.189 97.234 86.137 96.521 L 86.085 95.809 85.289 95.758 C 84.536 95.709,84.493 95.681,84.493 95.225 C 84.493 94.484,84.131 94.258,82.733 94.127 C 81.393 94.002,81.431 94.032,81.270 92.959 C 81.225 92.657,81.072 92.619,79.755 92.575 L 78.290 92.527 78.290 92.044 C 78.290 91.158,78.157 91.031,77.224 91.029 C 75.408 91.025,75.128 90.908,75.072 90.130 L 75.021 89.438 74.225 89.387 C 73.471 89.339,73.428 89.310,73.428 88.854 C 73.428 88.059,73.058 87.846,71.676 87.846 C 70.360 87.846,70.252 87.761,70.245 86.734 C 70.243 86.290,69.855 86.175,68.357 86.172 C 67.297 86.169,67.225 86.146,67.223 85.792 C 67.217 84.709,67.143 84.661,65.529 84.661 L 64.040 84.661 64.040 83.924 C 64.040 83.110,63.892 82.984,62.937 82.984 C 62.417 82.984,62.364 82.939,62.364 82.502 C 62.364 81.799,61.982 81.585,60.545 81.483 L 59.262 81.391 59.211 80.679 C 59.160 79.979,59.148 79.966,58.540 79.965 C 56.880 79.961,56.161 79.774,56.161 79.345 C 56.161 78.428,55.932 78.290,54.404 78.290 L 52.995 78.290 52.943 77.578 L 52.892 76.865 52.096 76.814 C 51.351 76.766,51.299 76.733,51.299 76.301 C 51.299 75.380,51.044 75.257,48.946 75.159 C 47.487 75.090,46.974 75.122,46.815 75.288 M45.564 121.217 C 45.407 121.309,45.228 121.646,45.168 121.966 C 45.071 122.483,45.000 122.548,44.533 122.551 C 43.799 122.554,43.646 122.698,43.511 123.506 L 43.393 124.212 41.939 124.260 L 40.486 124.308 40.436 124.998 L 40.385 125.687 39.018 125.780 C 37.558 125.881,37.217 126.082,37.217 126.848 C 37.217 127.156,37.099 127.247,36.588 127.332 C 35.572 127.500,35.541 127.528,35.541 128.236 L 35.541 128.906 34.074 128.954 L 32.608 129.003 32.462 129.697 L 32.316 130.391 30.869 130.535 L 29.422 130.679 29.370 131.391 L 29.319 132.104 28.071 132.104 C 26.680 132.104,26.153 132.403,26.153 133.194 C 26.153 133.567,26.083 133.613,25.516 133.613 C 24.713 133.613,24.476 133.849,24.476 134.652 L 24.476 135.289 22.978 135.289 L 21.479 135.289 21.366 136.044 L 21.253 136.798 20.087 136.798 C 18.563 136.798,18.273 136.959,18.273 137.810 L 18.273 138.474 16.944 138.474 C 15.452 138.474,15.088 138.672,15.088 139.483 C 15.088 139.939,15.045 139.968,14.292 140.016 L 13.495 140.067 13.444 140.780 C 13.400 141.385,13.337 141.492,13.025 141.494 C 12.823 141.496,12.487 141.542,12.280 141.598 L 11.903 141.699 11.903 154.672 L 11.903 167.645 13.412 167.645 C 14.903 167.645,14.920 167.640,14.920 167.232 C 14.920 166.826,14.948 166.818,16.471 166.771 L 18.022 166.723 18.072 166.035 L 18.122 165.347 19.581 165.196 L 21.039 165.046 21.197 164.334 C 21.353 163.634,21.368 163.621,22.060 163.621 C 22.822 163.621,22.967 163.459,22.967 162.608 L 22.967 162.125 24.434 162.077 L 25.901 162.028 25.955 161.442 C 26.030 160.624,26.120 160.572,27.692 160.456 L 29.086 160.352 29.137 159.661 L 29.187 158.969 30.545 158.891 C 31.996 158.807,32.355 158.595,32.355 157.824 C 32.355 157.518,32.479 157.438,33.092 157.346 C 33.856 157.231,34.024 157.012,34.030 156.119 C 34.032 155.762,34.098 155.742,35.275 155.742 C 36.915 155.742,37.049 155.679,37.049 154.905 L 37.049 154.273 38.477 154.154 C 40.009 154.026,40.235 153.877,40.235 152.996 C 40.235 152.613,40.306 152.570,41.031 152.524 L 41.827 152.473 41.879 151.760 L 41.930 151.048 43.340 151.048 C 44.901 151.048,45.096 150.918,45.096 149.885 L 45.096 149.371 46.342 149.371 C 47.749 149.371,48.114 149.161,48.114 148.353 C 48.114 147.877,48.138 147.863,48.943 147.863 L 49.771 147.863 49.823 148.575 L 49.874 149.288 50.671 149.339 C 51.415 149.386,51.467 149.420,51.467 149.851 C 51.467 150.663,51.768 150.860,53.227 151.001 L 54.568 151.132 54.652 151.802 L 54.736 152.473 56.182 152.521 L 57.627 152.569 57.720 153.258 C 57.825 154.042,58.030 154.227,58.801 154.230 C 59.258 154.233,59.346 154.296,59.346 154.620 C 59.346 155.429,59.713 155.649,61.167 155.715 L 62.514 155.777 62.565 156.472 L 62.615 157.167 64.124 157.334 L 65.633 157.502 65.717 158.173 L 65.801 158.843 67.258 158.892 L 68.716 158.940 68.767 159.646 L 68.818 160.352 69.584 160.402 C 70.335 160.451,70.353 160.465,70.506 161.156 C 70.683 161.954,70.916 162.057,72.622 162.092 L 73.577 162.112 73.628 162.825 L 73.680 163.537 75.099 163.587 C 76.635 163.640,76.775 163.721,76.779 164.567 C 76.781 165.136,77.003 165.298,77.782 165.298 C 78.188 165.298,78.268 165.379,78.364 165.892 C 78.502 166.624,78.906 166.806,80.396 166.806 C 81.435 166.806,81.475 166.822,81.475 167.225 C 81.475 167.641,81.487 167.645,82.968 167.645 L 84.462 167.645 84.575 166.094 C 84.638 165.241,84.664 159.124,84.633 152.501 C 84.568 138.601,84.779 139.983,82.720 139.983 L 81.513 139.983 81.400 139.229 L 81.287 138.474 80.417 138.473 C 78.750 138.469,78.290 138.323,78.290 137.796 C 78.290 136.953,78.144 136.798,77.350 136.798 C 76.676 136.798,76.614 136.762,76.614 136.379 C 76.614 135.589,76.086 135.289,74.695 135.289 L 73.448 135.289 73.396 134.583 C 73.336 133.759,73.129 133.656,71.478 133.629 L 70.449 133.613 70.336 132.858 L 70.223 132.104 68.724 132.104 L 67.225 132.104 67.225 131.439 C 67.225 130.690,66.924 130.427,66.063 130.427 C 65.638 130.427,65.549 130.361,65.549 130.040 C 65.549 129.231,65.183 129.011,63.720 128.945 L 62.364 128.883 62.364 128.225 C 62.364 127.464,62.374 127.470,60.653 127.324 L 59.361 127.215 59.223 126.516 L 59.085 125.817 57.632 125.769 L 56.180 125.721 56.128 125.015 L 56.077 124.308 55.281 124.257 C 54.556 124.211,54.484 124.169,54.484 123.785 C 54.484 122.904,54.258 122.755,52.726 122.627 L 51.299 122.509 51.299 121.975 C 51.299 121.682,51.209 121.351,51.098 121.241 C 50.847 120.990,45.990 120.969,45.564 121.217 " stroke="none" fill="#fcdc2c" fill-rule="evenodd"></path><path id="path1" d="M204.769 55.228 C 204.712 55.529,204.684 55.995,204.705 56.262 C 204.795 57.367,204.711 57.670,204.317 57.672 C 203.631 57.676,203.171 57.874,203.198 58.152 C 203.334 59.569,203.169 60.855,202.850 60.855 C 202.666 60.855,202.515 60.918,202.515 60.994 C 202.515 61.071,202.345 61.127,202.137 61.120 C 201.848 61.110,201.756 61.204,201.741 61.526 C 201.660 63.335,201.466 64.045,201.026 64.140 C 200.253 64.308,200.217 64.338,200.108 64.885 C 200.048 65.181,200.000 66.167,200.000 67.076 L 200.000 68.728 199.539 68.849 C 199.285 68.915,198.946 68.950,198.785 68.925 C 198.523 68.886,198.491 69.052,198.491 70.484 L 198.491 72.087 197.831 72.087 C 196.963 72.087,196.953 72.113,196.859 74.579 C 196.764 77.052,196.871 76.775,196.004 76.809 L 195.306 76.836 195.306 78.401 C 195.306 79.774,195.270 79.969,195.013 79.983 C 194.851 79.992,194.531 80.011,194.300 80.025 C 194.003 80.043,193.879 80.148,193.875 80.386 C 193.871 80.570,193.822 80.797,193.766 80.889 C 193.709 80.981,193.657 81.840,193.651 82.798 C 193.637 84.818,193.720 84.614,192.875 84.695 L 192.205 84.760 192.156 86.303 C 192.104 87.987,192.134 87.946,190.976 87.851 C 190.686 87.827,190.597 87.897,190.628 88.125 C 190.789 89.322,190.399 91.031,189.964 91.034 C 189.095 91.039,189.036 91.184,188.967 93.494 C 188.894 95.979,188.983 95.728,188.161 95.773 L 187.510 95.809 187.456 97.316 C 187.394 99.055,187.425 98.990,186.664 98.939 C 185.887 98.886,185.782 99.196,185.763 101.596 C 185.746 103.792,185.826 103.580,184.987 103.644 L 184.325 103.695 184.269 105.200 C 184.204 106.958,184.262 106.852,183.384 106.818 C 182.771 106.794,182.703 106.828,182.781 107.125 C 182.829 107.310,182.794 107.460,182.701 107.460 C 182.607 107.460,182.550 107.842,182.570 108.340 C 182.635 109.900,182.613 109.975,182.104 109.977 C 181.202 109.982,181.145 110.121,181.084 112.441 C 181.020 114.904,181.095 114.695,180.271 114.727 C 179.563 114.755,179.422 115.129,179.392 117.058 C 179.380 117.852,179.378 117.854,178.799 117.854 C 177.995 117.854,177.901 118.118,177.883 120.445 C 177.866 122.726,177.922 122.573,177.086 122.607 L 176.446 122.632 176.446 125.733 L 176.446 128.835 182.649 128.835 C 188.041 128.835,188.855 128.802,188.874 128.583 C 188.887 128.445,188.905 128.087,188.916 127.787 C 188.935 127.256,188.954 127.242,189.690 127.242 L 190.444 127.242 190.444 125.650 C 190.444 124.251,190.480 124.055,190.738 124.040 C 191.860 123.977,191.869 123.974,191.857 123.604 C 191.850 123.401,191.902 123.271,191.972 123.314 C 192.042 123.357,192.103 122.512,192.108 121.435 C 192.119 119.185,192.057 119.345,192.922 119.333 L 193.591 119.324 193.616 117.801 C 193.644 116.045,193.602 116.134,194.420 116.111 C 194.914 116.098,195.061 116.021,195.100 115.759 C 195.128 115.574,195.188 115.254,195.232 115.046 L 195.312 114.669 207.128 114.669 L 218.944 114.669 218.959 115.968 C 218.968 116.683,218.962 117.596,218.946 117.998 C 218.929 118.400,218.985 118.687,219.068 118.635 C 219.152 118.584,219.215 118.707,219.208 118.910 C 219.197 119.229,219.286 119.281,219.866 119.290 L 220.536 119.300 220.584 120.924 L 220.632 122.548 221.381 122.548 L 222.129 122.548 222.146 124.015 C 222.155 124.822,222.150 125.722,222.134 126.016 C 222.092 126.803,222.400 127.271,222.937 127.236 C 223.743 127.184,223.786 127.222,223.838 128.039 L 223.889 128.835 230.471 128.872 C 238.299 128.916,237.842 129.011,237.846 127.334 C 237.849 125.949,237.709 125.733,236.809 125.733 C 236.369 125.733,236.247 124.823,236.372 122.459 C 236.425 121.451,236.119 121.007,235.414 121.068 L 234.786 121.123 234.702 119.531 L 234.619 117.938 233.968 117.902 C 233.146 117.857,233.235 118.108,233.162 115.623 C 233.093 113.314,233.034 113.168,232.168 113.163 C 231.730 113.160,231.483 112.099,231.509 110.340 C 231.514 110.038,231.431 109.958,231.139 109.982 C 229.995 110.074,230.025 110.114,229.973 108.424 L 229.925 106.873 229.212 106.822 L 228.500 106.770 228.500 104.964 C 228.500 103.970,228.445 103.103,228.379 103.037 C 228.312 102.970,228.256 102.750,228.253 102.548 C 228.249 102.275,228.139 102.173,227.829 102.154 C 227.598 102.140,227.278 102.121,227.117 102.112 C 226.859 102.098,226.823 101.902,226.823 100.503 L 226.823 98.910 226.091 98.910 L 225.359 98.910 225.280 96.715 C 225.193 94.319,225.151 94.223,224.183 94.219 L 223.638 94.216 223.638 92.616 C 223.638 91.434,223.583 91.023,223.428 91.044 C 223.313 91.058,222.974 91.062,222.674 91.051 L 222.129 91.031 222.112 89.145 C 222.090 86.623,222.031 86.442,221.200 86.337 L 220.536 86.253 220.513 85.415 C 220.462 83.575,220.389 83.237,220.034 83.210 C 218.966 83.128,218.716 82.458,218.933 80.270 C 218.951 80.091,218.849 79.994,218.659 80.007 C 217.586 80.081,217.436 79.888,217.420 78.413 C 217.392 75.780,217.282 75.377,216.553 75.259 C 215.728 75.125,215.772 75.220,215.744 73.535 C 215.724 72.362,215.672 72.085,215.487 72.155 C 215.360 72.204,215.256 72.171,215.256 72.082 C 215.256 71.993,215.029 71.920,214.753 71.920 C 214.253 71.920,214.250 71.914,214.246 70.956 C 214.232 67.763,214.141 67.433,213.234 67.288 L 212.573 67.183 212.548 66.240 C 212.534 65.722,212.538 65.095,212.557 64.847 C 212.596 64.342,212.199 64.040,211.495 64.040 C 211.070 64.040,210.889 62.902,211.059 61.298 C 211.079 61.112,211.019 61.031,210.911 61.098 C 210.811 61.160,210.729 61.125,210.729 61.022 C 210.729 60.910,210.507 60.855,210.184 60.886 L 209.640 60.939 209.507 59.179 C 209.434 58.210,209.380 57.198,209.386 56.928 C 209.400 56.351,209.168 56.167,208.424 56.164 C 208.114 56.162,207.870 56.071,207.857 55.951 C 207.844 55.836,207.825 55.516,207.815 55.239 L 207.795 54.736 206.334 54.708 L 204.872 54.679 204.769 55.228 M117.896 92.494 L 117.938 128.835 124.141 128.835 C 129.533 128.835,130.347 128.802,130.366 128.583 C 130.379 128.445,130.398 123.824,130.408 118.315 L 130.427 108.298 137.552 108.298 L 144.677 108.298 144.677 109.071 C 144.677 109.688,144.728 109.824,144.929 109.747 C 145.067 109.694,145.180 109.723,145.180 109.812 C 145.180 109.904,145.768 109.975,146.521 109.975 C 147.795 109.975,147.863 109.994,147.880 110.352 C 147.935 111.499,147.831 111.409,149.162 111.467 C 149.473 111.481,149.539 111.580,149.539 112.037 C 149.539 112.736,149.795 112.992,150.495 112.992 C 150.986 112.992,151.048 113.044,151.050 113.453 C 151.054 114.115,151.277 114.380,152.002 114.588 C 152.486 114.728,152.631 114.851,152.601 115.098 C 152.504 115.886,152.687 116.121,153.419 116.150 C 154.298 116.184,154.214 116.014,154.246 117.819 L 154.275 119.363 155.008 119.363 L 155.742 119.363 155.768 123.596 C 155.782 125.924,155.781 127.988,155.765 128.183 C 155.749 128.378,155.838 128.622,155.962 128.725 C 156.224 128.943,169.540 128.923,169.758 128.705 C 169.937 128.526,169.981 119.852,169.803 119.963 C 169.725 120.011,169.710 119.921,169.771 119.762 C 169.856 119.540,169.817 119.498,169.602 119.580 C 169.447 119.639,169.321 119.615,169.321 119.525 C 169.321 119.436,169.095 119.363,168.818 119.363 L 168.315 119.363 168.315 115.708 C 168.315 111.880,168.274 111.654,167.569 111.649 C 166.953 111.644,166.834 111.418,166.745 110.075 C 166.646 108.577,166.608 108.510,165.801 108.436 C 165.232 108.384,165.212 108.359,165.164 107.613 L 165.114 106.844 164.423 106.817 C 163.588 106.784,163.665 106.864,163.588 105.951 L 163.525 105.197 162.790 105.184 L 162.055 105.171 162.042 104.430 C 162.033 103.969,161.949 103.681,161.819 103.668 C 161.704 103.656,161.345 103.637,161.023 103.625 C 160.443 103.605,160.436 103.595,160.436 102.859 L 160.436 102.114 159.640 102.051 C 159.106 102.009,159.289 101.978,160.193 101.958 C 161.690 101.925,161.945 101.786,161.945 101.005 C 161.945 100.528,162.006 100.470,162.657 100.326 C 163.320 100.179,163.381 100.118,163.528 99.455 C 163.673 98.799,163.728 98.743,164.220 98.743 C 164.969 98.743,165.093 98.509,165.157 96.976 L 165.214 95.629 165.683 95.697 C 166.001 95.743,166.236 95.664,166.408 95.452 C 166.549 95.279,166.609 95.244,166.541 95.374 C 166.458 95.534,166.485 95.569,166.624 95.483 C 166.736 95.413,166.815 95.157,166.799 94.912 C 166.679 93.050,166.796 92.363,167.213 92.468 C 168.261 92.731,168.287 92.657,168.308 89.314 C 168.329 85.849,168.255 86.127,169.159 86.139 C 169.706 86.147,169.832 86.096,169.756 85.899 C 169.703 85.761,169.716 85.683,169.784 85.726 C 170.051 85.891,169.925 78.892,169.656 78.655 C 169.472 78.492,169.468 78.465,169.640 78.555 C 169.792 78.634,169.835 78.610,169.759 78.489 C 169.695 78.385,169.382 78.311,169.062 78.323 C 168.279 78.352,168.329 78.561,168.308 75.151 C 168.287 71.846,168.310 71.920,167.302 71.920 L 166.819 71.920 166.771 70.453 L 166.723 68.986 166.017 68.838 C 165.245 68.676,165.156 68.458,165.077 66.555 L 165.046 65.801 164.401 65.783 C 163.677 65.764,163.468 65.551,163.582 64.950 C 163.690 64.389,163.351 64.040,162.697 64.040 C 162.127 64.040,161.833 63.569,161.931 62.811 C 161.960 62.583,161.870 62.512,161.580 62.536 C 160.396 62.634,160.294 62.578,160.387 61.883 C 160.506 60.996,160.241 60.892,157.795 60.862 C 157.262 60.855,157.251 60.839,157.251 60.101 L 157.251 59.346 155.658 59.346 L 154.065 59.346 154.046 58.718 C 154.035 58.372,154.033 58.038,154.041 57.976 C 154.067 57.791,153.109 57.637,152.172 57.676 C 150.913 57.727,150.880 57.716,150.878 57.209 C 150.872 56.175,152.094 56.249,134.206 56.199 L 117.855 56.154 117.896 92.494 M245.976 92.500 L 246.018 128.835 262.112 128.879 C 280.317 128.929,278.896 128.999,278.933 128.056 C 278.968 127.169,278.701 127.259,281.358 127.233 C 283.858 127.208,284.048 127.116,283.773 126.066 C 283.684 125.726,284.226 125.631,285.705 125.728 C 286.528 125.782,286.882 125.581,286.792 125.111 C 286.682 124.537,287.188 124.057,287.902 124.057 C 288.442 124.057,288.462 124.033,288.489 123.359 C 288.522 122.508,288.476 122.554,289.327 122.521 C 289.971 122.495,290.025 122.457,290.025 122.031 C 290.025 121.371,290.187 121.039,290.509 121.039 C 290.663 121.039,290.969 120.913,291.189 120.759 C 291.439 120.584,291.538 120.562,291.452 120.701 C 291.357 120.855,291.379 120.884,291.524 120.794 C 291.644 120.720,291.698 120.480,291.651 120.234 C 291.529 119.599,291.681 119.363,292.210 119.363 C 293.012 119.363,293.210 118.996,293.210 117.507 L 293.210 116.178 293.777 116.178 C 294.836 116.178,294.798 116.511,294.849 106.668 C 294.880 100.649,294.839 97.746,294.725 97.817 C 294.622 97.881,294.599 97.809,294.666 97.633 C 294.752 97.408,294.712 97.368,294.488 97.454 C 294.316 97.520,294.240 97.498,294.301 97.400 C 294.361 97.302,294.158 97.234,293.807 97.234 L 293.210 97.234 293.195 96.270 C 293.162 94.231,293.185 94.302,292.573 94.283 C 291.861 94.262,291.698 94.084,291.654 93.280 C 291.617 92.605,291.610 92.599,290.657 92.559 C 290.195 92.540,290.048 92.292,289.983 91.420 C 289.968 91.219,289.915 91.058,289.865 91.062 C 289.815 91.067,289.491 91.062,289.145 91.051 L 288.516 91.031 288.516 90.208 L 288.516 89.384 289.180 89.272 C 289.933 89.145,289.955 89.102,290.113 87.394 L 290.225 86.187 290.921 86.136 L 291.618 86.085 291.670 84.580 C 291.731 82.821,291.640 83.007,292.465 82.944 L 293.127 82.893 293.127 75.940 L 293.127 68.986 292.486 68.960 C 291.665 68.928,291.721 69.040,291.665 67.301 C 291.628 66.113,291.565 65.796,291.366 65.778 C 291.228 65.766,290.907 65.747,290.654 65.736 C 290.234 65.718,290.193 65.659,290.193 65.074 C 290.193 64.721,290.139 64.378,290.074 64.313 C 290.008 64.247,289.976 63.901,290.002 63.542 C 290.053 62.832,289.749 62.531,288.979 62.531 C 288.647 62.531,288.554 62.413,288.423 61.819 C 288.274 61.147,288.226 61.102,287.594 61.023 C 286.958 60.943,286.921 60.907,286.872 60.311 C 286.814 59.610,286.439 59.304,285.698 59.352 C 284.005 59.462,283.719 59.380,283.777 58.801 C 283.868 57.904,283.671 57.777,282.116 57.738 L 280.721 57.703 280.619 57.082 C 280.463 56.134,281.121 56.168,262.992 56.166 L 245.934 56.164 245.976 92.500 M305.994 92.499 L 306.035 128.835 326.488 128.835 L 346.940 128.835 346.940 122.548 L 346.940 116.262 332.733 116.219 L 318.525 116.176 318.525 106.705 L 318.525 97.234 331.918 97.234 L 345.312 97.234 345.405 96.857 C 345.718 95.590,345.471 84.612,345.130 84.648 C 345.065 84.655,339.053 84.661,331.769 84.661 L 318.525 84.661 318.525 76.698 L 318.525 68.736 332.733 68.693 L 346.940 68.650 346.940 62.448 L 346.940 56.245 326.447 56.204 L 305.954 56.162 305.994 92.499 M358.278 56.387 C 358.047 56.665,358.011 128.316,358.242 128.173 C 358.325 128.122,358.356 128.221,358.311 128.392 C 358.176 128.910,358.226 128.911,379.505 128.916 L 400.000 128.921 400.000 122.657 L 400.000 116.394 398.868 116.287 C 398.246 116.228,392.022 116.180,385.038 116.179 L 372.339 116.178 372.339 106.706 L 372.339 97.234 385.541 97.214 C 392.802 97.203,398.835 97.206,398.948 97.220 C 399.107 97.241,399.153 95.821,399.153 90.947 C 399.153 86.074,399.107 84.654,398.948 84.674 C 398.835 84.688,392.802 84.691,385.541 84.680 L 372.339 84.661 372.339 76.697 L 372.339 68.734 386.169 68.734 L 400.000 68.734 400.000 62.446 L 400.000 56.159 379.231 56.162 C 362.271 56.165,358.427 56.206,358.278 56.387 M146.279 69.490 C 146.401 70.305,146.658 70.477,147.634 70.399 C 149.036 70.286,149.371 70.383,149.371 70.900 C 149.371 71.766,149.513 71.920,150.311 71.920 C 151.096 71.920,151.142 71.991,151.051 73.075 C 151.024 73.405,151.079 73.459,151.368 73.384 C 151.561 73.333,151.718 73.360,151.718 73.444 C 151.718 73.528,151.907 73.596,152.137 73.596 C 152.455 73.596,152.561 73.687,152.574 73.973 C 152.629 75.125,152.549 75.045,153.682 75.085 L 154.220 75.105 154.269 76.655 C 154.322 78.365,154.204 78.204,155.451 78.274 C 155.727 78.289,155.745 78.564,155.703 82.261 L 155.658 86.232 154.987 86.242 L 154.317 86.253 154.269 87.795 L 154.221 89.337 153.431 89.388 L 152.640 89.438 152.589 90.235 L 152.538 91.031 151.804 91.031 L 151.069 91.031 151.078 91.710 C 151.090 92.538,151.085 92.543,150.275 92.570 C 149.525 92.595,149.377 92.747,149.374 93.504 C 149.372 93.818,149.283 94.055,149.162 94.064 C 149.047 94.073,148.575 94.108,148.114 94.143 C 146.456 94.266,146.439 94.272,146.412 94.719 C 146.398 94.950,146.379 95.270,146.370 95.432 C 146.355 95.707,145.856 95.725,138.391 95.725 L 130.427 95.725 130.427 82.230 L 130.427 68.734 138.297 68.734 L 146.166 68.734 146.279 69.490 M274.267 69.070 C 274.267 69.254,274.332 69.405,274.411 69.405 C 274.490 69.405,274.517 69.604,274.471 69.848 C 274.394 70.252,274.426 70.284,274.829 70.207 C 275.073 70.160,275.272 70.179,275.272 70.250 C 275.272 70.320,275.730 70.377,276.289 70.377 C 277.527 70.377,277.403 70.231,277.523 71.827 C 277.632 73.268,277.734 73.422,278.583 73.426 L 279.128 73.428 279.128 76.697 L 279.128 79.966 278.562 79.966 C 277.911 79.966,277.709 80.163,277.562 80.939 C 277.483 81.351,277.509 81.462,277.664 81.373 C 277.778 81.307,277.818 81.313,277.753 81.385 C 277.688 81.456,277.324 81.530,276.944 81.549 C 276.192 81.585,275.950 81.817,275.946 82.501 C 275.943 82.887,275.861 82.951,275.259 83.032 C 274.419 83.144,274.427 83.136,274.314 83.976 L 274.222 84.661 266.365 84.661 L 258.508 84.661 258.508 76.697 L 258.508 68.734 266.387 68.734 C 274.155 68.734,274.267 68.739,274.267 69.070 M206.646 87.427 C 206.784 87.565,207.118 87.678,207.388 87.678 C 207.873 87.678,207.879 87.691,207.894 88.642 C 207.928 90.933,207.865 90.773,208.759 90.831 L 209.556 90.882 209.571 92.675 C 209.595 95.462,209.596 95.470,209.975 95.499 C 211.041 95.581,211.289 96.239,211.077 98.429 C 211.057 98.631,211.249 98.732,211.812 98.817 L 212.573 98.931 212.575 99.885 C 212.576 100.409,212.624 101.121,212.681 101.467 L 212.785 102.096 206.392 102.096 L 200.000 102.096 200.000 101.276 C 200.000 100.462,200.004 100.456,200.628 100.339 C 201.483 100.178,201.503 100.118,201.506 97.779 L 201.509 95.725 202.002 95.725 C 202.273 95.725,202.542 95.648,202.600 95.555 C 202.658 95.461,202.787 95.435,202.887 95.497 C 202.996 95.564,203.021 95.531,202.950 95.416 C 202.884 95.309,202.901 95.222,202.987 95.222 C 203.073 95.222,203.150 94.644,203.158 93.937 C 203.174 92.587,203.282 92.380,203.976 92.375 C 204.560 92.371,204.694 91.870,204.694 89.701 L 204.694 87.678 205.155 87.659 C 205.409 87.648,205.748 87.653,205.909 87.669 C 206.076 87.686,206.203 87.586,206.203 87.437 C 206.203 87.109,206.325 87.106,206.646 87.427 M275.962 97.695 C 275.973 97.948,275.970 98.276,275.956 98.422 C 275.929 98.710,276.404 98.795,278.164 98.815 L 279.128 98.826 279.128 100.114 C 279.128 101.565,279.332 101.928,280.146 101.928 C 280.568 101.928,280.638 101.993,280.645 102.389 C 280.686 104.773,280.823 105.113,281.747 105.113 L 282.313 105.113 282.312 106.077 C 282.308 107.865,282.172 108.298,281.611 108.298 C 281.341 108.298,281.162 108.365,281.212 108.447 C 281.263 108.529,281.173 108.585,281.012 108.573 C 280.760 108.553,280.715 108.739,280.677 109.963 C 280.625 111.609,280.689 111.486,279.863 111.532 C 279.212 111.567,279.212 111.568,279.161 112.355 L 279.111 113.142 278.323 113.193 C 277.496 113.246,277.522 113.214,277.470 114.278 C 277.452 114.628,277.371 114.644,275.342 114.697 C 273.059 114.757,272.758 114.885,272.758 115.791 L 272.758 116.178 265.633 116.178 L 258.508 116.178 258.508 106.706 L 258.508 97.234 267.225 97.234 L 275.943 97.234 275.962 97.695 M144.761 138.854 C 144.712 139.060,144.692 142.925,144.716 147.443 L 144.761 155.658 150.260 155.697 L 155.760 155.736 155.709 153.434 L 155.658 151.132 152.515 151.086 L 149.371 151.040 149.371 150.206 L 149.371 149.371 152.540 149.371 L 155.708 149.371 155.732 147.108 C 155.748 145.587,155.697 144.845,155.576 144.845 C 155.452 144.845,155.447 144.747,155.560 144.536 C 155.655 144.359,155.711 143.008,155.692 141.392 L 155.658 138.558 150.254 138.519 L 144.850 138.480 144.761 138.854 M179.636 138.634 C 179.588 138.712,179.551 138.953,179.555 139.170 C 179.558 139.387,179.512 140.092,179.453 140.738 C 179.291 142.493,179.495 143.082,180.269 143.097 C 181.071 143.112,181.037 143.043,181.070 144.712 C 181.101 146.271,181.151 146.345,182.188 146.351 C 182.523 146.353,182.565 146.438,182.565 147.108 C 182.565 147.773,182.520 147.865,182.188 147.880 C 181.062 147.934,181.144 147.813,181.092 149.497 L 181.044 151.048 180.308 151.048 L 179.571 151.048 179.465 151.928 C 179.406 152.412,179.382 153.449,179.411 154.233 L 179.464 155.658 181.811 155.658 L 184.158 155.658 184.241 154.904 C 184.323 154.168,184.339 154.150,184.870 154.202 C 185.225 154.236,185.415 154.181,185.415 154.043 C 185.415 153.458,185.773 154.272,185.802 154.921 L 185.834 155.658 188.935 155.658 L 192.037 155.658 192.069 154.103 C 192.087 153.248,192.049 152.581,191.986 152.621 C 191.922 152.660,191.869 152.380,191.869 151.998 C 191.869 151.316,191.856 151.301,191.157 151.152 L 190.444 151.000 190.444 149.703 C 190.444 148.290,190.362 148.141,189.480 147.952 C 188.955 147.840,188.935 147.806,188.935 147.011 L 188.935 146.186 189.516 146.186 C 190.172 146.186,190.487 145.796,190.438 145.044 C 190.422 144.796,190.417 144.239,190.426 143.807 L 190.444 143.020 191.157 142.969 L 191.869 142.917 192.009 141.911 C 192.176 140.717,192.014 138.901,191.719 138.657 C 191.245 138.263,186.000 138.512,186.014 138.927 C 186.021 139.130,185.964 139.258,185.888 139.211 C 185.812 139.164,185.750 139.343,185.750 139.610 C 185.750 140.013,185.687 140.088,185.373 140.053 C 185.166 140.030,184.826 140.005,184.619 139.997 C 184.334 139.987,184.241 139.882,184.241 139.574 C 184.241 139.349,184.169 139.120,184.081 139.066 C 183.993 139.011,183.961 138.862,184.010 138.733 C 184.113 138.467,179.800 138.369,179.636 138.634 M215.947 138.690 C 215.965 138.802,215.929 139.007,215.867 139.145 C 215.806 139.283,215.775 143.055,215.799 147.527 L 215.842 155.658 218.189 155.658 L 220.536 155.658 220.473 153.357 L 220.410 151.055 223.573 151.010 L 226.736 150.964 226.788 150.215 C 226.851 149.309,226.819 149.344,227.608 149.313 C 228.126 149.292,228.249 149.223,228.254 148.952 C 228.258 148.768,228.312 148.534,228.374 148.433 C 228.504 148.223,228.516 142.603,228.388 142.054 C 228.323 141.776,228.134 141.668,227.564 141.583 C 226.825 141.472,226.644 141.120,226.803 140.109 C 226.814 140.040,226.484 139.983,226.069 139.983 C 225.371 139.983,225.314 139.951,225.314 139.553 C 225.314 138.458,225.437 138.485,220.444 138.486 C 216.988 138.487,215.922 138.535,215.947 138.690 M252.235 138.750 C 252.178 138.898,252.136 142.774,252.141 147.364 L 252.149 155.709 254.490 155.732 L 256.832 155.756 256.832 154.148 L 256.832 152.539 257.712 152.590 L 258.592 152.640 258.538 153.257 C 258.478 153.950,258.794 154.233,259.629 154.233 C 260.072 154.233,260.101 154.275,260.101 154.945 L 260.101 155.658 262.112 155.707 C 265.134 155.779,264.863 156.068,264.796 152.850 C 264.765 151.352,264.728 150.006,264.713 149.859 C 264.694 149.669,264.491 149.585,264.000 149.566 C 263.042 149.529,262.978 149.371,263.921 149.371 C 264.890 149.371,264.876 149.440,264.829 145.068 C 264.791 141.504,264.834 141.667,263.886 141.540 C 263.204 141.448,263.202 141.446,263.202 140.716 L 263.202 139.983 262.448 139.983 C 261.805 139.983,261.693 139.934,261.693 139.648 C 261.693 139.464,261.631 139.313,261.554 139.313 C 261.478 139.313,261.421 139.143,261.428 138.935 L 261.442 138.558 256.890 138.520 C 252.849 138.486,252.326 138.512,252.235 138.750 M288.847 138.731 C 288.689 138.922,288.555 152.369,288.679 155.608 C 288.682 155.672,291.141 155.731,294.143 155.737 L 299.602 155.749 299.549 153.440 L 299.497 151.132 297.108 151.085 L 294.719 151.039 294.719 150.205 L 294.719 149.371 297.156 149.371 L 299.594 149.371 299.571 147.108 C 299.558 145.811,299.484 144.885,299.397 144.939 C 299.314 144.990,299.246 144.957,299.246 144.865 C 299.246 144.773,299.316 144.654,299.402 144.601 C 299.490 144.546,299.545 143.221,299.527 141.531 L 299.497 138.558 294.274 138.522 C 289.860 138.491,289.020 138.524,288.847 138.731 M326.586 138.691 C 326.600 138.802,326.602 139.129,326.592 139.417 L 326.572 139.941 325.133 140.017 C 323.284 140.114,323.375 139.892,323.427 144.174 L 323.470 147.779 324.110 147.804 C 324.894 147.835,324.873 147.815,324.935 148.625 L 324.986 149.288 327.287 149.334 L 329.589 149.381 329.589 150.130 C 329.589 150.600,329.668 150.893,329.799 150.915 C 329.914 150.934,328.877 150.991,327.494 151.041 L 324.979 151.132 324.927 153.442 L 324.876 155.753 330.376 155.705 L 335.876 155.658 335.921 154.160 C 335.974 152.412,335.907 152.539,336.785 152.526 L 337.477 152.517 337.458 150.355 C 337.437 147.999,337.378 147.863,336.390 147.863 C 335.992 147.863,335.960 147.806,335.960 147.108 C 335.960 146.693,335.903 146.363,335.834 146.374 C 335.050 146.497,334.450 146.326,334.444 145.977 C 334.440 145.769,334.337 145.321,334.215 144.981 C 334.053 144.527,334.044 144.313,334.181 144.176 C 334.358 143.999,334.439 140.312,334.294 139.026 L 334.233 138.488 330.396 138.488 C 327.491 138.488,326.566 138.537,326.586 138.691 M362.992 138.774 C 363.061 139.782,362.869 139.935,361.429 140.019 C 359.684 140.120,359.771 139.900,359.768 144.216 L 359.765 147.863 360.520 147.863 C 361.299 147.863,361.426 148.076,361.288 149.157 C 361.268 149.308,361.888 149.374,363.651 149.409 L 366.041 149.455 366.046 150.251 L 366.052 151.048 363.705 151.064 C 362.414 151.073,361.088 151.068,360.759 151.053 C 359.862 151.013,359.785 151.218,359.819 153.565 L 359.849 155.658 365.925 155.691 C 371.804 155.723,372.006 155.714,372.177 155.396 C 372.290 155.184,372.335 153.535,372.304 150.753 L 372.255 146.438 371.459 146.386 C 370.636 146.334,370.510 146.128,370.650 145.054 C 370.665 144.939,370.611 144.845,370.530 144.845 C 370.449 144.845,370.383 144.735,370.383 144.601 C 370.383 144.467,370.435 144.389,370.498 144.428 C 370.632 144.511,370.883 141.043,370.758 140.841 C 370.712 140.767,370.661 140.207,370.644 139.597 L 370.614 138.488 366.793 138.488 C 363.292 138.488,362.974 138.512,362.992 138.774 M191.905 141.282 C 191.867 141.536,191.836 141.329,191.836 140.821 C 191.836 140.314,191.867 140.107,191.905 140.360 C 191.944 140.614,191.944 141.029,191.905 141.282 M221.626 144.800 C 220.891 144.886,220.768 145.008,220.615 145.800 C 220.494 146.423,220.491 146.417,220.472 145.557 L 220.453 144.677 221.333 144.704 C 222.005 144.725,222.075 144.747,221.626 144.800 M258.592 145.348 C 258.677 145.852,258.796 146.039,259.068 146.096 C 259.267 146.138,259.581 146.205,259.765 146.244 C 259.950 146.283,259.686 146.330,259.179 146.349 C 256.892 146.433,257.085 146.367,257.066 147.070 C 257.028 148.459,256.832 147.813,256.832 146.298 L 256.832 144.677 257.655 144.677 L 258.478 144.677 258.592 145.348 " stroke="none" fill="#3c3c3c" fill-rule="evenodd"></path><path id="path2" d="" stroke="none" fill="#d0e034" fill-rule="evenodd"></path><path id="path3" d="M169.891 82.230 C 169.891 83.613,169.917 84.156,169.949 83.437 C 169.980 82.719,169.980 81.587,169.948 80.923 C 169.917 80.258,169.891 80.847,169.891 82.230 M282.202 106.287 C 282.202 106.978,282.232 107.261,282.268 106.915 C 282.304 106.570,282.304 106.004,282.268 105.658 C 282.232 105.312,282.202 105.595,282.202 106.287 M398.871 116.298 C 399.126 116.337,399.503 116.336,399.709 116.296 C 399.915 116.256,399.707 116.224,399.246 116.226 C 398.785 116.227,398.616 116.259,398.871 116.298 M169.886 124.225 C 169.886 125.193,169.914 125.589,169.948 125.105 C 169.981 124.621,169.981 123.829,169.948 123.345 C 169.914 122.860,169.886 123.256,169.886 124.225 M191.836 140.821 C 191.836 141.329,191.867 141.536,191.905 141.282 C 191.944 141.029,191.944 140.614,191.905 140.360 C 191.867 140.107,191.836 140.314,191.836 140.821 M288.593 147.863 C 288.593 151.505,288.615 152.995,288.642 151.174 C 288.669 149.352,288.669 146.373,288.642 144.552 C 288.615 142.731,288.593 144.220,288.593 147.863 M220.503 145.516 C 220.503 146.023,220.534 146.230,220.573 145.977 C 220.611 145.723,220.611 145.308,220.573 145.054 C 220.534 144.801,220.503 145.008,220.503 145.516 M294.769 150.210 C 294.769 150.717,294.801 150.924,294.839 150.671 C 294.878 150.417,294.878 150.002,294.839 149.749 C 294.801 149.495,294.769 149.702,294.769 150.210 M220.515 152.724 C 220.515 153.692,220.542 154.088,220.576 153.604 C 220.610 153.120,220.610 152.328,220.576 151.844 C 220.542 151.360,220.515 151.756,220.515 152.724 " stroke="none" fill="#6c9034" fill-rule="evenodd"></path><path id="path4" d="" stroke="none" fill="#703c34" fill-rule="evenodd"></path></g></svg>