<svg xmlns="http://www.w3.org/2000/svg" viewBox="0 0 150 60.3"><defs><style>.a{fill:#aa2641;}.b{fill:#272324;}.c{fill:#72103d;}</style></defs><g transform="translate(0 -0.021)"><path class="a" d="M238.62,20.78h18.373c.281,0,.643-.161.764.121.161.322-.2.6-.4.844-1.407,1.689-2.854,3.377-4.3,5.066-2.613,3.055-5.307,6.031-7.8,9.126-.482.563-.724.563-1.086-.08-1.045-2.05-2.05-4.141-3.055-6.232a1.305,1.305,0,0,0-1.287-.844c-.6.04-1.206,0-1.809,0-.442,0-.6.161-.4.6.965,1.93,1.93,3.819,2.895,5.749l1.809,3.5c.2.362.04.643-.241.925-2.332,2.734-4.664,5.427-7,8.161-1.488,1.769-3.015,3.5-4.5,5.267a1.848,1.848,0,0,1-1.568.683H203.161c-1.045,0-1.086-.04-.6-.965,1.528-2.935,3.055-5.83,4.583-8.764,1.447-2.814,2.895-5.629,4.382-8.4,1.488-2.814,2.975-5.548,4.463-8.362,1.045-1.97,2.05-3.94,3.055-5.91a1.084,1.084,0,0,1,1.085-.563h15.559C236.691,20.78,237.656,20.78,238.62,20.78ZM223.7,40.48v.08h8.362a7.807,7.807,0,0,0,.965-.08.613.613,0,0,0,.6-.683c0-.8.08-1.568.08-2.372a8.807,8.807,0,0,0-.844-4.262,9.086,9.086,0,0,0-6.835-4.824,11,11,0,0,0-5.106.482,12.294,12.294,0,0,0-4.02,2.05,15.308,15.308,0,0,0-4.583,5.669,11.038,11.038,0,0,0-1.005,4.262,8.994,8.994,0,0,0,2.613,7.317,8.723,8.723,0,0,0,3.98,2.131,10.959,10.959,0,0,0,4.7.161,15.384,15.384,0,0,0,5.307-2.372,13.214,13.214,0,0,0,3.819-3.94c.2-.281.4-.724-.04-.965a3.217,3.217,0,0,0-3.015.683,9.824,9.824,0,0,1-5.387,3.538,9.044,9.044,0,0,1-4.744,0c-2.292-.683-4.5-3.257-4.221-5.95.04-.563.2-.764.764-.764C218,40.52,220.85,40.48,223.7,40.48Z" transform="translate(-120.944 -12.366)"/><path class="b" d="M158.4,61.839h-4.945c-.8,0-.925-.121-.6-.844.6-1.447,1.246-2.854,1.849-4.262.764-1.769,1.568-3.5,2.372-5.226.925-2.01,1.849-4.02,2.734-6.071.724-1.648,1.488-3.257,2.211-4.945a.908.908,0,0,1,.965-.643c3.7.04,7.4-.241,11.1.322,2.211.322,4.3,1.126,5.387,3.337a4.943,4.943,0,0,1,.563,2.814A17.739,17.739,0,0,1,162.5,61.758C161.1,61.839,159.769,61.839,158.4,61.839ZM168.534,46.8c-1.126-.08-1.166-.08-1.568.8-.482.965-.884,1.93-1.327,2.895-.6,1.327-1.206,2.694-1.849,4.02-.241.523-.04.683.482.683a7.089,7.089,0,0,0,2.05-.362,6.9,6.9,0,0,0,4.824-5.709,2.083,2.083,0,0,0-1.086-1.97A3.251,3.251,0,0,0,168.534,46.8Z" transform="translate(-91.302 -23.794)"/><path class="b" d="M55.363,61.911H48.609c-.724,0-.884-.281-.6-.925,1.246-2.734,2.452-5.468,3.7-8.2L54.84,45.91c.764-1.689,1.528-3.377,2.251-5.066A1.174,1.174,0,0,1,58.3,40H71.4c.8,0,.965.281.6,1.045-.643,1.367-1.287,2.774-1.89,4.141a1.125,1.125,0,0,1-1.166.8H63.645a.955.955,0,0,0-1.085.764c0,.08-.04.121-.04.2-.442,1.166-.442,1.166.8,1.166h4.061c.643,0,.764.241.523.8-.643,1.407-1.327,2.774-1.93,4.221a.854.854,0,0,1-.965.563H60.469a2.094,2.094,0,0,0-1.769,1.93c.04.4.4.322.643.322h5.025c.965,0,1.086.121.683,1.005-.643,1.568-1.407,3.055-2.091,4.583-.161.4-.523.362-.8.362Z" transform="translate(-28.627 -23.906)"/><path class="b" d="M26.627,41.017c-.04.08-.04.2-.08.281a61.254,61.254,0,0,1-4.141,4.945.086.086,0,0,1-.08.08.323.323,0,0,1-.563.04,4.323,4.323,0,0,0-4.7-1.246,6.966,6.966,0,0,0-.844.683c-.482.563-.442.8.241,1.126a4.057,4.057,0,0,0,.6.281c.08,0,3.176.563,4.583,1.89a1.992,1.992,0,0,1,.8,1.809c0,.281.322,2.412-2.493,5.789a20.609,20.609,0,0,1-2.935,2.493,15.309,15.309,0,0,1-7.2,2.332c-2.171.2-7.076-.884-7.2-.925-1.689-.6-1.769-.8-.643-2.131,1.206-1.488,2.493-2.935,3.739-4.382.362-.442.643-.4,1.045,0a4.962,4.962,0,0,0,4.985,1.568,2.238,2.238,0,0,0,1.085-.6,1.105,1.105,0,0,0,.442-1.086c-.121-.482-.523-.4-.8-.523-.925-.362-1.97-.362-2.895-.683-2.734-.884-3.176-2.774-2.452-5.025a8.939,8.939,0,0,1,2.091-3.417C16.5,37,23.974,39.409,24.255,39.65,24.376,39.69,26.225,40.173,26.627,41.017Z" transform="translate(-0.736 -23.355)"/><path class="c" d="M316.4.093c-3.659,4.221-7.277,8.4-10.9,12.584-2.975,3.417-5.91,6.875-8.885,10.292a.8.8,0,0,0-.121,1.045c.8,1.648,1.608,3.3,2.412,4.9.925,1.849,1.849,3.659,2.734,5.508.523,1.085,1.045,2.211,1.568,3.3.161.322,0,.362-.2.4a3.25,3.25,0,0,1-.643.04h-6.433c-1.608,0-1.568-.04-2.211-1.528-.764-1.849-1.648-3.7-2.533-5.508-.241-.523-.523-.121-.724.08-.965,1.045-1.93,2.131-2.895,3.176-2.01,2.211-3.98,4.382-5.95,6.593a1.415,1.415,0,0,1-1.287.523c-.523-.04-1.086,0-1.608,0-.482,0-.6-.161-.241-.563.925-1.005,1.769-2.091,2.734-3.055,1.769-1.689,3.337-3.578,5.025-5.347,2.854-3.055,5.548-6.272,8.443-9.327,1.689-1.769,3.337-3.578,4.985-5.387,2.292-2.493,4.5-5.106,6.794-7.6,3.015-3.3,6.031-6.593,9.006-9.89C315.756-.028,315.957-.028,316.4.093Z" transform="translate(-166.399 0)"/><path class="a" d="M74.9,109.064H.442A.4.4,0,0,1,0,108.622c0-.322.2-.322.442-.322H148.874a3.679,3.679,0,0,1,.683.04c.2.04.4.04.362.322-.04.2-.121.362-.322.362-.281,0-.563.04-.844.04Z" transform="translate(0 -64.747)"/><path class="b" d="M282.3,126.393V121.85c0-.925.04-.965.925-.965,1.528,0,3.015-.04,4.543.04a3.236,3.236,0,0,1,2.653,1.126,3.013,3.013,0,0,1-1.005,4.7c-.482.241-.362.482-.121.724a26.157,26.157,0,0,1,2.412,3.538c.4.6.281.643-.442.8-1.447.322-2.05-.6-2.613-1.608a17.378,17.378,0,0,0-1.327-2.01,2.574,2.574,0,0,0-2.533-.925c-.442.04-.442.4-.442.724,0,1.005-.04,2.01,0,3.015.04.6-.241.844-.8.8h-.563c-.482.04-.683-.161-.643-.643v-.121C282.3,129.448,282.3,127.921,282.3,126.393Zm3.86-.925h0c.523-.04,1.005,0,1.528-.04a1.5,1.5,0,0,0,1.367-1.206c.08-.764-.241-1.166-1.086-1.407a14.015,14.015,0,0,0-3.176-.121.445.445,0,0,0-.442.442,4.2,4.2,0,0,0,.08,2.131c.281.523,1.086.121,1.648.2Z" transform="translate(-168.805 -72.266)"/><path class="b" d="M163.8,126.468v-4.543c0-.764.161-.925.965-.925h6.272c.764,0,.925.161.925.965,0,.724-.2.965-.965.965h-4.382c-.563,0-.8.121-.764.764.08,1.729-.362,1.729,1.729,1.729h3.136c.6,0,.884.2.884.844-.04.844-.121.965-.884,1.005h-4.181c-.523,0-.724.161-.683.683a8.219,8.219,0,0,1,0,1.407c-.04.563.161.8.8.8,1.568-.04,3.176.04,4.744-.04.724-.04.8.322.764.884,0,.523,0,.925-.724.925q-3.377-.06-6.754,0c-.563,0-.844-.2-.8-.8C163.8,129.523,163.8,128,163.8,126.468Z" transform="translate(-97.946 -72.341)"/><path class="b" d="M86.965,126.122a6.206,6.206,0,0,1-.884,3.417c-.362.523-.2.8.442,1.086.8.4.8.4.322,1.367-.322.643-.683.281-1.085.08a9.032,9.032,0,0,1-.844-.482,1.393,1.393,0,0,0-1.287-.2,5.183,5.183,0,0,1-6.191-2.01A5.66,5.66,0,0,1,76.593,126a5.242,5.242,0,0,1,2.452-4.784c2.372-1.447,6.232-.764,7.478,2.292A13.158,13.158,0,0,1,86.965,126.122Zm-5.025,2.131a3.488,3.488,0,0,1,1.608.643.611.611,0,0,0,.925-.241,4.352,4.352,0,0,0,.442-1.206,4.2,4.2,0,0,0-.281-3.417,3.052,3.052,0,0,0-3.337-1.809,3.519,3.519,0,0,0-2.573,1.89,6.241,6.241,0,0,0-.08,3.739A3.08,3.08,0,0,0,81.98,130.1c-.362-.563-.121-1.126-.121-1.689C81.9,128.293,81.9,128.253,81.94,128.253Z" transform="translate(-45.797 -72.036)"/><path class="b" d="M123.871,124.966c0,1.126-.04,2.292,0,3.417a1.729,1.729,0,0,0,1.608,1.608c2.171.2,2.935-.482,2.975-2.694.04-1.849,0-3.739,0-5.588,0-.884.04-.884.965-.884.884,0,1.045.121,1.045.884,0,2.05.04,4.1-.04,6.151a3.936,3.936,0,0,1-1.126,2.895,4.7,4.7,0,0,1-4.02,1.085,3.521,3.521,0,0,1-2.895-1.648,4.726,4.726,0,0,1-.643-2.332c0-2.091,0-4.181-.04-6.272,0-.8.442-.844,1.005-.8.844.04,1.005.121,1.005.844v3.3A.3.3,0,0,0,123.871,124.966Z" transform="translate(-72.772 -72.206)"/><path class="b" d="M43.991,131.779c-.965,0-1.045-.08-1.367-1.045-.161-.482-.322-.965-.523-1.447a.846.846,0,0,0-.925-.6c-.8.04-1.648.04-2.452,0a.855.855,0,0,0-1.005.724c-.121.563-.442,1.085-.563,1.648a1.641,1.641,0,0,1-2.05.6c-.2-.161-.121-.322-.08-.482.241-1.005.724-1.93,1.045-2.935.442-1.327,1.005-2.613,1.528-3.94.4-1.005.724-2.05,1.206-3.015.322-.643.884-.322,1.367-.4a.723.723,0,0,1,.844.482c.683,1.729,1.407,3.417,2.091,5.106.6,1.447,1.166,2.854,1.729,4.3.4.925.362,1.005-.643,1.005Zm-4.02-8.041a12.974,12.974,0,0,0-.925,2.05c-.482,1.005-.322,1.246.8,1.246h.4c.683,0,.884-.241.643-.884C40.614,125.346,40.292,124.582,39.97,123.738Z" transform="translate(-20.914 -72.265)"/><path class="b" d="M0,126.408v-4.583c0-.643.2-.925.884-.925,1.488.04,2.975-.04,4.463.08a2.963,2.963,0,0,1,2.734,1.608c.965,1.97.161,4.784-2.573,4.985a22.552,22.552,0,0,1-2.854.04c-.442,0-.643.161-.6.6,0,.965-.04,1.97,0,2.935,0,.482-.2.683-.643.643h-.2C.04,131.8.04,131.8.04,130.67,0,129.262,0,127.855,0,126.408Zm3.779-3.618h0c-.4,0-.8.04-1.206,0-.4,0-.563.161-.563.523V125.4c0,.2.04.442.281.4a9.827,9.827,0,0,0,3.256-.2,1.525,1.525,0,0,0,.925-1.488,1.27,1.27,0,0,0-1.287-1.287C4.7,122.79,4.262,122.83,3.779,122.79Z" transform="translate(0 -72.281)"/><path class="b" d="M250.381,131.569c-.161.241-.4.161-.643.161h-6.674a.889.889,0,0,1-.764-.241c0-.2.04-.4.04-.6v-8.362a5.872,5.872,0,0,1,.121-1.447c.161-.281.442-.2.683-.2H249.3c.281,0,.643-.121.764.281.04.4.121.764.161,1.166l-.362.362c-1.769-.161-3.538-.04-5.347-.04-.121,0-.161.08-.2.161a7.02,7.02,0,0,0-.08,2.251c-.04.442.281.4.563.4h3.136c1.608,0,1.608,0,1.608,1.608-1.608.121-3.176.04-4.784.04-.482-.2-.683,0-.683.482,0,.643.04,1.246,0,1.89-.04.563.2.724.724.724,1.287-.04,2.613,0,3.9,0,.523,0,1.085-.2,1.488.08C250.582,130.524,250.22,131.167,250.381,131.569Z" transform="translate(-144.886 -72.256)"/><path class="b" d="M205.427,127.292v-3.779c0-.482-.161-.724-.683-.683-.683.04-1.367,0-2.01,0-.764,0-.643-.563-.643-1.045,0-.442-.08-.884.643-.884,2.452.04,4.945,0,7.4,0,.683,0,.724.4.724.925s-.04,1.005-.724,1.005c-.6,0-1.206.04-1.809,0-.643-.04-.844.2-.844.844.04,2.452,0,4.865,0,7.317,0,.281.121.683-.322.764a2.446,2.446,0,0,1-1.608-.08c-.2-.121-.08-.4-.121-.6Z" transform="translate(-120.838 -72.281)"/><path class="b" d="M351.277,122.754c.04-.121.08-.281.121-.4a1.708,1.708,0,0,0,.4-.683c.241-.643.8-.442,1.246-.482a.587.587,0,0,1,.724.442c.322.925.764,1.809,1.126,2.734.442,1.085.884,2.131,1.327,3.216.482,1.206.884,2.412,1.447,3.538.322.643.121.683-.4.643h-.844a.387.387,0,0,1-.4-.281c-.241-.683-.6-1.327-.8-2.05a1.122,1.122,0,0,0-1.166-.884,21.037,21.037,0,0,1-2.251-.04,1.168,1.168,0,0,0-1.286.8,12.241,12.241,0,0,0-.563,1.568,1.257,1.257,0,0,1-2.05.6c.04-.121.04-.281.08-.4a4.416,4.416,0,0,0,.764-1.849c.04-.121.08-.281.121-.4a.564.564,0,0,0,.322-.724c.04-.121.08-.281.121-.4.08-.04.2-.08.2-.161a19.621,19.621,0,0,0,.925-2.573c.121-.4.563-.683.4-1.206.04-.121.08-.281.121-.4C351.277,123.357,351.357,123.076,351.277,122.754Zm1.568,4.664h0c.322-.04.643,0,.965-.04.362-.04.523-.281.362-.6-.442-.884-.563-1.849-1.086-2.694-.08-.161-.121-.362-.362-.362-.241.04-.2.241-.322.4-.322.563-.362,1.206-.683,1.769-.563.965-.281,1.528.8,1.528Z" transform="translate(-208.031 -72.447)"/><path class="b" d="M122.312,40.6c-.884,1.809-1.689,3.7-2.493,5.548-.884,2.01-1.849,3.98-2.774,5.99-.764,1.689-1.488,3.417-2.251,5.106-.563,1.287-1.126,2.573-1.729,3.819a.942.942,0,0,1-.925.563q-3.256-.06-6.513,0c-.643,0-.844-.281-.925-.844-.2-1.367-.442-2.694-.683-4.02-.2-1.287-.4-2.573-.563-3.86a16.612,16.612,0,0,1-.523-2.533,5.63,5.63,0,0,0-.563,1.488,34.7,34.7,0,0,1-1.97,4.9c-.6,1.407-1.246,2.774-1.849,4.141a.946.946,0,0,1-.965.724H91.073c-.563,0-.764-.241-.523-.8.764-1.689,1.568-3.377,2.332-5.066s1.488-3.417,2.251-5.106c.6-1.367,1.246-2.694,1.89-4.061.643-1.407,1.246-2.814,1.89-4.221.362-.844.8-1.648,1.166-2.493a.705.705,0,0,1,.764-.442h6.634c.482,0,.643.161.724.6.322,1.93.6,3.9.884,5.83.241,1.769.563,3.578.8,5.347,0,.08.04.121.161.322A24.777,24.777,0,0,1,111.055,48a35.21,35.21,0,0,1,1.407-3.377c.643-1.447,1.287-2.854,1.93-4.262a1.239,1.239,0,0,1,1.327-.965c1.97.04,3.94,0,5.95,0C122.673,39.436,122.794,39.637,122.312,40.6Z" transform="translate(-54.086 -23.543)"/><path class="b" d="M325,122.328v-4.463c0-.322.121-.643-.241-.965-.121-.08.2-.724.4-1.086a1.808,1.808,0,0,0,.241-.482,1.387,1.387,0,0,1,1.689-.6c.281.2.161.4-.08.6a5.513,5.513,0,0,0-1.166,1.689c-.121.241-.161.4.2.4s.4.241.4.523v9.367c0,.683-.442.482-.8.523-.442.04-.683-.04-.683-.6C325,125.664,325,124.016,325,122.328Z" transform="translate(-194.179 -68.523)"/><path class="a" d="M241.363,53.341h-7.317c-.724,0-.884-.241-.523-.884a10.815,10.815,0,0,1,5.387-5.146c2.895-1.246,6.875-1.327,9.327,1.89a8.994,8.994,0,0,1,1.327,3.578c.08.322-.04.482-.362.523-.2,0-.4.04-.643.04Z" transform="translate(-139.527 -27.799)"/></g></svg>