<svg xmlns="http://www.w3.org/2000/svg" viewBox="0 0 54.709 65"><defs><style>.a{fill:#f9b70a;}.b{fill:#311506;}</style></defs><g transform="translate(-620.4 -177.295)"><path class="a" d="M675.065,200.335v15.4a21.881,21.881,0,0,1-1.475,7.983,19.607,19.607,0,0,1-8.07,9.675c-2.169,1.345-4.425,2.56-6.725,3.731-3.558,1.822-7.2,3.471-10.846,5.119a.5.5,0,0,1-.434,0c-4.382-1.909-8.72-3.948-12.929-6.161a55.163,55.163,0,0,1-5.163-2.994,19.281,19.281,0,0,1-8.2-11.28,22.887,22.887,0,0,1-.824-6.421v-31.8a.379.379,0,0,1,.26-.39,49.179,49.179,0,0,1,10.282-3.9,57.135,57.135,0,0,1,6.594-1.3c1.692-.26,3.384-.391,5.076-.521a76.8,76.8,0,0,1,8.937-.087c2.082.087,4.208.3,6.247.564a57.623,57.623,0,0,1,11.41,2.777,43.553,43.553,0,0,1,5.64,2.473.436.436,0,0,1,.26.434c-.043,5.51-.043,11.107-.043,16.7Zm-2.516.217v-16.4c0-.217,0-.217-.217-.26-.954-.087-1.952-.174-2.907-.217q-2.864-.2-5.727-.26c-1.952-.043-3.9,0-5.857.087-1.345.087-2.733.174-4.078.3-1.866.174-3.775.477-5.64.824a55.121,55.121,0,0,0-9.068,2.516,50.039,50.039,0,0,0-15.966,9.632.788.788,0,0,0-.26.607v18.569a20.314,20.314,0,0,0,.824,5.6,16.919,16.919,0,0,0,6.985,9.415,48.947,48.947,0,0,0,4.6,2.69c3.992,2.126,8.113,4.035,12.235,5.857a.415.415,0,0,0,.39,0q3.71-1.627,7.289-3.384c2.516-1.215,5.033-2.473,7.462-3.9a26.981,26.981,0,0,0,3.3-2.169,17.076,17.076,0,0,0,6.031-9.675,21.921,21.921,0,0,0,.521-5.076C672.549,210.357,672.549,205.454,672.549,200.552Z" transform="translate(0 0)"/><path class="b" d="M675.833,208.4v14.664a22.418,22.418,0,0,1-.521,5.076,17.075,17.075,0,0,1-6.031,9.675,26.958,26.958,0,0,1-3.3,2.169c-2.429,1.432-4.946,2.69-7.462,3.9q-3.644,1.757-7.289,3.384a.415.415,0,0,1-.391,0c-4.122-1.866-8.243-3.775-12.235-5.857a48.889,48.889,0,0,1-4.6-2.69,16.772,16.772,0,0,1-6.985-9.415,18.8,18.8,0,0,1-.824-5.6V205.148a.787.787,0,0,1,.26-.607,48.086,48.086,0,0,1,15.966-9.632,59.765,59.765,0,0,1,9.068-2.516c1.866-.347,3.731-.607,5.64-.824,1.345-.13,2.69-.217,4.078-.3,1.952-.087,3.9-.13,5.857-.087q2.864.065,5.727.26c.954.087,1.952.13,2.907.217.217,0,.217,0,.217.26v.217C675.833,197.6,675.833,203.022,675.833,208.4Zm-25.771,20.261c.043-.043.13,0,.174,0a8.834,8.834,0,0,0,2.82.174,6.865,6.865,0,0,0,3.514-1.345,8.671,8.671,0,0,0,2.6-3.384,15.685,15.685,0,0,0,1.215-4.859,19.37,19.37,0,0,0-.174-5.25A12.81,12.81,0,0,0,659,210.224a7.579,7.579,0,0,0-6.378-4.208,12.265,12.265,0,0,0-3.558.174,10.89,10.89,0,0,0-3.6,1.3.544.544,0,0,0-.26.477v30.543a.115.115,0,0,0,.13.13h4.3c.347,0,.347.043.347-.347v-9.328C650.062,228.88,650.018,228.793,650.062,228.663Zm-7.2-11.931V206.71c0-.347,0-.3-.3-.3h-4.078c-.434,0-.347-.043-.347.39V224.02a.476.476,0,0,1-.347.521,4.314,4.314,0,0,1-2.343.347,2.144,2.144,0,0,1-1.735-1.215,1.558,1.558,0,0,1-.174-.477,5.955,5.955,0,0,1-.217-1.735V206.666c0-.217,0-.217-.217-.217h-4.165c-.39,0-.347-.043-.347.347v15.011a9.826,9.826,0,0,0,.477,2.994,5.574,5.574,0,0,0,2.907,3.427,7.518,7.518,0,0,0,2.907.694,14.937,14.937,0,0,0,3.688-.217,10.9,10.9,0,0,0,3.948-1.475.55.55,0,0,0,.3-.564C642.86,223.413,642.86,220.072,642.86,216.732Zm19,6.464a.16.16,0,0,0-.043.13v4.035a.238.238,0,0,0,.173.26,9.14,9.14,0,0,0,1.128.564,9.566,9.566,0,0,0,5.814.651,6.069,6.069,0,0,0,4.555-3.861,7.434,7.434,0,0,0,.434-3.644,5.968,5.968,0,0,0-1.475-3.427,7.6,7.6,0,0,0-1.041-1,14.977,14.977,0,0,0-2.429-1.649,13.137,13.137,0,0,1-1.649-1.041,2.522,2.522,0,0,1-.738-.781,2.341,2.341,0,0,1,1.3-3.6,4.625,4.625,0,0,1,2.039-.043,7.02,7.02,0,0,1,3.08,1.605c.087.043.13.174.26.174v-3.9a.309.309,0,0,0-.13-.26,5.486,5.486,0,0,0-.954-.564,8.046,8.046,0,0,0-3.3-.824,7.384,7.384,0,0,0-4.165.954,5.776,5.776,0,0,0-2.863,3.861,7.356,7.356,0,0,0-.087,2.386,5.208,5.208,0,0,0,1.128,2.863,8.31,8.31,0,0,0,1.909,1.779c.651.477,1.388.911,2.083,1.345a8.156,8.156,0,0,1,1.562,1.171,2.98,2.98,0,0,1,.911,2.343,2.372,2.372,0,0,1-1.649,2.213,3.573,3.573,0,0,1-1.518.174,7.743,7.743,0,0,1-2.733-.868A8.576,8.576,0,0,1,661.863,223.2Z" transform="translate(-3.284 -7.85)"/><path class="a" d="M674.972,248.024c-.043.087,0,.217,0,.347V257.7c0,.347.044.347-.347.347H670.33a.115.115,0,0,1-.13-.13V227.373a.467.467,0,0,1,.26-.477,10.889,10.889,0,0,1,3.6-1.3,12.19,12.19,0,0,1,3.558-.174A7.726,7.726,0,0,1,684,229.629a11.655,11.655,0,0,1,1.215,3.775,21.3,21.3,0,0,1,.174,5.25,15.685,15.685,0,0,1-1.215,4.859,8.371,8.371,0,0,1-2.6,3.384,6.865,6.865,0,0,1-3.514,1.345,8.759,8.759,0,0,1-2.82-.174A.645.645,0,0,0,674.972,248.024Zm0-11.237v7.072c0,.26,0,.26.26.3a3.9,3.9,0,0,0,1.735.174,2.97,2.97,0,0,0,2.126-1.128,4.788,4.788,0,0,0,.651-1.128,10.211,10.211,0,0,0,.607-2.256,21.446,21.446,0,0,0,.217-4.078,18.063,18.063,0,0,0-.3-3.08,7.1,7.1,0,0,0-.781-2.083,2.832,2.832,0,0,0-1.866-1.345,4.317,4.317,0,0,0-2.343.13c-.3.087-.3.087-.3.39Z" transform="translate(-28.194 -27.211)"/><path class="a" d="M646.029,236.68v9.979a.632.632,0,0,1-.3.564,11.756,11.756,0,0,1-3.948,1.475,15.06,15.06,0,0,1-3.688.217,7.518,7.518,0,0,1-2.907-.694,5.692,5.692,0,0,1-2.907-3.427,11.661,11.661,0,0,1-.477-2.994V226.788c0-.434-.043-.347.347-.347h4.165c.217,0,.217,0,.217.217v14.794a5.775,5.775,0,0,0,.217,1.735,2.12,2.12,0,0,0,.174.477,2.005,2.005,0,0,0,1.736,1.215,4.836,4.836,0,0,0,2.343-.347.476.476,0,0,0,.347-.521V226.788c0-.434-.043-.39.347-.39h4.078c.3,0,.3-.043.3.3v8.59C646.029,235.726,646.029,236.2,646.029,236.68Z" transform="translate(-6.452 -27.798)"/><path class="a" d="M707.986,242.449a6.338,6.338,0,0,0,1.432.954,6.737,6.737,0,0,0,2.733.868,3.573,3.573,0,0,0,1.518-.174,2.33,2.33,0,0,0,1.649-2.213,2.98,2.98,0,0,0-.911-2.343,10.481,10.481,0,0,0-1.562-1.171,21.277,21.277,0,0,1-2.083-1.345,10.566,10.566,0,0,1-1.909-1.779,5.864,5.864,0,0,1-1.128-2.863,7.308,7.308,0,0,1,.087-2.386,5.91,5.91,0,0,1,2.863-3.861,7.384,7.384,0,0,1,4.165-.954,9.458,9.458,0,0,1,3.3.824,6.9,6.9,0,0,1,.954.564.262.262,0,0,1,.13.26v3.9c-.13,0-.174-.087-.26-.174a6.792,6.792,0,0,0-3.08-1.605,4.061,4.061,0,0,0-2.039.043,2.3,2.3,0,0,0-1.3,3.6,4.235,4.235,0,0,0,.738.781,13.151,13.151,0,0,0,1.649,1.041,13.3,13.3,0,0,1,2.43,1.649,7.6,7.6,0,0,1,1.041,1,5.968,5.968,0,0,1,1.475,3.427,7.433,7.433,0,0,1-.434,3.644A6.069,6.069,0,0,1,714.884,248a9.566,9.566,0,0,1-5.814-.651c-.39-.174-.737-.347-1.128-.564a.238.238,0,0,1-.174-.26v-4.035C707.943,242.535,707.943,242.492,707.986,242.449Z" transform="translate(-49.407 -27.102)"/><path class="b" d="M681.2,241.713v-7.028c0-.3,0-.3.3-.39a4.317,4.317,0,0,1,2.343-.13,2.831,2.831,0,0,1,1.866,1.345,7.1,7.1,0,0,1,.781,2.083,14.549,14.549,0,0,1,.3,3.08,21.248,21.248,0,0,1-.217,4.078,9.6,9.6,0,0,1-.607,2.256,5.845,5.845,0,0,1-.651,1.128,3.134,3.134,0,0,1-2.126,1.128,4.646,4.646,0,0,1-1.735-.174c-.217-.087-.26-.087-.26-.3v-7.072Z" transform="translate(-34.422 -32.137)"/></g></svg>