<?xml version="1.0" encoding="UTF-8" standalone="no"?>
<!DOCTYPE svg PUBLIC "-//W3C//DTD SVG 1.1//EN" "http://www.w3.org/Graphics/SVG/1.1/DTD/svg11.dtd">
<svg width="100%" height="100%" viewBox="0 0 271 80" version="1.1" xmlns="http://www.w3.org/2000/svg" xmlns:xlink="http://www.w3.org/1999/xlink" xml:space="preserve" xmlns:serif="http://www.serif.com/" style="fill-rule:evenodd;clip-rule:evenodd;stroke-linejoin:round;stroke-miterlimit:2;">
    <g transform="matrix(1,0,0,1,-263.706,-4035.45)">
        <g transform="matrix(1,0,0,1,-0.66372,122.603)">
            <g transform="matrix(1,0,0,1,-16.7978,258.813)">
                <path d="M281.25,3668.17L281.168,3712.99L324.864,3734.03L324.906,3687.5L281.25,3668.17Z" style="fill:rgb(0,164,155);"/>
                <g transform="matrix(-1,0,0,1,652.718,0)">
                    <path d="M281.25,3668.17L281.168,3712.99L324.864,3734.03L324.906,3687.5L281.25,3668.17Z" style="fill:rgb(0,82,70);"/>
                </g>
                <path d="M283.88,3666.49L326.171,3685.03L332.864,3682.05L332.905,3654.03L283.88,3666.49Z" style="fill:rgb(250,191,0);"/>
                <path d="M335.276,3654.03L335.512,3680.85L369.588,3666.25L335.276,3654.03Z" style="fill:rgb(244,110,0);"/>
            </g>
            <g transform="matrix(0.574837,0,0,0.574837,146.351,1846.63)">
                <text x="389.217px" y="3682.18px" style="font-family:'Arial-BoldMT', 'Arial', sans-serif;font-weight:700;font-size:50.739px;">VENCEDOR</text>
            </g>
        </g>
    </g>
</svg>
