<svg id="svg" version="1.1" xmlns="http://www.w3.org/2000/svg" xmlns:xlink="http://www.w3.org/1999/xlink" width="400" height="268.76640419947506" viewBox="0, 0, 400,268.76640419947506"><g id="svgg"><path id="path0" d="M198.790 6.486 C 197.619 7.636,197.380 7.796,196.828 7.796 C 196.513 7.796,196.126 8.038,195.968 8.333 C 195.809 8.629,195.452 8.871,195.174 8.871 C 194.381 8.871,193.817 9.162,193.817 9.572 C 193.817 9.792,193.540 9.946,193.145 9.946 C 192.776 9.946,192.231 10.188,191.935 10.484 C 191.640 10.780,191.216 11.022,190.995 11.022 C 190.771 11.022,190.591 11.260,190.591 11.559 C 190.591 11.949,190.412 12.097,189.941 12.097 C 189.013 12.097,188.441 12.364,188.441 12.798 C 188.441 13.045,188.128 13.172,187.518 13.172 C 186.831 13.172,186.552 13.310,186.425 13.710 C 186.331 14.005,186.030 14.247,185.757 14.247 C 184.972 14.247,184.409 14.540,184.409 14.948 C 184.409 15.154,184.167 15.323,183.871 15.323 C 183.513 15.323,183.333 15.502,183.333 15.860 C 183.333 16.308,183.154 16.398,182.258 16.398 C 181.488 16.398,181.183 16.511,181.183 16.796 C 181.183 17.015,180.850 17.267,180.444 17.356 C 179.182 17.632,178.993 17.729,179.165 18.009 C 179.258 18.158,179.235 18.289,179.115 18.300 C 178.151 18.388,177.508 18.641,177.081 19.098 C 176.806 19.394,176.459 19.560,176.310 19.468 C 176.161 19.376,175.973 19.555,175.891 19.865 C 175.763 20.356,175.196 20.584,174.403 20.465 C 174.297 20.449,174.081 20.676,173.923 20.970 C 173.733 21.325,173.361 21.505,172.815 21.505 C 172.232 21.505,171.954 21.655,171.859 22.018 C 171.774 22.340,171.395 22.592,170.835 22.697 C 170.345 22.789,169.876 23.042,169.792 23.260 C 169.709 23.478,169.395 23.656,169.094 23.656 C 168.728 23.656,168.548 23.832,168.548 24.194 C 168.548 24.583,168.369 24.731,167.898 24.731 C 166.970 24.731,166.398 24.999,166.398 25.432 C 166.398 25.783,165.711 25.945,164.785 25.813 C 164.563 25.781,164.471 25.846,164.581 25.958 C 164.874 26.256,164.261 26.882,163.677 26.882 C 163.399 26.882,162.930 27.124,162.634 27.419 C 162.339 27.715,161.924 27.957,161.713 27.957 C 161.502 27.957,161.289 28.168,161.239 28.427 C 161.189 28.685,160.969 28.909,160.749 28.924 C 160.529 28.938,160.077 28.969,159.745 28.991 C 159.404 29.014,159.140 29.209,159.140 29.435 C 159.140 29.657,159.049 29.848,158.938 29.859 C 157.972 29.954,157.345 30.202,156.926 30.652 C 156.653 30.944,156.269 31.183,156.071 31.183 C 155.873 31.183,155.560 31.364,155.376 31.586 C 155.192 31.808,154.803 31.989,154.512 31.989 C 154.208 31.989,153.922 32.219,153.841 32.527 C 153.737 32.926,153.475 33.065,152.823 33.065 C 152.171 33.065,151.908 33.203,151.804 33.602 C 151.722 33.915,151.437 34.140,151.122 34.140 C 150.298 34.140,149.731 34.425,149.731 34.841 C 149.731 35.047,149.518 35.215,149.258 35.215 C 148.998 35.215,148.634 35.457,148.449 35.753 C 148.235 36.096,147.823 36.290,147.310 36.290 C 146.693 36.290,146.505 36.412,146.505 36.812 C 146.505 37.220,146.287 37.351,145.497 37.417 C 144.818 37.473,144.489 37.631,144.489 37.903 C 144.489 38.162,144.176 38.337,143.616 38.391 C 143.089 38.441,142.632 38.681,142.464 38.995 C 142.311 39.282,141.991 39.516,141.754 39.516 C 141.517 39.516,141.168 39.728,140.979 39.987 C 140.790 40.245,140.504 40.472,140.344 40.491 C 140.184 40.509,139.872 40.539,139.651 40.558 C 139.429 40.576,139.247 40.773,139.247 40.995 C 139.247 41.216,139.066 41.413,138.844 41.431 C 138.622 41.450,138.320 41.495,138.172 41.532 C 138.024 41.569,137.715 41.615,137.486 41.633 C 136.952 41.676,137.031 44.469,137.567 44.523 C 137.752 44.541,138.206 44.572,138.575 44.590 C 139.028 44.613,139.247 44.780,139.247 45.103 C 139.247 45.428,139.478 45.601,139.967 45.641 C 140.364 45.674,140.913 45.942,141.188 46.238 C 141.463 46.533,141.864 46.774,142.080 46.774 C 142.296 46.774,142.473 46.956,142.473 47.177 C 142.473 47.399,142.655 47.596,142.876 47.614 C 143.098 47.633,143.401 47.678,143.548 47.715 C 143.696 47.752,143.938 47.797,144.086 47.816 C 144.234 47.834,144.355 48.020,144.355 48.229 C 144.355 48.461,144.764 48.678,145.409 48.787 C 145.989 48.885,146.529 49.137,146.610 49.348 C 146.691 49.559,146.893 49.731,147.059 49.731 C 147.226 49.731,147.669 49.973,148.045 50.269 C 148.421 50.565,148.940 50.806,149.198 50.806 C 149.457 50.806,149.732 51.048,149.809 51.344 C 149.913 51.740,150.176 51.882,150.806 51.882 C 151.437 51.882,151.700 52.024,151.804 52.419 C 151.908 52.819,152.171 52.957,152.823 52.957 C 153.475 52.957,153.737 53.095,153.841 53.495 C 153.919 53.790,154.175 54.032,154.410 54.032 C 154.646 54.032,155.081 54.274,155.376 54.570 C 155.672 54.866,156.156 55.108,156.452 55.108 C 156.759 55.108,156.989 55.287,156.989 55.527 C 156.989 55.757,157.110 55.871,157.258 55.780 C 157.406 55.688,157.527 55.742,157.527 55.898 C 157.527 56.055,157.882 56.183,158.315 56.183 C 158.865 56.183,159.155 56.344,159.272 56.715 C 159.365 57.008,159.525 57.235,159.627 57.221 C 160.638 57.077,161.290 57.309,161.290 57.812 C 161.290 58.116,161.393 58.301,161.519 58.224 C 161.645 58.146,162.147 58.377,162.634 58.737 C 163.122 59.096,163.616 59.332,163.731 59.261 C 163.847 59.189,164.107 59.367,164.310 59.657 C 164.513 59.946,164.974 60.223,165.336 60.273 C 166.196 60.391,166.715 60.727,166.521 61.040 C 166.435 61.179,166.852 61.290,167.457 61.290 C 168.258 61.290,168.548 61.400,168.548 61.702 C 168.548 61.928,168.760 62.193,169.019 62.289 C 169.278 62.386,169.647 62.684,169.841 62.953 C 170.043 63.234,170.527 63.441,170.983 63.441 C 171.595 63.441,171.774 63.563,171.774 63.978 C 171.774 64.416,171.953 64.516,172.740 64.516 C 173.480 64.516,173.739 64.642,173.847 65.054 C 173.952 65.455,174.214 65.591,174.879 65.591 C 175.534 65.591,175.815 65.734,175.941 66.129 C 176.035 66.425,176.345 66.667,176.631 66.667 C 176.917 66.667,177.151 66.835,177.151 67.040 C 177.151 67.254,177.553 67.489,178.091 67.590 C 178.614 67.688,179.032 67.927,179.032 68.129 C 179.032 68.546,179.611 68.817,180.501 68.817 C 180.894 68.817,181.171 69.014,181.261 69.355 C 181.367 69.762,181.627 69.892,182.336 69.892 C 183.059 69.892,183.304 70.020,183.418 70.457 C 183.500 70.768,183.689 70.946,183.839 70.853 C 183.990 70.760,184.244 70.929,184.405 71.229 C 184.565 71.529,184.934 71.774,185.225 71.774 C 185.515 71.774,185.995 72.016,186.290 72.312 C 186.589 72.611,187.186 72.849,187.634 72.849 C 188.262 72.849,188.441 72.969,188.441 73.387 C 188.441 73.805,188.620 73.925,189.245 73.925 C 189.758 73.925,190.171 74.119,190.385 74.462 C 190.570 74.758,190.934 75.000,191.194 75.000 C 191.454 75.000,191.667 75.169,191.667 75.374 C 191.667 75.808,192.239 76.075,193.167 76.075 C 193.638 76.075,193.817 76.223,193.817 76.613 C 193.817 77.046,193.996 77.151,194.740 77.151 C 195.427 77.151,195.706 77.288,195.833 77.688 C 195.936 78.010,196.240 78.226,196.593 78.226 C 196.917 78.226,197.334 78.468,197.518 78.763 C 197.703 79.059,198.068 79.301,198.330 79.301 C 198.591 79.301,198.997 79.526,199.232 79.800 C 199.908 80.589,203.915 80.631,204.162 79.852 C 204.317 79.366,205.069 79.125,205.981 79.269 C 206.092 79.287,206.183 79.059,206.183 78.763 C 206.183 78.326,206.362 78.226,207.149 78.226 C 207.889 78.226,208.148 78.100,208.255 77.688 C 208.347 77.339,208.622 77.151,209.039 77.151 C 209.393 77.151,209.890 76.909,210.143 76.613 C 210.396 76.317,210.818 76.075,211.081 76.075 C 211.380 76.075,211.559 75.874,211.559 75.538 C 211.559 75.148,211.738 75.000,212.209 75.000 C 213.137 75.000,213.710 74.733,213.710 74.299 C 213.710 74.050,214.026 73.925,214.651 73.925 C 215.168 73.925,215.577 73.834,215.560 73.723 C 215.462 73.104,215.662 72.849,216.245 72.849 C 217.021 72.849,218.790 71.782,218.806 71.304 C 218.812 71.119,219.029 70.954,219.288 70.937 C 219.546 70.920,219.879 70.878,220.027 70.843 C 220.175 70.809,220.447 70.762,220.632 70.740 C 220.817 70.717,220.968 70.517,220.968 70.296 C 220.968 70.045,221.222 69.892,221.640 69.892 C 222.009 69.892,222.554 69.651,222.849 69.355 C 223.145 69.059,223.569 68.817,223.790 68.817 C 224.012 68.817,224.435 68.575,224.731 68.280 C 225.027 67.984,225.442 67.742,225.654 67.742 C 225.866 67.742,226.116 67.500,226.210 67.204 C 226.359 66.732,227.123 66.493,228.024 66.635 C 228.135 66.652,228.226 66.425,228.226 66.129 C 228.226 65.691,228.405 65.591,229.192 65.591 C 229.932 65.591,230.191 65.466,230.298 65.054 C 230.376 64.756,230.665 64.516,230.945 64.516 C 231.224 64.516,231.694 64.274,231.989 63.978 C 232.285 63.683,232.769 63.441,233.065 63.441 C 233.423 63.441,233.602 63.262,233.602 62.903 C 233.602 62.514,233.781 62.366,234.252 62.366 C 235.180 62.366,235.753 62.098,235.753 61.665 C 235.753 61.416,236.069 61.290,236.694 61.290 C 237.450 61.290,237.634 61.187,237.634 60.761 C 237.634 60.425,237.768 60.283,238.000 60.372 C 238.201 60.449,238.715 60.222,239.142 59.866 C 239.570 59.511,240.079 59.275,240.273 59.343 C 240.470 59.411,240.692 59.215,240.775 58.899 C 240.878 58.506,241.139 58.332,241.631 58.329 C 242.420 58.325,243.076 57.995,243.020 57.631 C 243.000 57.500,243.372 57.313,243.846 57.216 C 244.320 57.119,244.816 56.847,244.948 56.611 C 245.080 56.376,245.410 56.183,245.681 56.183 C 245.952 56.183,246.237 55.941,246.314 55.645 C 246.416 55.257,246.681 55.108,247.269 55.108 C 247.846 55.108,248.132 54.951,248.253 54.570 C 248.380 54.170,248.659 54.032,249.346 54.032 C 249.854 54.032,250.254 53.942,250.237 53.831 C 250.135 53.186,250.354 52.957,251.073 52.957 C 251.586 52.957,251.999 52.762,252.213 52.419 C 252.398 52.124,252.762 51.882,253.022 51.882 C 253.315 51.882,253.495 51.678,253.495 51.344 C 253.495 50.896,253.674 50.806,254.570 50.806 C 255.310 50.806,255.645 50.690,255.645 50.432 C 255.645 50.026,256.208 49.731,256.982 49.731 C 257.250 49.731,257.533 49.565,257.611 49.363 C 257.689 49.160,258.095 48.908,258.513 48.803 C 258.932 48.698,259.493 48.377,259.761 48.091 C 260.028 47.804,260.361 47.639,260.500 47.725 C 260.639 47.811,260.753 47.632,260.753 47.328 C 260.753 46.818,261.466 46.576,262.456 46.750 C 262.580 46.772,262.745 46.544,262.823 46.244 C 262.932 45.828,263.188 45.699,263.901 45.699 C 264.605 45.699,264.869 45.568,264.974 45.168 C 265.065 44.822,265.431 44.577,266.024 44.466 C 267.801 44.133,267.178 41.398,265.324 41.398 C 265.010 41.398,264.823 41.285,264.908 41.148 C 265.111 40.819,264.736 40.604,263.827 40.528 C 263.382 40.492,263.040 40.278,262.965 39.992 C 262.873 39.640,262.569 39.516,261.797 39.516 C 260.932 39.516,260.753 39.424,260.753 38.978 C 260.753 38.659,260.573 38.441,260.312 38.441 C 260.069 38.441,259.716 38.229,259.527 37.970 C 259.338 37.712,259.052 37.485,258.893 37.466 C 258.733 37.448,258.429 37.418,258.217 37.399 C 258.005 37.381,257.755 37.124,257.661 36.828 C 257.534 36.428,257.255 36.290,256.568 36.290 C 255.958 36.290,255.645 36.163,255.645 35.916 C 255.645 35.482,255.073 35.215,254.145 35.215 C 253.674 35.215,253.495 35.067,253.495 34.677 C 253.495 34.379,253.315 34.140,253.091 34.140 C 252.870 34.140,252.446 33.898,252.151 33.602 C 251.855 33.306,251.325 33.065,250.972 33.065 C 250.558 33.065,250.282 32.875,250.191 32.527 C 250.094 32.155,249.824 31.989,249.316 31.989 C 248.911 31.989,248.433 31.788,248.253 31.541 C 248.073 31.295,247.636 31.052,247.283 31.001 C 246.929 30.951,246.431 30.659,246.177 30.354 C 245.922 30.048,245.581 29.880,245.420 29.980 C 245.252 30.083,245.061 29.918,244.977 29.597 C 244.896 29.286,244.612 29.032,244.345 29.032 C 243.574 29.032,243.011 28.737,243.011 28.331 C 243.011 28.076,242.680 27.957,241.967 27.957 C 241.149 27.957,240.892 27.841,240.782 27.419 C 240.687 27.057,240.416 26.882,239.947 26.882 C 239.543 26.882,239.111 26.656,238.916 26.344 C 238.731 26.048,238.382 25.806,238.139 25.806 C 237.896 25.806,237.634 25.565,237.557 25.269 C 237.455 24.881,237.190 24.731,236.602 24.731 C 236.028 24.731,235.739 24.575,235.620 24.199 C 235.527 23.906,235.368 23.679,235.266 23.693 C 234.355 23.823,233.616 23.587,233.468 23.118 C 233.374 22.823,233.082 22.581,232.819 22.581 C 232.556 22.581,232.122 22.339,231.855 22.043 C 231.587 21.747,231.206 21.505,231.007 21.505 C 230.808 21.505,230.403 21.263,230.108 20.968 C 229.812 20.672,229.297 20.430,228.963 20.430 C 228.628 20.430,228.204 20.188,228.019 19.892 C 227.835 19.597,227.411 19.355,227.079 19.355 C 226.746 19.355,226.322 19.113,226.138 18.817 C 225.953 18.522,225.636 18.280,225.434 18.280 C 225.231 18.280,224.915 18.098,224.731 17.876 C 224.547 17.655,224.176 17.473,223.907 17.473 C 223.638 17.473,223.260 17.261,223.066 17.003 C 222.873 16.744,222.352 16.490,221.909 16.438 C 221.095 16.342,220.622 15.933,220.867 15.537 C 220.940 15.419,220.508 15.323,219.908 15.323 C 219.110 15.323,218.817 15.213,218.817 14.913 C 218.817 14.687,218.515 14.388,218.145 14.247 C 217.776 14.107,217.473 13.873,217.473 13.729 C 217.473 13.584,217.061 13.388,216.557 13.293 C 215.973 13.184,215.592 12.936,215.507 12.609 C 215.407 12.229,215.131 12.097,214.437 12.097 C 213.710 12.097,213.509 11.991,213.538 11.626 C 213.566 11.268,213.334 11.136,212.567 11.072 C 211.933 11.020,211.559 10.852,211.559 10.620 C 211.559 10.417,211.305 10.171,210.995 10.072 C 210.685 9.974,210.201 9.663,209.920 9.382 C 209.639 9.101,209.167 8.871,208.871 8.871 C 208.572 8.871,208.333 8.692,208.333 8.468 C 208.333 8.246,208.152 8.049,207.930 8.031 C 207.708 8.012,207.406 7.967,207.258 7.930 C 207.110 7.893,206.808 7.848,206.586 7.829 C 206.364 7.811,206.183 7.620,206.183 7.405 C 206.183 7.172,205.809 6.943,205.261 6.841 C 204.753 6.745,204.273 6.498,204.194 6.291 C 203.947 5.648,199.479 5.810,198.790 6.486 M134.948 80.224 L 134.954 113.701 135.651 113.876 C 136.425 114.071,136.743 113.763,137.003 112.567 C 137.092 112.161,137.330 111.828,137.534 111.828 C 137.737 111.828,137.903 111.635,137.903 111.400 C 137.903 111.165,138.145 110.664,138.441 110.288 C 138.737 109.912,138.978 109.393,138.978 109.135 C 138.978 108.876,139.224 108.601,139.524 108.522 C 139.824 108.444,140.051 108.278,140.030 108.155 C 139.858 107.179,140.098 106.452,140.591 106.452 C 141.037 106.452,141.129 106.272,141.129 105.406 C 141.129 104.584,141.227 104.369,141.589 104.398 C 141.852 104.420,142.095 104.205,142.157 103.898 C 142.216 103.602,142.427 103.266,142.627 103.151 C 142.826 103.036,143.065 102.537,143.158 102.043 C 143.273 101.429,143.469 101.153,143.774 101.176 C 144.206 101.209,144.257 101.081,144.324 99.817 C 144.341 99.484,144.588 99.156,144.892 99.059 C 145.235 98.950,145.430 98.652,145.430 98.237 C 145.430 97.876,145.670 97.435,145.968 97.249 C 146.263 97.065,146.505 96.714,146.505 96.469 C 146.505 96.225,146.670 95.962,146.870 95.885 C 147.071 95.808,147.313 95.355,147.409 94.877 C 147.504 94.400,147.765 93.876,147.988 93.712 C 148.211 93.548,148.446 93.141,148.509 92.808 C 148.669 91.977,148.915 91.629,149.212 91.813 C 149.350 91.898,149.462 91.737,149.462 91.455 C 149.462 91.174,149.704 90.725,150.000 90.457 C 150.296 90.189,150.538 89.701,150.538 89.371 C 150.538 88.998,150.741 88.719,151.075 88.632 C 151.487 88.524,151.613 88.265,151.613 87.525 C 151.613 86.738,151.713 86.559,152.151 86.559 C 152.599 86.559,152.688 86.380,152.688 85.484 C 152.688 84.588,152.778 84.409,153.226 84.409 C 153.584 84.409,153.763 84.229,153.763 83.871 C 153.763 83.575,153.932 83.333,154.138 83.333 C 154.553 83.333,154.839 82.767,154.839 81.942 C 154.839 81.626,155.064 81.342,155.381 81.260 C 155.679 81.182,155.906 80.981,155.886 80.814 C 155.776 79.889,155.968 79.350,156.452 79.223 C 156.756 79.144,156.989 78.857,156.989 78.561 C 156.989 78.275,157.228 77.824,157.521 77.560 C 157.813 77.295,157.989 76.977,157.912 76.853 C 157.836 76.729,158.019 76.416,158.321 76.158 C 158.622 75.900,158.943 75.292,159.034 74.807 C 159.127 74.313,159.364 73.925,159.573 73.925 C 159.778 73.925,159.961 73.683,159.980 73.387 C 160.044 72.367,160.082 72.267,160.551 71.925 C 160.810 71.735,161.022 71.382,161.022 71.140 C 161.022 70.897,161.190 70.699,161.396 70.699 C 161.801 70.699,162.097 70.136,162.097 69.364 C 162.097 69.098,162.339 68.817,162.634 68.739 C 163.046 68.632,163.172 68.373,163.172 67.633 C 163.172 66.846,163.272 66.667,163.710 66.667 C 164.121 66.667,164.247 66.487,164.247 65.902 C 164.247 65.478,164.487 64.920,164.785 64.651 C 165.839 63.697,165.462 62.726,163.978 62.570 C 163.609 62.532,163.220 62.288,163.114 62.030 C 163.002 61.757,162.636 61.559,162.242 61.559 C 161.855 61.559,161.420 61.328,161.228 61.022 C 161.043 60.726,160.693 60.484,160.451 60.484 C 160.208 60.484,159.946 60.242,159.868 59.946 C 159.767 59.558,159.502 59.409,158.914 59.409 C 158.337 59.409,158.051 59.253,157.930 58.871 C 157.803 58.471,157.523 58.333,156.837 58.333 C 156.093 58.333,155.914 58.229,155.914 57.796 C 155.914 57.429,155.735 57.258,155.352 57.258 C 155.042 57.258,154.482 57.016,154.106 56.720 C 153.730 56.425,153.257 56.183,153.055 56.183 C 152.853 56.183,152.688 56.014,152.688 55.808 C 152.688 55.380,152.117 55.108,151.219 55.108 C 150.826 55.108,150.549 54.911,150.460 54.570 C 150.359 54.184,150.093 54.032,149.516 54.032 C 149.072 54.032,148.648 53.862,148.568 53.652 C 148.423 53.276,147.733 52.832,146.035 52.022 C 145.554 51.793,145.161 51.486,145.161 51.340 C 145.161 51.195,144.929 51.075,144.646 51.075 C 143.844 51.075,143.280 50.785,143.280 50.374 C 143.280 50.117,142.944 50.000,142.204 50.000 C 141.308 50.000,141.129 49.910,141.129 49.462 C 141.129 49.128,140.950 48.925,140.656 48.925 C 140.396 48.925,140.032 48.683,139.847 48.387 C 139.638 48.052,139.220 47.849,138.739 47.849 C 138.218 47.849,137.924 47.690,137.838 47.362 C 137.739 46.981,137.405 46.860,136.326 46.811 L 134.942 46.747 134.948 80.224 M262.175 49.462 C 262.097 49.760,261.808 50.000,261.528 50.000 C 261.249 50.000,261.022 50.169,261.022 50.374 C 261.022 50.783,260.457 51.075,259.669 51.075 C 259.393 51.075,259.061 51.264,258.931 51.495 C 258.705 51.899,258.193 52.086,257.191 52.130 C 256.932 52.141,256.720 52.332,256.720 52.554 C 256.720 52.776,256.599 52.972,256.452 52.991 C 256.304 53.009,256.062 53.054,255.914 53.091 C 255.766 53.128,255.464 53.174,255.242 53.192 C 255.020 53.211,254.839 53.407,254.839 53.629 C 254.839 53.859,254.597 54.032,254.276 54.032 C 253.939 54.032,253.657 54.248,253.573 54.570 C 253.448 55.044,252.716 55.282,251.815 55.139 C 251.704 55.122,251.613 55.293,251.613 55.519 C 251.613 55.980,250.595 56.454,250.051 56.247 C 249.849 56.170,249.635 56.357,249.549 56.686 C 249.449 57.068,249.187 57.258,248.756 57.258 C 248.403 57.258,247.906 57.500,247.653 57.796 C 247.399 58.091,246.977 58.333,246.714 58.333 C 246.416 58.333,246.237 58.535,246.237 58.871 C 246.237 59.309,246.057 59.409,245.271 59.409 C 244.531 59.409,244.272 59.534,244.164 59.946 C 244.060 60.345,243.797 60.484,243.145 60.484 C 242.493 60.484,242.231 60.622,242.126 61.022 C 242.034 61.374,241.760 61.559,241.330 61.559 C 240.970 61.559,240.456 61.801,240.188 62.097 C 239.921 62.392,239.539 62.634,239.340 62.634 C 239.141 62.634,238.978 62.816,238.978 63.038 C 238.978 63.285,238.727 63.441,238.328 63.441 C 237.400 63.441,236.828 63.708,236.828 64.142 C 236.828 64.362,236.551 64.516,236.156 64.516 C 235.786 64.516,235.242 64.758,234.946 65.054 C 234.651 65.349,234.227 65.591,234.005 65.591 C 233.784 65.591,233.372 65.821,233.091 66.102 C 232.810 66.384,232.326 66.694,232.016 66.793 C 231.705 66.891,231.452 67.145,231.452 67.357 C 231.452 67.686,230.876 67.823,229.919 67.722 C 229.816 67.711,229.638 67.953,229.525 68.260 C 229.376 68.661,229.083 68.817,228.478 68.817 C 227.864 68.817,227.600 68.962,227.497 69.355 C 227.419 69.652,227.131 69.892,226.850 69.892 C 226.572 69.892,226.102 70.134,225.806 70.430 C 225.511 70.726,225.027 70.968,224.731 70.968 C 224.373 70.968,224.194 71.147,224.194 71.505 C 224.194 71.912,224.013 72.044,223.454 72.047 C 222.616 72.052,221.953 72.390,222.087 72.745 C 222.137 72.876,221.724 73.021,221.169 73.067 C 220.510 73.122,220.161 73.285,220.161 73.538 C 220.161 73.751,219.998 73.925,219.797 73.925 C 219.597 73.925,219.112 74.223,218.719 74.587 C 218.303 74.972,217.830 75.183,217.588 75.090 C 217.312 74.984,217.122 75.123,217.023 75.503 C 216.924 75.878,216.659 76.075,216.254 76.075 C 215.356 76.075,214.785 76.348,214.785 76.776 C 214.785 76.996,214.508 77.151,214.113 77.151 C 213.743 77.151,213.199 77.392,212.903 77.688 C 212.608 77.984,212.184 78.226,211.962 78.226 C 211.738 78.226,211.559 78.465,211.559 78.763 C 211.559 79.170,211.379 79.302,210.820 79.305 C 209.981 79.310,209.319 79.648,209.453 80.003 C 209.502 80.134,209.089 80.279,208.535 80.325 C 207.745 80.391,207.527 80.522,207.527 80.930 C 207.527 81.302,207.341 81.452,206.877 81.452 C 205.949 81.452,205.376 81.719,205.376 82.152 C 205.376 82.358,205.134 82.527,204.839 82.527 C 204.480 82.527,204.301 82.706,204.301 83.065 C 204.301 83.513,204.122 83.602,203.226 83.602 C 202.431 83.602,202.151 83.712,202.151 84.021 C 202.151 84.252,202.028 84.364,201.877 84.271 C 201.727 84.179,201.674 83.990,201.759 83.852 C 201.844 83.715,201.497 83.602,200.988 83.602 C 200.289 83.602,200.028 83.471,199.922 83.065 C 199.814 82.653,199.555 82.527,198.815 82.527 C 198.029 82.527,197.849 82.427,197.849 81.989 C 197.849 81.628,197.670 81.452,197.303 81.452 C 197.003 81.452,196.689 81.273,196.605 81.056 C 196.522 80.838,196.053 80.585,195.563 80.493 C 195.003 80.388,194.623 80.136,194.539 79.813 C 194.445 79.452,194.166 79.301,193.592 79.301 C 193.017 79.301,192.729 79.145,192.609 78.769 C 192.516 78.476,192.357 78.249,192.255 78.263 C 191.431 78.380,190.591 78.167,190.591 77.841 C 190.591 77.629,190.338 77.375,190.027 77.277 C 189.717 77.178,189.233 76.867,188.952 76.586 C 188.671 76.305,188.142 76.075,187.777 76.075 C 187.290 76.075,187.156 75.965,187.273 75.661 C 187.360 75.433,187.326 75.272,187.197 75.302 C 186.727 75.412,185.342 74.901,185.054 74.510 C 184.891 74.290,184.467 74.078,184.113 74.040 C 183.758 74.001,183.377 73.959,183.266 73.947 C 183.155 73.935,183.065 73.743,183.065 73.522 C 183.065 73.300,182.837 73.118,182.558 73.118 C 182.278 73.118,181.989 72.878,181.911 72.581 C 181.810 72.192,181.545 72.043,180.957 72.043 C 180.380 72.043,180.094 71.887,179.973 71.505 C 179.846 71.105,179.566 70.968,178.880 70.968 C 178.043 70.968,177.819 70.763,177.925 70.094 C 177.943 69.983,177.473 69.892,176.882 69.892 C 175.986 69.892,175.806 69.803,175.806 69.355 C 175.806 69.056,175.627 68.817,175.403 68.817 C 175.181 68.817,174.758 68.575,174.462 68.280 C 174.167 67.984,173.636 67.742,173.284 67.742 C 172.869 67.742,172.594 67.552,172.503 67.204 C 172.401 66.816,172.136 66.667,171.549 66.667 C 170.997 66.667,170.685 66.509,170.579 66.175 C 170.111 64.701,166.398 65.749,166.398 67.355 C 166.398 67.791,166.289 67.975,166.099 67.858 C 165.708 67.616,165.332 68.232,165.327 69.122 C 165.324 69.605,165.149 69.875,164.777 69.972 C 164.477 70.051,164.250 70.216,164.271 70.340 C 164.419 71.179,164.198 72.043,163.836 72.043 C 163.609 72.043,163.345 72.255,163.247 72.513 C 163.150 72.772,162.901 73.111,162.693 73.267 C 162.485 73.423,162.296 73.878,162.273 74.279 C 162.248 74.709,162.039 75.067,161.761 75.156 C 161.433 75.260,161.290 75.585,161.290 76.228 C 161.290 76.971,161.186 77.151,160.753 77.151 C 160.394 77.151,160.215 77.330,160.215 77.688 C 160.215 77.984,159.973 78.468,159.677 78.763 C 159.382 79.059,159.140 79.590,159.140 79.943 C 159.140 80.390,158.997 80.574,158.669 80.548 C 158.213 80.512,158.161 80.636,158.096 81.922 C 158.074 82.337,157.896 82.527,157.527 82.527 C 157.079 82.527,156.989 82.706,156.989 83.602 C 156.989 84.389,156.879 84.677,156.578 84.677 C 156.351 84.677,156.088 84.880,155.993 85.127 C 155.898 85.375,155.600 85.798,155.330 86.068 C 155.060 86.338,154.839 86.772,154.839 87.032 C 154.839 87.292,154.597 87.656,154.301 87.841 C 153.966 88.050,153.763 88.468,153.763 88.949 C 153.763 89.479,153.605 89.764,153.259 89.854 C 152.918 89.943,152.755 90.229,152.755 90.738 C 152.755 91.161,152.535 91.655,152.251 91.866 C 151.974 92.073,151.776 92.351,151.812 92.484 C 151.847 92.617,151.650 92.847,151.373 92.995 C 151.096 93.144,150.789 93.692,150.691 94.213 C 150.584 94.782,150.357 95.161,150.122 95.161 C 149.847 95.161,149.731 95.471,149.731 96.207 C 149.731 97.037,149.635 97.244,149.261 97.215 C 148.963 97.191,148.759 97.399,148.705 97.782 C 148.657 98.115,148.458 98.387,148.263 98.387 C 147.874 98.387,147.581 98.962,147.581 99.722 C 147.581 99.988,147.339 100.269,147.043 100.347 C 146.631 100.454,146.505 100.713,146.505 101.453 C 146.505 102.240,146.406 102.419,145.968 102.419 C 145.672 102.419,145.444 102.510,145.462 102.621 C 145.634 103.711,145.383 104.570,144.892 104.570 C 144.594 104.570,144.355 104.749,144.355 104.973 C 144.355 105.195,144.113 105.618,143.817 105.914 C 143.522 106.210,143.280 106.746,143.280 107.106 C 143.280 107.531,143.085 107.821,142.722 107.936 C 142.416 108.034,142.218 108.253,142.282 108.425 C 142.467 108.918,142.053 109.812,141.640 109.813 C 141.433 109.813,141.262 110.005,141.259 110.239 C 141.257 110.474,141.053 110.867,140.806 111.114 C 140.560 111.360,140.273 111.834,140.170 112.166 C 140.066 112.497,139.846 112.855,139.682 112.961 C 139.369 113.161,139.336 113.276,139.281 114.382 C 139.257 114.863,139.095 115.054,138.710 115.054 C 138.262 115.054,138.172 115.233,138.172 116.129 C 138.172 117.025,138.082 117.204,137.634 117.204 C 137.276 117.204,137.097 117.384,137.097 117.742 C 137.097 118.038,136.928 118.280,136.722 118.280 C 136.293 118.280,136.022 118.851,136.022 119.751 C 136.022 120.093,135.840 120.442,135.618 120.527 C 135.042 120.749,135.120 121.705,135.743 122.038 C 136.083 122.220,136.210 122.478,136.100 122.763 C 135.986 123.060,136.034 123.142,136.245 123.012 C 136.418 122.905,136.559 122.946,136.559 123.102 C 136.559 123.259,136.908 123.387,137.334 123.387 C 137.887 123.387,138.150 123.544,138.252 123.932 C 138.330 124.232,138.496 124.460,138.619 124.438 C 139.446 124.293,140.120 124.525,140.244 124.997 C 140.321 125.291,140.473 125.476,140.582 125.409 C 140.691 125.342,141.184 125.585,141.679 125.950 C 142.173 126.315,142.730 126.613,142.915 126.613 C 143.101 126.613,143.354 126.794,143.478 127.014 C 143.601 127.235,144.049 127.445,144.473 127.480 C 144.948 127.519,145.292 127.726,145.368 128.019 C 145.460 128.371,145.764 128.495,146.537 128.495 C 147.401 128.495,147.581 128.587,147.581 129.032 C 147.581 129.366,147.760 129.570,148.054 129.570 C 148.314 129.570,148.678 129.812,148.862 130.108 C 149.077 130.451,149.489 130.645,150.002 130.645 C 150.721 130.645,150.940 130.874,150.838 131.519 C 150.821 131.630,151.277 131.720,151.852 131.720 C 152.682 131.720,152.890 131.817,152.860 132.191 C 152.832 132.549,153.064 132.681,153.831 132.745 C 154.620 132.810,154.839 132.941,154.839 133.350 C 154.839 133.687,155.023 133.871,155.363 133.871 C 155.651 133.871,155.984 134.042,156.102 134.250 C 156.220 134.459,156.741 134.739,157.258 134.872 C 157.784 135.008,158.199 135.285,158.199 135.501 C 158.199 135.751,158.544 135.916,159.179 135.969 C 159.834 136.023,160.200 136.204,160.281 136.512 C 160.354 136.792,160.707 136.997,161.182 137.035 C 161.611 137.070,162.122 137.309,162.317 137.568 C 162.513 137.826,162.781 138.009,162.914 137.973 C 163.047 137.938,163.285 138.149,163.442 138.444 C 163.600 138.738,163.967 138.978,164.259 138.978 C 164.551 138.978,164.997 139.220,165.251 139.516 C 165.537 139.851,166.044 140.054,166.592 140.054 C 167.294 140.054,167.473 140.163,167.473 140.591 C 167.473 141.009,167.652 141.129,168.277 141.129 C 168.790 141.129,169.203 141.324,169.417 141.667 C 169.602 141.962,169.952 142.204,170.195 142.204 C 170.437 142.204,170.699 142.446,170.777 142.742 C 170.885 143.154,171.143 143.280,171.883 143.280 C 172.670 143.280,172.849 143.379,172.849 143.817 C 172.849 144.265,173.029 144.355,173.916 144.355 C 174.741 144.355,174.949 144.444,174.833 144.747 C 174.733 145.007,174.911 145.196,175.359 145.309 C 175.731 145.402,176.245 145.710,176.500 145.992 C 176.756 146.274,177.145 146.505,177.364 146.505 C 177.584 146.505,177.901 146.694,178.069 146.924 C 178.348 147.306,178.884 147.506,179.772 147.560 C 179.956 147.571,180.108 147.749,180.108 147.955 C 180.108 148.389,180.680 148.656,181.608 148.656 C 181.966 148.656,182.263 148.807,182.269 148.992 C 182.285 149.437,184.031 150.538,184.721 150.538 C 185.034 150.538,185.323 150.760,185.402 151.061 C 185.500 151.436,185.815 151.607,186.519 151.666 C 187.175 151.720,187.500 151.881,187.500 152.151 C 187.500 152.422,187.828 152.581,188.508 152.637 C 189.298 152.703,189.516 152.834,189.516 153.242 C 189.516 153.584,189.701 153.763,190.054 153.763 C 190.349 153.763,190.833 154.005,191.129 154.301 C 191.425 154.597,191.894 154.839,192.173 154.839 C 192.458 154.839,192.743 155.081,192.824 155.393 C 192.904 155.698,193.130 155.925,193.326 155.899 C 194.326 155.763,194.892 155.942,194.892 156.394 C 194.892 156.742,195.130 156.893,195.752 156.940 C 196.688 157.012,196.909 157.140,196.909 157.613 C 196.909 157.783,197.131 157.966,197.403 158.018 C 197.676 158.070,198.129 158.344,198.412 158.627 C 199.165 159.380,201.872 159.369,202.070 158.611 C 202.146 158.320,202.439 158.009,202.721 157.920 C 203.003 157.830,203.169 157.652,203.089 157.524 C 203.010 157.395,203.180 157.071,203.467 156.804 C 203.754 156.536,204.072 155.985,204.174 155.578 C 204.276 155.171,204.528 154.839,204.733 154.839 C 204.981 154.839,205.108 154.524,205.108 153.907 C 205.108 153.251,205.266 152.891,205.645 152.688 C 205.941 152.530,206.183 152.192,206.183 151.937 C 206.183 151.682,206.425 151.322,206.720 151.138 C 207.016 150.953,207.258 150.515,207.258 150.163 C 207.258 149.751,207.448 149.475,207.796 149.384 C 208.181 149.284,208.333 149.018,208.333 148.444 C 208.333 147.869,208.485 147.604,208.871 147.503 C 209.283 147.395,209.409 147.136,209.409 146.396 C 209.409 145.609,209.508 145.430,209.946 145.430 C 210.341 145.430,210.484 145.251,210.484 144.758 C 210.484 144.380,210.639 144.086,210.840 144.086 C 211.035 144.086,211.308 143.632,211.445 143.078 C 211.581 142.524,211.801 142.110,211.932 142.160 C 212.282 142.292,212.626 141.636,212.630 140.824 C 212.633 140.341,212.808 140.071,213.180 139.974 C 213.480 139.895,213.707 139.730,213.686 139.606 C 213.582 139.017,213.732 137.907,213.911 137.935 C 214.506 138.029,214.785 137.847,214.785 137.366 C 214.785 137.070,214.956 136.828,215.165 136.828 C 215.397 136.828,215.614 136.415,215.725 135.760 C 215.825 135.168,216.045 134.719,216.219 134.752 C 216.400 134.787,216.567 134.398,216.614 133.831 C 216.673 133.127,216.843 132.812,217.219 132.714 C 217.527 132.633,217.742 132.346,217.742 132.014 C 217.742 131.705,217.910 131.452,218.116 131.452 C 218.522 131.452,218.817 130.889,218.817 130.117 C 218.817 129.851,219.059 129.569,219.355 129.492 C 219.767 129.384,219.892 129.125,219.892 128.385 C 219.892 127.599,219.992 127.419,220.430 127.419 C 220.862 127.419,220.968 127.240,220.968 126.510 C 220.968 125.826,221.101 125.565,221.505 125.460 C 221.827 125.376,222.043 125.093,222.043 124.756 C 222.043 124.447,222.211 124.194,222.416 124.194 C 222.630 124.194,222.865 123.792,222.966 123.253 C 223.064 122.730,223.304 122.312,223.505 122.312 C 223.922 122.312,224.194 121.733,224.194 120.843 C 224.194 120.444,224.391 120.172,224.748 120.079 C 225.053 119.999,225.271 119.774,225.233 119.577 C 225.120 118.997,225.526 118.073,225.968 117.903 C 226.194 117.817,226.298 117.616,226.200 117.457 C 226.101 117.297,226.272 117.102,226.586 117.020 C 227.019 116.907,227.151 116.661,227.151 115.963 C 227.151 115.365,227.279 115.054,227.525 115.054 C 227.958 115.054,228.226 114.481,228.226 113.553 C 228.226 113.082,228.374 112.903,228.763 112.903 C 229.158 112.903,229.301 112.724,229.301 112.231 C 229.301 111.817,229.454 111.559,229.699 111.559 C 229.918 111.559,230.170 111.226,230.259 110.820 C 230.534 109.564,230.619 109.401,230.961 109.473 C 231.300 109.544,231.359 109.379,231.418 108.199 C 231.442 107.717,231.604 107.527,231.989 107.527 C 232.423 107.527,232.527 107.348,232.527 106.595 C 232.527 105.939,232.686 105.579,233.065 105.376 C 233.360 105.218,233.602 104.911,233.602 104.695 C 233.602 104.478,233.774 104.301,233.984 104.301 C 234.196 104.301,234.451 103.913,234.558 103.427 C 234.663 102.947,234.975 102.396,235.251 102.203 C 235.543 101.998,235.753 101.528,235.753 101.078 C 235.753 100.532,235.916 100.253,236.310 100.128 C 236.641 100.023,236.809 99.800,236.723 99.577 C 236.644 99.370,236.811 99.077,237.095 98.926 C 237.379 98.774,237.690 98.232,237.785 97.721 C 237.881 97.211,238.098 96.819,238.267 96.851 C 238.442 96.884,238.611 96.483,238.657 95.928 C 238.715 95.238,238.888 94.909,239.243 94.816 C 239.584 94.727,239.774 94.392,239.833 93.780 C 239.889 93.194,240.061 92.876,240.323 92.876 C 240.544 92.876,240.764 92.604,240.812 92.272 C 240.859 91.939,241.058 91.667,241.253 91.667 C 241.642 91.667,241.935 91.092,241.935 90.332 C 241.935 90.066,242.181 89.783,242.481 89.705 C 242.781 89.627,243.008 89.461,242.987 89.338 C 242.815 88.362,243.055 87.634,243.548 87.634 C 243.966 87.634,244.086 87.455,244.086 86.830 C 244.086 86.317,244.281 85.905,244.624 85.690 C 244.919 85.506,245.161 85.142,245.161 84.882 C 245.161 84.621,245.341 84.409,245.561 84.409 C 245.819 84.409,246.021 84.033,246.130 83.357 C 246.246 82.626,246.458 82.263,246.821 82.168 C 247.109 82.093,247.323 81.870,247.297 81.674 C 247.185 80.852,247.336 80.376,247.710 80.376 C 247.929 80.376,248.184 80.074,248.277 79.704 C 248.369 79.335,248.544 79.032,248.664 79.032 C 248.785 79.032,249.019 78.620,249.186 78.115 C 249.352 77.611,249.664 77.131,249.879 77.048 C 250.118 76.957,250.269 76.531,250.269 75.949 C 250.269 75.179,250.370 75.000,250.806 75.000 C 251.254 75.000,251.344 74.821,251.344 73.925 C 251.344 73.029,251.434 72.849,251.882 72.849 C 252.229 72.849,252.419 72.670,252.419 72.343 C 252.419 72.063,252.659 71.774,252.957 71.696 C 253.345 71.595,253.495 71.330,253.495 70.742 C 253.495 70.197,253.653 69.878,253.975 69.776 C 254.282 69.679,254.479 69.315,254.521 68.770 C 254.558 68.282,254.813 67.757,255.115 67.545 C 255.407 67.341,255.645 67.018,255.645 66.827 C 255.645 66.637,255.887 66.262,256.183 65.995 C 256.478 65.727,256.720 65.228,256.720 64.886 C 256.720 64.455,256.839 64.310,257.107 64.413 C 257.386 64.520,257.548 64.273,257.686 63.531 C 257.791 62.964,258.101 62.342,258.374 62.149 C 258.647 61.956,258.871 61.531,258.871 61.205 C 258.871 60.880,259.113 60.462,259.409 60.277 C 259.704 60.093,259.946 59.774,259.946 59.569 C 259.946 59.365,260.128 59.128,260.349 59.043 C 260.599 58.947,260.753 58.538,260.753 57.968 C 260.753 57.258,260.860 57.057,261.223 57.086 C 261.581 57.115,261.713 56.883,261.777 56.116 C 261.842 55.326,261.973 55.108,262.382 55.108 C 262.782 55.108,262.903 54.920,262.903 54.303 C 262.903 53.790,263.098 53.378,263.441 53.163 C 263.737 52.979,263.978 52.615,263.978 52.355 C 263.978 52.095,264.160 51.882,264.382 51.882 C 264.603 51.882,264.792 51.851,264.802 51.815 C 265.058 50.783,265.022 49.339,264.735 49.157 C 263.998 48.690,262.325 48.889,262.175 49.462 M237.034 105.108 C 236.850 105.403,236.486 105.645,236.226 105.645 C 235.966 105.645,235.753 105.827,235.753 106.048 C 235.753 106.270,235.511 106.694,235.215 106.989 C 234.919 107.285,234.677 107.765,234.677 108.055 C 234.677 108.346,234.437 108.712,234.142 108.870 C 233.848 109.027,233.621 109.243,233.637 109.349 C 233.753 110.125,233.527 110.710,233.065 110.831 C 232.669 110.934,232.527 111.197,232.527 111.828 C 232.527 112.459,232.385 112.722,231.989 112.825 C 231.694 112.903,231.452 113.181,231.452 113.443 C 231.452 113.706,231.262 113.994,231.031 114.082 C 230.800 114.171,230.681 114.357,230.767 114.496 C 230.853 114.634,230.800 114.824,230.650 114.917 C 230.499 115.010,230.376 115.320,230.376 115.607 C 230.376 115.894,230.196 116.129,229.976 116.129 C 229.717 116.129,229.516 116.509,229.404 117.204 C 229.301 117.853,229.086 118.280,228.863 118.280 C 228.661 118.280,228.495 118.478,228.495 118.720 C 228.495 118.963,228.283 119.316,228.024 119.505 C 227.765 119.694,227.539 119.980,227.520 120.140 C 227.502 120.299,227.471 120.603,227.453 120.815 C 227.434 121.027,227.203 121.269,226.939 121.353 C 226.631 121.451,226.435 121.815,226.393 122.368 C 226.328 123.220,225.901 123.746,225.483 123.488 C 225.365 123.415,225.269 123.846,225.269 124.447 C 225.269 125.247,225.159 125.538,224.857 125.538 C 224.631 125.538,224.368 125.740,224.273 125.988 C 224.178 126.235,223.879 126.658,223.609 126.928 C 223.339 127.198,223.118 127.714,223.118 128.073 C 223.118 128.489,222.924 128.789,222.586 128.896 C 222.293 128.989,222.066 129.148,222.080 129.250 C 222.191 130.028,221.963 130.634,221.505 130.780 C 221.162 130.889,220.968 131.186,220.968 131.604 C 220.968 131.964,220.869 132.258,220.749 132.258 C 220.628 132.258,220.328 132.681,220.081 133.199 C 219.834 133.716,219.515 134.140,219.371 134.140 C 219.228 134.140,219.031 134.563,218.934 135.081 C 218.833 135.620,218.598 136.022,218.384 136.022 C 218.179 136.022,217.996 136.263,217.977 136.559 C 217.959 136.855,217.913 137.218,217.876 137.366 C 217.839 137.513,217.794 137.755,217.776 137.903 C 217.757 138.051,217.560 138.172,217.339 138.172 C 217.117 138.172,216.935 138.385,216.935 138.645 C 216.935 138.905,216.694 139.269,216.398 139.454 C 216.055 139.668,215.860 140.081,215.860 140.594 C 215.860 141.187,215.734 141.398,215.380 141.398 C 215.032 141.398,214.881 141.636,214.834 142.257 C 214.762 143.196,214.635 143.414,214.158 143.414 C 213.985 143.414,213.807 143.868,213.761 144.422 C 213.695 145.212,213.564 145.430,213.156 145.430 C 212.837 145.430,212.634 145.614,212.634 145.903 C 212.634 146.163,212.392 146.527,212.097 146.712 C 211.762 146.921,211.559 147.339,211.559 147.820 C 211.559 148.371,211.402 148.634,211.014 148.736 C 210.714 148.814,210.486 148.980,210.508 149.103 C 210.682 150.093,210.440 150.806,209.930 150.806 C 209.626 150.806,209.440 150.909,209.518 151.035 C 209.596 151.161,209.361 151.668,208.996 152.163 C 208.632 152.657,208.333 153.265,208.333 153.514 C 208.333 153.763,208.152 154.117,207.930 154.301 C 207.005 155.069,207.818 155.914,209.484 155.914 C 210.059 155.914,210.582 155.714,210.887 155.376 C 211.155 155.081,211.608 154.839,211.895 154.839 C 212.190 154.839,212.477 154.605,212.557 154.301 C 212.661 153.902,212.923 153.763,213.575 153.763 C 214.227 153.763,214.490 153.625,214.594 153.226 C 214.698 152.830,214.961 152.688,215.591 152.688 C 216.222 152.688,216.485 152.546,216.589 152.151 C 216.666 151.855,216.944 151.613,217.207 151.613 C 217.470 151.613,217.750 151.443,217.829 151.235 C 217.909 151.027,218.345 150.776,218.797 150.676 C 219.250 150.577,219.719 150.320,219.839 150.105 C 219.959 149.890,220.405 149.651,220.830 149.574 C 221.811 149.396,222.092 149.221,221.897 148.906 C 221.812 148.769,221.931 148.641,222.162 148.622 C 222.392 148.604,222.702 148.558,222.849 148.522 C 222.997 148.485,223.300 148.439,223.522 148.421 C 223.743 148.402,223.925 148.214,223.925 148.003 C 223.925 147.791,224.197 147.579,224.530 147.532 C 224.862 147.485,225.134 147.305,225.134 147.133 C 225.134 146.656,225.353 146.528,226.291 146.457 C 226.913 146.409,227.151 146.258,227.151 145.911 C 227.151 145.538,227.368 145.430,228.117 145.430 C 228.857 145.430,229.115 145.304,229.223 144.892 C 229.314 144.545,229.590 144.355,230.004 144.355 C 230.357 144.355,230.887 144.113,231.183 143.817 C 231.478 143.522,231.902 143.280,232.124 143.280 C 232.348 143.280,232.527 143.041,232.527 142.742 C 232.527 142.304,232.706 142.204,233.493 142.204 C 234.233 142.204,234.492 142.078,234.600 141.667 C 234.724 141.191,235.190 141.041,236.210 141.149 C 236.313 141.160,236.491 140.918,236.604 140.611 C 236.718 140.305,237.048 140.054,237.338 140.054 C 238.016 140.054,239.759 138.948,239.774 138.508 C 239.780 138.323,239.997 138.158,240.255 138.141 C 240.514 138.124,240.847 138.082,240.995 138.048 C 241.142 138.013,241.415 137.967,241.599 137.944 C 241.784 137.922,241.935 137.722,241.935 137.500 C 241.935 137.278,242.087 137.088,242.272 137.076 C 243.159 137.022,243.695 136.822,243.974 136.440 C 244.142 136.210,244.478 136.022,244.720 136.022 C 244.963 136.022,245.391 135.792,245.672 135.510 C 245.953 135.229,246.439 134.918,246.752 134.819 C 247.064 134.720,247.255 134.535,247.177 134.408 C 246.979 134.087,247.360 133.896,248.350 133.821 C 248.957 133.775,249.194 133.622,249.194 133.276 C 249.194 132.824,249.760 132.645,250.760 132.780 C 250.956 132.807,251.179 132.591,251.255 132.300 C 251.345 131.956,251.714 131.711,252.310 131.599 C 252.853 131.497,253.226 131.268,253.226 131.036 C 253.226 130.798,253.489 130.645,253.898 130.645 C 254.391 130.645,254.570 130.502,254.570 130.108 C 254.570 129.701,254.750 129.569,255.309 129.566 C 256.123 129.561,256.782 129.239,256.738 128.868 C 256.722 128.736,257.135 128.591,257.656 128.546 C 258.262 128.492,258.602 128.323,258.602 128.075 C 258.602 127.862,258.774 127.688,258.985 127.688 C 259.195 127.688,259.709 127.404,260.127 127.056 C 260.545 126.709,261.046 126.479,261.241 126.547 C 261.438 126.615,261.660 126.419,261.743 126.104 C 261.839 125.735,262.106 125.538,262.509 125.538 C 263.408 125.538,263.978 125.265,263.978 124.837 C 263.978 124.616,264.256 124.462,264.655 124.462 C 265.475 124.462,267.306 122.695,267.084 122.118 C 267.002 121.905,266.935 121.680,266.935 121.618 C 266.935 121.556,266.768 121.505,266.564 121.505 C 266.359 121.505,266.131 121.271,266.056 120.986 C 265.966 120.644,265.588 120.403,264.949 120.284 C 264.392 120.179,263.978 119.944,263.978 119.731 C 263.978 119.507,263.554 119.293,262.903 119.189 C 262.255 119.086,261.828 118.871,261.828 118.648 C 261.828 118.446,261.605 118.280,261.332 118.280 C 261.059 118.280,260.617 118.038,260.349 117.742 C 260.082 117.446,259.593 117.204,259.264 117.204 C 258.891 117.204,258.612 117.001,258.524 116.667 C 258.423 116.281,258.158 116.129,257.583 116.129 C 257.009 116.129,256.743 115.977,256.643 115.591 C 256.535 115.180,256.276 115.054,255.536 115.054 C 254.749 115.054,254.570 114.954,254.570 114.516 C 254.570 114.158,254.391 113.978,254.032 113.978 C 253.737 113.978,253.253 113.737,252.957 113.441 C 252.661 113.145,252.177 112.903,251.882 112.903 C 251.586 112.903,251.344 112.735,251.344 112.529 C 251.344 112.100,250.773 111.828,249.875 111.828 C 249.482 111.828,249.205 111.632,249.116 111.290 C 249.015 110.905,248.749 110.753,248.175 110.753 C 247.588 110.753,247.335 110.602,247.227 110.188 C 247.146 109.877,246.957 109.699,246.808 109.791 C 246.659 109.883,246.319 109.729,246.051 109.448 C 245.783 109.167,245.263 108.845,244.894 108.731 C 244.524 108.617,244.101 108.360,243.953 108.160 C 243.804 107.960,243.332 107.769,242.902 107.734 C 242.417 107.695,242.074 107.492,241.997 107.196 C 241.905 106.844,241.601 106.720,240.829 106.720 C 239.964 106.720,239.785 106.628,239.785 106.183 C 239.785 105.849,239.606 105.645,239.312 105.645 C 239.052 105.645,238.688 105.403,238.503 105.108 C 238.319 104.812,237.988 104.570,237.769 104.570 C 237.550 104.570,237.219 104.812,237.034 105.108 M385.956 211.005 C 385.770 211.270,385.225 211.573,384.745 211.679 C 384.264 211.784,383.871 211.991,383.871 212.137 C 383.871 212.519,383.160 213.178,382.962 212.980 C 382.871 212.889,382.796 213.257,382.796 213.799 C 382.796 214.615,382.700 214.785,382.242 214.785 C 381.704 214.785,381.691 214.898,381.772 218.884 C 381.847 222.595,381.899 222.980,382.325 222.947 C 382.628 222.923,382.796 223.100,382.796 223.442 C 382.796 223.749,383.024 224.035,383.333 224.116 C 383.631 224.193,383.871 224.482,383.871 224.763 C 383.871 225.041,384.048 225.269,384.265 225.269 C 384.481 225.269,384.788 225.511,384.946 225.806 C 385.116 226.125,385.509 226.344,385.908 226.344 C 386.278 226.344,386.824 226.570,387.120 226.846 C 387.545 227.242,388.010 227.334,389.327 227.284 C 391.878 227.187,391.935 227.176,391.935 226.782 C 391.935 226.559,392.362 226.345,393.011 226.241 C 393.707 226.130,394.086 225.928,394.086 225.669 C 394.086 225.308,394.406 225.150,394.960 225.237 C 395.071 225.254,395.161 225.035,395.161 224.749 C 395.161 224.464,395.403 224.153,395.699 224.059 C 396.094 223.934,396.237 223.652,396.237 222.997 C 396.237 222.350,396.375 222.069,396.743 221.973 C 397.558 221.760,397.601 215.860,396.787 215.860 C 396.324 215.860,396.237 215.689,396.237 214.785 C 396.237 213.889,396.147 213.710,395.699 213.710 C 395.341 213.710,395.161 213.530,395.161 213.172 C 395.161 212.814,394.982 212.634,394.624 212.634 C 394.272 212.634,394.086 212.455,394.086 212.115 C 394.086 211.800,393.871 211.563,393.538 211.511 C 393.236 211.463,393.003 211.308,393.020 211.166 C 393.116 210.358,386.514 210.208,385.956 211.005 " stroke="none" fill="#0474fc" fill-rule="evenodd"></path><path id="path1" d="M169.748 193.078 C 169.677 193.263,169.651 209.745,169.689 229.704 L 169.758 265.995 177.487 266.066 L 185.215 266.137 185.223 264.050 C 185.229 262.500,185.302 262.084,185.505 262.433 C 185.668 262.713,186.101 262.903,186.572 262.903 C 187.186 262.903,187.366 263.025,187.366 263.441 C 187.366 263.889,187.545 263.978,188.441 263.978 C 189.337 263.978,189.516 264.068,189.516 264.516 C 189.516 264.994,189.695 265.054,191.129 265.054 C 192.563 265.054,192.742 265.114,192.742 265.591 C 192.742 266.115,192.920 266.129,199.798 266.125 C 207.145 266.122,208.065 266.044,208.065 265.426 C 208.065 265.164,208.423 265.054,209.274 265.054 C 210.305 265.054,210.484 264.974,210.484 264.516 C 210.484 264.068,210.663 263.978,211.559 263.978 C 212.299 263.978,212.634 263.862,212.634 263.604 C 212.634 263.191,213.200 262.903,214.009 262.903 C 214.297 262.903,214.603 262.722,214.688 262.500 C 214.773 262.278,215.007 262.097,215.207 262.097 C 215.408 262.097,215.701 261.856,215.859 261.562 C 216.016 261.268,216.447 260.952,216.816 260.859 C 217.185 260.767,217.609 260.463,217.758 260.184 C 217.908 259.905,218.207 259.677,218.423 259.677 C 218.640 259.677,218.817 259.496,218.817 259.274 C 218.817 259.052,219.002 258.871,219.229 258.871 C 219.455 258.871,219.717 258.659,219.810 258.401 C 219.902 258.142,220.201 257.714,220.473 257.449 C 220.745 257.185,220.968 256.671,220.968 256.307 C 220.968 255.824,221.113 255.645,221.505 255.645 C 221.853 255.645,222.043 255.466,222.043 255.139 C 222.043 254.859,222.283 254.570,222.581 254.492 C 222.992 254.384,223.118 254.125,223.118 253.385 C 223.118 252.599,223.218 252.419,223.656 252.419 C 224.090 252.419,224.194 252.240,224.194 251.488 C 224.194 250.832,224.352 250.472,224.731 250.269 C 225.149 250.045,225.269 249.706,225.269 248.743 C 225.269 247.875,225.409 247.403,225.739 247.162 C 226.127 246.879,226.226 246.299,226.300 243.853 C 226.366 241.715,226.497 240.799,226.771 240.572 C 227.314 240.121,227.295 237.210,226.747 237.000 C 226.426 236.876,226.344 236.300,226.344 234.170 C 226.344 231.272,226.219 230.645,225.643 230.645 C 225.368 230.645,225.269 230.248,225.269 229.142 C 225.269 227.864,225.188 227.617,224.731 227.497 C 224.310 227.387,224.194 227.131,224.194 226.313 C 224.194 225.448,224.101 225.269,223.656 225.269 C 223.218 225.269,223.118 225.090,223.118 224.303 C 223.118 223.563,222.992 223.304,222.581 223.196 C 222.283 223.118,222.043 222.829,222.043 222.549 C 222.043 222.222,221.853 222.043,221.505 222.043 C 221.070 222.043,220.968 221.864,220.968 221.102 C 220.968 220.341,220.865 220.161,220.430 220.161 C 220.072 220.161,219.892 219.982,219.892 219.624 C 219.892 219.265,219.713 219.086,219.355 219.086 C 218.996 219.086,218.817 218.907,218.817 218.548 C 218.817 218.190,218.638 218.011,218.280 218.011 C 217.921 218.011,217.742 217.832,217.742 217.473 C 217.742 217.115,217.563 216.935,217.204 216.935 C 216.846 216.935,216.667 216.756,216.667 216.398 C 216.667 215.966,216.487 215.860,215.757 215.860 C 215.074 215.860,214.813 215.727,214.707 215.323 C 214.626 215.014,214.340 214.785,214.035 214.785 C 213.730 214.785,213.444 214.556,213.363 214.247 C 213.255 213.835,212.996 213.710,212.256 213.710 C 211.613 213.710,211.290 213.585,211.290 213.338 C 211.290 212.914,210.484 212.643,209.207 212.638 C 208.514 212.635,208.333 212.523,208.333 212.097 C 208.333 211.598,208.154 211.559,205.844 211.559 C 203.609 211.559,203.319 211.502,203.004 210.996 C 202.522 210.225,197.719 210.303,197.279 211.089 C 197.061 211.478,196.630 211.559,194.767 211.559 C 192.287 211.559,191.667 211.699,191.667 212.260 C 191.667 212.518,191.331 212.634,190.591 212.634 C 189.695 212.634,189.516 212.724,189.516 213.172 C 189.516 213.620,189.337 213.710,188.441 213.710 C 187.545 213.710,187.366 213.799,187.366 214.247 C 187.366 214.680,187.186 214.785,186.447 214.785 C 185.942 214.785,185.468 214.936,185.393 215.121 C 185.319 215.306,185.248 210.346,185.236 204.099 L 185.215 192.742 177.545 192.742 C 171.657 192.742,169.846 192.820,169.748 193.078 M357.696 193.616 C 357.607 193.948,357.533 198.122,357.531 202.890 L 357.527 211.559 350.723 211.559 C 341.971 211.559,342.898 210.749,342.791 218.488 L 342.706 224.654 343.551 225.499 L 344.396 226.344 350.962 226.344 L 357.527 226.344 357.527 245.602 C 357.527 263.628,357.557 264.883,357.997 265.217 C 358.679 265.735,371.966 265.735,372.648 265.217 C 373.092 264.880,373.118 262.859,373.118 229.449 L 373.118 194.038 372.513 193.533 C 371.956 193.069,371.354 193.028,364.884 193.020 L 357.858 193.011 357.696 193.616 M3.763 218.787 C 3.763 225.133,3.815 226.038,4.189 226.181 C 4.423 226.271,9.382 226.344,15.210 226.344 C 25.627 226.344,25.806 226.353,25.806 226.882 C 25.806 227.184,25.627 227.419,25.397 227.419 C 25.171 227.419,24.872 227.722,24.731 228.091 C 24.591 228.461,24.361 228.763,24.222 228.763 C 24.082 228.763,23.890 229.114,23.796 229.543 C 23.697 229.996,23.407 230.379,23.103 230.458 C 22.816 230.533,22.581 230.773,22.581 230.992 C 22.581 231.210,22.339 231.452,22.043 231.530 C 21.747 231.607,21.505 231.863,21.505 232.098 C 21.505 232.334,21.313 232.527,21.077 232.527 C 20.841 232.527,20.585 232.769,20.508 233.065 C 20.430 233.362,20.141 233.602,19.861 233.602 C 19.534 233.602,19.355 233.792,19.355 234.140 C 19.355 234.453,19.176 234.677,18.926 234.677 C 18.691 234.677,18.435 234.919,18.357 235.215 C 18.280 235.511,18.050 235.753,17.845 235.753 C 17.640 235.753,17.473 235.945,17.473 236.181 C 17.473 236.417,17.231 236.673,16.935 236.750 C 16.638 236.828,16.398 237.117,16.398 237.397 C 16.398 237.724,16.208 237.903,15.860 237.903 C 15.502 237.903,15.323 238.082,15.323 238.441 C 15.323 238.744,15.143 238.978,14.911 238.978 C 14.685 238.978,14.420 239.190,14.324 239.449 C 14.227 239.708,13.929 240.077,13.660 240.271 C 13.392 240.464,13.172 240.868,13.172 241.169 C 13.172 241.491,12.950 241.775,12.634 241.858 C 12.337 241.935,12.097 242.224,12.097 242.504 C 12.097 242.832,11.906 243.011,11.559 243.011 C 11.201 243.011,11.022 243.190,11.022 243.548 C 11.022 243.907,10.842 244.086,10.484 244.086 C 10.125 244.086,9.946 244.265,9.946 244.624 C 9.946 244.982,9.767 245.161,9.409 245.161 C 9.050 245.161,8.871 245.341,8.871 245.699 C 8.871 246.012,8.692 246.237,8.443 246.237 C 8.207 246.237,7.951 246.478,7.874 246.774 C 7.796 247.070,7.574 247.312,7.379 247.312 C 7.185 247.312,6.949 247.554,6.855 247.849 C 6.761 248.145,6.511 248.387,6.299 248.387 C 6.087 248.387,5.914 248.629,5.914 248.925 C 5.914 249.283,5.735 249.462,5.376 249.462 C 5.018 249.462,4.839 249.642,4.839 250.000 C 4.839 250.358,4.659 250.538,4.301 250.538 C 3.776 250.538,3.763 250.717,3.763 258.333 L 3.763 266.129 25.643 266.129 C 45.347 266.129,47.539 266.087,47.686 265.704 C 47.776 265.470,47.849 262.204,47.849 258.446 L 47.849 251.613 36.181 251.613 C 24.645 251.613,24.514 251.607,24.653 251.075 C 24.731 250.780,24.973 250.538,25.191 250.538 C 25.409 250.538,25.651 250.296,25.729 250.000 C 25.806 249.704,26.048 249.462,26.266 249.462 C 26.485 249.462,26.727 249.220,26.804 248.925 C 26.881 248.629,27.112 248.387,27.316 248.387 C 27.521 248.387,27.688 248.145,27.688 247.849 C 27.688 247.491,27.867 247.312,28.226 247.312 C 28.584 247.312,28.763 247.133,28.763 246.774 C 28.763 246.416,28.943 246.237,29.301 246.237 C 29.659 246.237,29.839 246.057,29.839 245.699 C 29.839 245.341,30.018 245.161,30.376 245.161 C 30.735 245.161,30.914 244.982,30.914 244.624 C 30.914 244.265,31.093 244.086,31.452 244.086 C 31.799 244.086,31.989 243.907,31.989 243.580 C 31.989 243.300,32.229 243.011,32.527 242.933 C 32.823 242.856,33.065 242.614,33.065 242.395 C 33.065 242.177,33.306 241.935,33.602 241.858 C 33.898 241.780,34.140 241.524,34.140 241.289 C 34.140 241.053,34.259 240.860,34.405 240.860 C 34.551 240.860,34.847 240.437,35.063 239.919 C 35.280 239.402,35.644 238.978,35.873 238.978 C 36.103 238.978,36.290 238.751,36.290 238.472 C 36.290 238.192,36.530 237.903,36.828 237.825 C 37.124 237.748,37.366 237.492,37.366 237.256 C 37.366 237.021,37.539 236.828,37.751 236.828 C 37.963 236.828,38.213 236.586,38.306 236.290 C 38.400 235.995,38.650 235.753,38.862 235.753 C 39.074 235.753,39.247 235.511,39.247 235.215 C 39.247 234.857,39.427 234.677,39.785 234.677 C 40.143 234.677,40.323 234.498,40.323 234.140 C 40.323 233.781,40.502 233.602,40.860 233.602 C 41.219 233.602,41.398 233.423,41.398 233.065 C 41.398 232.706,41.577 232.527,41.935 232.527 C 42.294 232.527,42.473 232.348,42.473 231.989 C 42.473 231.631,42.652 231.452,43.011 231.452 C 43.369 231.452,43.548 231.272,43.548 230.914 C 43.548 230.556,43.728 230.376,44.086 230.376 C 44.444 230.376,44.624 230.197,44.624 229.839 C 44.624 229.543,44.797 229.301,45.009 229.301 C 45.221 229.301,45.471 229.059,45.565 228.763 C 45.658 228.468,45.854 228.226,46.000 228.226 C 46.145 228.226,46.441 227.802,46.657 227.285 C 46.873 226.767,47.232 226.344,47.454 226.344 C 47.805 226.344,47.849 225.388,47.787 219.019 L 47.715 211.694 25.739 211.625 L 3.763 211.556 3.763 218.787 M81.452 228.627 C 81.452 245.403,81.461 245.700,81.989 246.030 C 82.411 246.294,82.527 246.657,82.527 247.720 C 82.527 248.741,82.659 249.187,83.065 249.534 C 83.360 249.788,83.602 250.298,83.602 250.669 C 83.602 251.090,83.754 251.344,84.005 251.344 C 84.289 251.344,84.409 251.631,84.409 252.310 C 84.409 253.050,84.534 253.309,84.946 253.417 C 85.287 253.506,85.484 253.783,85.484 254.176 C 85.484 255.074,85.756 255.645,86.185 255.645 C 86.391 255.645,86.559 255.887,86.559 256.183 C 86.559 256.541,86.738 256.720,87.097 256.720 C 87.455 256.720,87.634 256.900,87.634 257.258 C 87.634 257.616,87.814 257.796,88.172 257.796 C 88.530 257.796,88.710 257.975,88.710 258.333 C 88.710 258.692,88.889 258.871,89.247 258.871 C 89.606 258.871,89.785 259.050,89.785 259.409 C 89.785 259.767,89.964 259.946,90.323 259.946 C 90.681 259.946,90.860 260.125,90.860 260.484 C 90.860 260.842,91.039 261.022,91.398 261.022 C 91.711 261.022,91.935 261.201,91.935 261.450 C 91.935 261.686,92.169 261.939,92.455 262.014 C 92.740 262.089,93.039 262.319,93.118 262.526 C 93.199 262.738,93.630 262.903,94.103 262.903 C 94.717 262.903,94.981 263.048,95.083 263.441 C 95.188 263.840,95.450 263.978,96.102 263.978 C 96.754 263.978,97.017 264.117,97.121 264.516 C 97.240 264.973,97.488 265.054,98.765 265.054 C 100.090 265.054,100.269 265.118,100.269 265.591 C 100.269 266.116,100.448 266.129,107.639 266.129 C 115.202 266.129,115.860 266.073,115.860 265.428 C 115.860 265.175,116.186 265.054,116.871 265.054 C 117.590 265.054,117.978 264.899,118.217 264.516 C 118.431 264.173,118.844 263.978,119.357 263.978 C 119.865 263.978,120.161 263.841,120.161 263.604 C 120.161 263.171,120.734 262.903,121.662 262.903 C 122.036 262.903,122.312 262.745,122.312 262.531 C 122.312 262.327,122.554 262.096,122.849 262.019 C 123.145 261.942,123.387 261.699,123.387 261.480 C 123.387 261.237,123.755 261.012,124.328 260.905 C 124.847 260.808,125.269 260.567,125.269 260.369 C 125.269 260.171,125.511 259.946,125.806 259.868 C 126.102 259.791,126.344 259.535,126.344 259.299 C 126.344 259.050,126.569 258.871,126.882 258.871 C 127.237 258.871,127.419 258.692,127.419 258.343 C 127.419 258.052,127.661 257.685,127.957 257.527 C 128.309 257.338,128.495 256.964,128.495 256.442 C 128.495 255.824,128.616 255.645,129.032 255.645 C 129.391 255.645,129.570 255.466,129.570 255.108 C 129.570 254.749,129.749 254.570,130.108 254.570 C 130.556 254.570,130.645 254.391,130.645 253.495 C 130.645 252.599,130.735 252.419,131.183 252.419 C 131.614 252.419,131.720 252.240,131.720 251.510 C 131.720 250.826,131.854 250.565,132.258 250.460 C 132.713 250.341,132.796 250.093,132.796 248.847 C 132.796 247.601,132.878 247.353,133.333 247.234 C 133.824 247.106,133.871 246.867,133.871 244.514 C 133.871 242.489,133.951 241.935,134.245 241.935 C 134.451 241.935,134.693 241.744,134.783 241.510 C 135.078 240.741,134.968 212.640,134.668 212.079 C 134.402 211.583,134.025 211.559,126.462 211.559 L 118.535 211.559 118.273 212.249 C 118.114 212.666,118.011 218.704,118.011 227.543 C 118.011 240.276,117.959 242.167,117.608 242.302 C 117.386 242.387,117.204 242.692,117.204 242.980 C 117.204 243.789,116.916 244.355,116.503 244.355 C 116.255 244.355,116.129 244.671,116.129 245.296 C 116.129 246.057,116.027 246.237,115.591 246.237 C 115.233 246.237,115.054 246.416,115.054 246.774 C 115.054 247.133,114.875 247.312,114.516 247.312 C 114.158 247.312,113.978 247.491,113.978 247.849 C 113.978 248.297,113.799 248.387,112.903 248.387 C 112.007 248.387,111.828 248.477,111.828 248.925 C 111.828 249.436,111.649 249.462,108.199 249.462 C 104.928 249.462,104.517 249.409,104.032 248.925 C 103.737 248.629,103.253 248.387,102.957 248.387 C 102.653 248.387,102.419 248.208,102.419 247.975 C 102.419 247.749,102.226 247.490,101.989 247.399 C 101.435 247.186,100.394 246.145,100.182 245.591 C 100.091 245.355,99.832 245.161,99.605 245.161 C 99.373 245.161,99.194 244.927,99.194 244.624 C 99.194 244.265,99.014 244.086,98.656 244.086 C 98.183 244.086,98.118 243.907,98.118 242.608 C 98.118 241.308,98.053 241.129,97.581 241.129 C 97.050 241.129,97.043 240.950,97.043 226.344 L 97.043 211.559 89.247 211.559 L 81.452 211.559 81.452 228.627 M256.720 228.789 C 256.720 245.792,256.727 246.020,257.258 246.159 C 257.717 246.279,257.796 246.525,257.796 247.849 C 257.796 249.174,257.874 249.420,258.333 249.540 C 258.745 249.648,258.871 249.907,258.871 250.645 C 258.871 251.317,259.033 251.710,259.409 251.944 C 259.704 252.129,259.946 252.524,259.946 252.823 C 259.946 253.121,260.188 253.516,260.484 253.701 C 260.827 253.915,261.022 254.328,261.022 254.841 C 261.022 255.346,261.160 255.645,261.393 255.645 C 261.598 255.645,261.829 255.887,261.906 256.183 C 261.983 256.478,262.239 256.720,262.475 256.720 C 262.710 256.720,262.903 256.898,262.903 257.114 C 262.903 257.331,263.145 257.637,263.441 257.796 C 263.737 257.954,263.978 258.261,263.978 258.477 C 263.978 258.694,264.171 258.871,264.407 258.871 C 264.643 258.871,264.899 259.113,264.976 259.409 C 265.054 259.706,265.343 259.946,265.623 259.946 C 265.950 259.946,266.129 260.137,266.129 260.484 C 266.129 260.842,266.308 261.022,266.667 261.022 C 266.979 261.022,267.204 261.201,267.204 261.450 C 267.204 261.686,267.446 261.942,267.742 262.019 C 268.038 262.096,268.280 262.327,268.280 262.531 C 268.280 262.786,268.619 262.903,269.355 262.903 C 270.251 262.903,270.430 262.993,270.430 263.441 C 270.430 263.889,270.609 263.978,271.505 263.978 C 272.401 263.978,272.581 264.068,272.581 264.516 C 272.581 264.989,272.760 265.054,274.059 265.054 C 275.358 265.054,275.538 265.119,275.538 265.591 C 275.538 266.116,275.717 266.129,282.888 266.129 C 289.898 266.129,290.262 266.104,290.726 265.591 C 291.055 265.227,291.554 265.054,292.271 265.054 C 293.104 265.054,293.360 264.939,293.470 264.516 C 293.576 264.112,293.837 263.978,294.521 263.978 C 295.119 263.978,295.430 263.850,295.430 263.604 C 295.430 263.171,296.003 262.903,296.931 262.903 C 297.305 262.903,297.581 262.745,297.581 262.531 C 297.581 262.327,297.823 262.096,298.118 262.019 C 298.414 261.942,298.656 261.686,298.656 261.450 C 298.656 261.210,298.878 261.022,299.162 261.022 C 299.441 261.022,299.727 260.797,299.799 260.522 C 299.871 260.247,300.243 259.944,300.626 259.848 C 301.621 259.598,302.660 258.542,302.851 257.588 C 302.948 257.099,303.220 256.714,303.523 256.635 C 303.803 256.562,304.032 256.309,304.032 256.074 C 304.032 255.838,304.214 255.645,304.435 255.645 C 304.657 255.645,304.839 255.468,304.839 255.251 C 304.839 255.035,305.081 254.728,305.376 254.570 C 305.755 254.367,305.914 254.007,305.914 253.351 C 305.914 252.599,306.017 252.419,306.452 252.419 C 306.900 252.419,306.989 252.240,306.989 251.344 C 306.989 250.448,307.079 250.269,307.527 250.269 C 307.999 250.269,308.065 250.090,308.065 248.790 C 308.065 247.670,308.195 247.181,308.602 246.774 C 309.081 246.296,309.140 245.878,309.140 242.973 C 309.140 240.175,309.207 239.661,309.610 239.366 C 310.425 238.771,310.476 214.418,309.666 212.745 L 309.092 211.559 301.320 211.559 L 293.548 211.559 293.548 226.772 C 293.548 241.760,293.540 241.988,293.011 242.126 C 292.612 242.231,292.473 242.493,292.473 243.145 C 292.473 243.797,292.335 244.060,291.935 244.164 C 291.631 244.244,291.398 244.531,291.398 244.826 C 291.398 245.112,291.156 245.566,290.860 245.833 C 290.565 246.101,290.323 246.530,290.323 246.786 C 290.323 247.106,290.027 247.307,289.382 247.429 C 288.819 247.534,288.441 247.762,288.441 247.996 C 288.441 248.234,288.178 248.387,287.769 248.387 C 287.276 248.387,287.097 248.530,287.097 248.925 C 287.097 249.439,286.918 249.462,282.930 249.462 C 278.943 249.462,278.763 249.439,278.763 248.925 C 278.763 248.566,278.584 248.387,278.226 248.387 C 277.923 248.387,277.688 248.208,277.688 247.977 C 277.688 247.752,277.386 247.452,277.016 247.312 C 276.647 247.171,276.344 246.932,276.344 246.781 C 276.344 246.629,276.163 246.505,275.941 246.505 C 275.719 246.505,275.538 246.272,275.538 245.986 C 275.538 245.700,275.296 245.390,275.000 245.296 C 274.704 245.202,274.462 244.891,274.462 244.606 C 274.462 244.265,274.277 244.086,273.925 244.086 C 273.477 244.086,273.387 243.907,273.387 243.011 C 273.387 242.294,273.208 241.756,272.849 241.398 C 272.325 240.873,272.312 240.502,272.312 226.210 L 272.312 211.559 264.516 211.559 L 256.720 211.559 256.720 228.789 M202.890 227.416 C 203.944 227.419,204.301 227.518,204.301 227.810 C 204.301 228.043,204.675 228.272,205.223 228.374 C 205.731 228.470,206.211 228.717,206.290 228.924 C 206.370 229.132,206.606 229.301,206.815 229.301 C 207.024 229.301,207.259 229.543,207.336 229.839 C 207.413 230.134,207.669 230.376,207.905 230.376 C 208.154 230.376,208.333 230.601,208.333 230.914 C 208.333 231.272,208.513 231.452,208.871 231.452 C 209.260 231.452,209.409 231.631,209.409 232.102 C 209.409 233.030,209.676 233.602,210.109 233.602 C 210.360 233.602,210.484 233.922,210.484 234.568 C 210.484 235.308,210.610 235.567,211.022 235.675 C 211.519 235.805,211.559 236.041,211.559 238.857 C 211.559 241.663,211.517 241.912,211.022 242.070 C 210.626 242.195,210.484 242.477,210.484 243.132 C 210.484 243.797,210.348 244.059,209.946 244.164 C 209.534 244.272,209.409 244.531,209.409 245.271 C 209.409 246.057,209.309 246.237,208.871 246.237 C 208.513 246.237,208.333 246.416,208.333 246.774 C 208.333 247.133,208.154 247.312,207.796 247.312 C 207.437 247.312,207.258 247.491,207.258 247.849 C 207.258 248.209,207.079 248.387,206.718 248.387 C 206.421 248.387,205.970 248.629,205.717 248.925 C 205.464 249.220,205.071 249.462,204.844 249.462 C 204.616 249.462,204.279 249.704,204.095 250.000 C 203.787 250.492,203.468 250.538,200.298 250.538 C 197.063 250.538,196.828 250.503,196.696 250.000 C 196.589 249.588,196.330 249.462,195.590 249.462 C 194.803 249.462,194.624 249.363,194.624 248.925 C 194.624 248.566,194.444 248.387,194.086 248.387 C 193.790 248.387,193.548 248.264,193.548 248.113 C 193.548 247.961,193.246 247.700,192.877 247.532 C 192.508 247.364,192.000 246.761,191.750 246.194 C 191.499 245.626,191.136 245.161,190.943 245.161 C 190.750 245.161,190.591 244.919,190.591 244.624 C 190.591 244.328,190.349 243.844,190.054 243.548 C 189.733 243.227,189.516 242.652,189.516 242.121 C 189.516 241.602,189.292 240.990,188.978 240.653 C 188.566 240.211,188.441 239.705,188.441 238.483 C 188.441 237.117,188.517 236.871,188.978 236.750 C 189.435 236.631,189.516 236.383,189.516 235.106 C 189.516 233.781,189.580 233.602,190.054 233.602 C 190.415 233.602,190.591 233.423,190.591 233.056 C 190.591 232.756,190.770 232.442,190.987 232.358 C 191.205 232.275,191.460 231.794,191.555 231.291 C 191.678 230.634,191.870 230.376,192.234 230.376 C 192.563 230.376,192.742 230.187,192.742 229.839 C 192.742 229.492,192.921 229.301,193.247 229.301 C 193.524 229.301,193.902 229.120,194.086 228.898 C 194.270 228.676,194.659 228.495,194.951 228.495 C 195.251 228.495,195.540 228.266,195.618 227.968 C 195.761 227.421,198.197 227.102,200.538 227.324 C 201.055 227.373,202.114 227.415,202.890 227.416 " stroke="none" fill="#040404" fill-rule="evenodd"></path><path id="path2" d="" stroke="none" fill="#0440100" fill-rule="evenodd"></path><path id="path3" d="" stroke="none" fill="#0440100" fill-rule="evenodd"></path><path id="path4" d="" stroke="none" fill="#0440100" fill-rule="evenodd"></path></g></svg>